<svg width="375" height="400" viewBox="0 0 375 400" fill="none" xmlns="http://www.w3.org/2000/svg">
<g clip-path="url(#clip0)">
<path d="M165.48 131.92C175.44 128.48 186.36 128.48 196.32 131.96C191.8 126.48 186.56 121.88 180.88 118.12C175.2 121.88 169.96 126.48 165.48 131.92Z" fill="#601B23"/>
<path d="M165.48 131.92C175.44 128.48 186.36 128.48 196.32 131.96C191.8 126.48 186.56 121.88 180.88 118.12C175.2 121.88 169.96 126.48 165.48 131.92Z" stroke="#601B23" stroke-width="6" stroke-miterlimit="10" stroke-linecap="round" stroke-linejoin="round"/>
<path d="M197.64 287.28C197.64 294.72 196.08 301.84 193.2 309.08C193.12 309.32 193 309.56 192.88 309.84C190 316.72 185.88 323.6 180.88 327.64C175.72 323.48 171.52 316.32 168.6 309.24C168.56 309.2 168.56 309.16 168.52 309.08C165.64 301.84 164.08 294.72 164.08 287.28C164.08 285 164.24 282.76 164.52 280.44C165.48 272.68 170.76 263.32 177.36 262.32C177.44 262.32 177.52 262.28 177.6 262.28C179.68 262.04 181.8 262.04 183.88 262.24C183.96 262.24 184.08 262.24 184.16 262.28C190.88 263.12 196.28 272.6 197.24 280.44C197.48 282.76 197.64 285 197.64 287.28Z" fill="#6045E2"/>
<path d="M197.64 287.28C197.64 294.72 196.08 301.84 193.2 309.08C193.12 309.32 193 309.56 192.88 309.84C190 316.72 185.88 323.6 180.88 327.64C175.72 323.48 171.52 316.32 168.6 309.24C168.56 309.2 168.56 309.16 168.52 309.08C165.64 301.84 164.08 294.72 164.08 287.28C164.08 285 164.24 282.76 164.52 280.44C165.48 272.68 170.76 263.32 177.36 262.32C177.44 262.32 177.52 262.28 177.6 262.28C179.68 262.04 181.8 262.04 183.88 262.24C183.96 262.24 184.08 262.24 184.16 262.28C190.88 263.12 196.28 272.6 197.24 280.44C197.48 282.76 197.64 285 197.64 287.28Z" stroke="#3129A4" stroke-width="6" stroke-miterlimit="10" stroke-linecap="round" stroke-linejoin="round"/>
<path d="M383 328.48C376.92 330.28 371.96 334.72 369.48 340.48C364.68 338.76 359.48 337.8 354.08 337.8C338.08 337.8 324 346.04 315.84 358.48C311.6 356.48 306.88 355.4 301.88 355.4C299.68 355.4 297.56 355.6 295.52 356.04C295.52 355.84 295.52 355.64 295.52 355.4C295.52 345.2 288.32 336.68 278.76 334.64C275.08 322.04 263.48 312.8 249.68 312.8C238.2 312.8 228.2 319.2 223.08 328.6C219.52 325.28 214.76 323.2 209.52 323.2C206.52 323.2 203.68 323.88 201.12 325.04C198 320.2 195.24 315.12 192.88 309.76C187.04 296.56 183.8 281.84 183.8 266.4C183.8 265 183.84 263.64 183.88 262.24C184.56 244.36 189.56 227.6 197.92 212.96H163.32C171.68 227.6 176.68 244.4 177.36 262.28C177.4 263.64 177.44 265 177.44 266.36C177.44 281.56 174.28 296.08 168.6 309.2C164.88 317.76 160.12 325.76 154.4 333C149.56 327 142.16 323.2 133.88 323.2C125.56 323.2 118.16 327.04 113.32 333.04C109.44 330.76 104.96 329.44 100.12 329.44C92.3601 329.44 85.3601 332.88 80.6001 338.28C73.5601 327.84 61.6401 320.96 48.1201 320.96C26.5201 320.96 9.00008 338.48 9.00008 360.08C9.00008 360.2 9.00008 360.32 9.00008 360.44C-5.63992 367.88 -15.9199 382.68 -16.9199 400H77.4801H271.04H383V328.48Z" fill="white"/>
<path d="M179.04 262.2C175.28 262.68 172.28 267.96 171.72 272.32C171.56 273.6 171.48 274.84 171.48 276.12C171.48 280.28 172.36 284.24 173.96 288.28C175.56 292.24 177.96 296.28 180.84 298.6C183.76 296.28 186.12 292.24 187.72 288.28C189.32 284.24 190.2 280.28 190.2 276.12C190.2 274.84 190.12 273.6 189.96 272.32C189.4 267.92 186.4 262.68 182.64 262.2C181.48 262.08 180.24 262.08 179.04 262.2Z" fill="#6F50FF"/>
<path d="M179.04 262.2C175.28 262.68 172.28 267.96 171.72 272.32C171.56 273.6 171.48 274.84 171.48 276.12C171.48 280.28 172.36 284.24 173.96 288.28C175.56 292.24 177.96 296.28 180.84 298.6C183.76 296.28 186.12 292.24 187.72 288.28C189.32 284.24 190.2 280.28 190.2 276.12C190.2 274.84 190.12 273.6 189.96 272.32C189.4 267.92 186.4 262.68 182.64 262.2C181.48 262.08 180.24 262.08 179.04 262.2Z" stroke="#3129A4" stroke-width="6" stroke-miterlimit="10" stroke-linecap="round" stroke-linejoin="round"/>
<path d="M132.6 201.12L119.56 206.2V181.44L159.6 150.2V197.04L149.92 202.12C144.76 199.4 138.48 198.84 132.6 201.12Z" fill="#6045E2"/>
<path d="M115.32 212.68C111.24 206.76 108.88 199.76 108.88 192.28C108.88 182.8 112.6 174.12 118.8 167.44C125 174.12 128.76 182.8 128.8 192.28C128.8 199.8 126.44 206.76 122.4 212.68H115.32Z" fill="#CF264D"/>
<path opacity="0.72" d="M119.56 206.2L132.52 201.16C132.68 197.72 132.44 194.2 131.8 190.68C130.84 185.4 129.04 180.44 126.56 175.96L119.56 181.44V206.2Z" fill="#A5143A"/>
<path opacity="0.23" d="M121.24 188.36L159.64 158.44V150.2L119.56 181.4V206.2L121.24 205.56V188.36Z" fill="#F4A15D"/>
<path opacity="0.72" d="M143.68 200C145.88 200.36 147.96 201.08 149.92 202.12L159.6 197.04V150.2L142.72 163.36C141.88 168.44 141.48 173.76 141.48 179.24C141.52 186.48 142.28 193.48 143.68 200Z" fill="#3129A4"/>
<path d="M132.6 201.12L119.56 206.2V181.44L159.6 150.2V197.04L149.92 202.12C144.76 199.4 138.48 198.84 132.6 201.12Z" stroke="#3129A4" stroke-width="6" stroke-miterlimit="10" stroke-linecap="round" stroke-linejoin="round"/>
<path d="M115.32 212.68C111.24 206.76 108.88 199.76 108.88 192.28C108.88 182.8 112.6 174.12 118.8 167.44C125 174.12 128.76 182.8 128.8 192.28C128.8 199.8 126.44 206.76 122.4 212.68H115.32Z" fill="#CF264D"/>
<path opacity="0.23" d="M118.2 167.44C118.68 167.96 119.16 168.52 119.6 169.08C115.44 175.48 113.04 183 113 191C113 198.92 114.2 206.32 118.28 212.72H114.6C110.56 206.8 108.2 199.8 108.2 192.32C108.24 182.8 112 174.12 118.2 167.44Z" fill="#F4A15D"/>
<path opacity="0.32" d="M118.2 167.44C118.36 167.6 118.52 167.8 118.68 168C114 174.92 111.32 183.04 111.28 191.76C111.28 199.32 113.32 206.44 116.88 212.72H114.6C110.56 206.8 108.2 199.8 108.2 192.32C108.24 182.8 112 174.12 118.2 167.44Z" fill="#F4A15D"/>
<path opacity="0.37" d="M128.8 192.28C128.8 182.8 125.04 174.16 118.8 167.44C118.32 167.96 117.84 168.52 117.4 169.08C121.56 175.48 123.96 183 124 191C124 198.92 121.68 206.32 117.6 212.72H122.4C126.44 206.76 128.8 199.76 128.8 192.28Z" fill="#A5143A"/>
<path opacity="0.72" d="M128.8 192.28C128.8 182.8 125.04 174.16 118.8 167.44C118.64 167.6 118.48 167.8 118.32 168C123 174.92 125.68 183.04 125.72 191.76C125.72 199.32 123.68 206.44 120.12 212.72H122.4C126.44 206.76 128.8 199.76 128.8 192.28Z" fill="#A5143A"/>
<path opacity="0.37" d="M118.8 167.44C118.32 167.96 117.84 168.52 117.4 169.08C121.56 175.48 123.96 183 124 191C124 198.92 121.68 206.32 117.6 212.72H122.4C126.44 206.8 128.8 199.8 128.8 192.32C128.76 182.8 125 174.12 118.8 167.44Z" fill="#A5143A"/>
<path opacity="0.72" d="M118.8 167.44C118.64 167.6 118.48 167.8 118.32 168C123 174.92 125.68 183.04 125.72 191.76C125.72 199.32 123.68 206.44 120.12 212.72H122.4C126.44 206.8 128.8 199.8 128.8 192.32C128.76 182.8 125 174.12 118.8 167.44Z" fill="#A5143A"/>
<path d="M123.36 174.64C121.88 172.04 120.12 169.64 118.08 167.4C116.04 169.6 114.28 172.04 112.8 174.64H123.36Z" fill="#601B23"/>
<path d="M115.32 212.68C111.24 206.76 108.88 199.76 108.88 192.28C108.88 182.8 112.6 174.12 118.8 167.44C125 174.12 128.76 182.8 128.8 192.28C128.8 199.8 126.44 206.76 122.4 212.68H115.32Z" stroke="#601B23" stroke-width="6" stroke-miterlimit="10" stroke-linecap="round" stroke-linejoin="round"/>
<path d="M167.28 243.56C167.28 243.56 162.44 244.6 155.48 251.56C152.96 254.08 149 259.2 146.08 263.08C144.88 264.68 142.32 263.88 142.28 261.88L141.32 219.28C141.12 218.08 141.44 216.84 142.2 215.92L152.68 202.88L167.28 243.56Z" fill="#6045E2"/>
<path opacity="0.32" d="M142.2 262.72C144.48 262.4 146.2 260.44 146.24 258.12L146.68 218.52C146.48 217.32 146.8 216.08 147.56 215.16L154.12 206.96L152.64 202.88L142.2 215.88C141.44 216.84 141.12 218.04 141.32 219.24L142.2 262.72Z" fill="#D5CEEC"/>
<path opacity="0.72" d="M167.28 243.56L152.68 202.88L146.88 210.12C150 222.12 154.92 234.32 161.56 246.48C165.08 244.04 167.28 243.56 167.28 243.56Z" fill="#3129A4"/>
<path d="M167.28 243.56C167.28 243.56 162.44 244.6 155.48 251.56C152.96 254.08 149 259.2 146.08 263.08C144.88 264.68 142.32 263.88 142.28 261.88L141.32 219.28C141.12 218.08 141.44 216.84 142.2 215.92L152.68 202.88L167.28 243.56Z" stroke="#3129A4" stroke-width="6" stroke-miterlimit="10" stroke-linecap="round" stroke-linejoin="round"/>
<path d="M111.52 207.4H124.68" stroke="#601B23" stroke-width="4" stroke-miterlimit="10" stroke-linecap="round" stroke-linejoin="round"/>
<path d="M115.32 212.68C111.24 206.76 108.88 199.76 108.88 192.28C108.88 182.8 112.6 174.12 118.8 167.44C125 174.12 128.76 182.8 128.8 192.28C128.8 199.8 126.44 206.76 122.4 212.68H115.32Z" fill="#CF264D"/>
<path d="M115.32 212.68C111.24 206.76 108.88 199.76 108.88 192.28C108.88 182.8 112.6 174.12 118.8 167.44C125 174.12 128.76 182.8 128.8 192.28C128.8 199.8 126.44 206.76 122.4 212.68H115.32Z" fill="#D5CEEC"/>
<path opacity="0.23" d="M118.2 167.44C118.68 167.96 119.16 168.52 119.6 169.08C115.44 175.48 113.04 183 113 191C113 198.92 114.2 206.32 118.28 212.72H114.6C110.56 206.8 108.2 199.8 108.2 192.32C108.24 182.8 112 174.12 118.2 167.44Z" fill="#F4A15D"/>
<path opacity="0.32" d="M118.2 167.44C118.36 167.6 118.52 167.8 118.68 168C114 174.92 111.32 183.04 111.28 191.76C111.28 199.32 113.32 206.44 116.88 212.72H114.6C110.56 206.8 108.2 199.8 108.2 192.32C108.24 182.8 112 174.12 118.2 167.44Z" fill="#F4A15D"/>
<path opacity="0.37" d="M128.8 192.28C128.8 182.8 125.04 174.16 118.8 167.44C118.32 167.96 117.84 168.52 117.4 169.08C121.56 175.48 123.96 183 124 191C124 198.92 121.68 206.32 117.6 212.72H122.4C126.44 206.76 128.8 199.76 128.8 192.28Z" fill="#A5143A"/>
<path opacity="0.72" d="M128.8 192.28C128.8 182.8 125.04 174.16 118.8 167.44C118.64 167.6 118.48 167.8 118.32 168C123 174.92 125.68 183.04 125.72 191.76C125.72 199.32 123.68 206.44 120.12 212.72H122.4C126.44 206.76 128.8 199.76 128.8 192.28Z" fill="#A5143A"/>
<path opacity="0.37" d="M118.8 167.44C118.32 167.96 117.84 168.52 117.4 169.08C121.56 175.48 123.96 183 124 191C124 198.92 121.68 206.32 117.6 212.72H122.4C126.44 206.8 128.8 199.8 128.8 192.32C128.76 182.8 125 174.12 118.8 167.44Z" fill="#6045E2"/>
<path opacity="0.72" d="M118.8 167.44C118.64 167.6 118.48 167.8 118.32 168C123 174.92 125.68 183.04 125.72 191.76C125.72 199.32 123.68 206.44 120.12 212.72H122.4C126.44 206.8 128.8 199.8 128.8 192.32C128.76 182.8 125 174.12 118.8 167.44Z" fill="#A5143A"/>
<path d="M124.08 174.64C122.6 172.04 120.84 169.64 118.8 167.4C116.76 169.6 115 172.04 113.52 174.64H124.08Z" fill="#6F50FF"/>
<path d="M115.32 212.68C111.24 206.76 108.88 199.76 108.88 192.28C108.88 182.8 112.6 174.12 118.8 167.44C125 174.12 128.76 182.8 128.8 192.28C128.8 199.8 126.44 206.76 122.4 212.68H115.32Z" stroke="#3129A4" stroke-width="6" stroke-miterlimit="10" stroke-linecap="round" stroke-linejoin="round"/>
<path d="M111.52 207.4H124.68" stroke="#3129A4" stroke-width="4" stroke-miterlimit="10" stroke-linecap="round" stroke-linejoin="round"/>
<path d="M226.8 201.12L239.84 206.2V181.44L199.8 150.2V197.04L209.48 202.12C214.64 199.4 220.92 198.84 226.8 201.12Z" fill="#3129A4"/>
<path opacity="0.72" d="M239.84 206.2L226.88 201.16C226.72 197.72 226.96 194.2 227.6 190.68C228.56 185.4 230.36 180.44 232.84 175.96L239.84 181.44V206.2Z" fill="#6F50FF"/>
<path opacity="0.23" d="M238.2 188.36L199.8 158.44V150.2L239.84 181.4V206.2L238.2 205.56V188.36Z" fill="#F4A15D"/>
<path opacity="0.72" d="M215.72 200C213.52 200.36 211.44 201.08 209.48 202.12L199.8 197.04V150.2L216.68 163.36C217.52 168.44 217.92 173.76 217.92 179.24C217.92 186.48 217.16 193.48 215.72 200Z" fill="#D5CEEC"/>
<path d="M226.8 201.12L239.84 206.2V181.44L199.8 150.2V197.04L209.48 202.12C214.64 199.4 220.92 198.84 226.8 201.12Z" stroke="#3129A4" stroke-width="6" stroke-miterlimit="10" stroke-linecap="round" stroke-linejoin="round"/>
<path d="M192.16 243.56C192.16 243.56 197 244.6 203.96 251.56C206.48 254.08 210.44 259.2 213.36 263.08C214.56 264.68 217.12 263.88 217.16 261.88L218.12 219.28C218.32 218.08 218 216.84 217.24 215.92L206.76 202.88L192.16 243.56Z" fill="#6F50FF"/>
<path opacity="0.72" d="M217.2 262.72C214.92 262.4 213.2 260.44 213.16 258.12L212.72 218.52C212.92 217.32 212.6 216.08 211.84 215.16L205.28 206.96L206.76 202.88L217.24 215.92C218 216.88 218.32 218.08 218.12 219.28L217.2 262.72Z" fill="#D5CEEC"/>
<path opacity="0.72" d="M192.16 243.56L206.76 202.88L212.56 210.12C209.44 222.12 204.52 234.32 197.88 246.48C194.36 244.04 192.16 243.56 192.16 243.56Z" fill="#6F50FF"/>
<path d="M192.16 243.56C192.16 243.56 197 244.6 203.96 251.56C206.48 254.08 210.44 259.2 213.36 263.08C214.56 264.68 217.12 263.88 217.16 261.88L218.12 219.28C218.32 218.08 218 216.84 217.24 215.92L206.76 202.88L192.16 243.56Z" stroke="#3129A4" stroke-width="6" stroke-miterlimit="10" stroke-linecap="round" stroke-linejoin="round"/>
<path d="M191.96 266.44C192.4 261.68 191.76 257.2 183.76 245.4C182.44 243.52 179.28 243.52 177.96 245.4C169.96 257.24 169.32 261.72 169.76 266.44C169.84 267.04 170.92 267.72 171.6 267.48C176.2 265.12 185.52 265.12 190.12 267.48C190.8 267.72 191.88 267.08 191.96 266.44Z" fill="#4E8280"/>
<g opacity="0.32">
<g opacity="0.32">
<g opacity="0.32">
<path opacity="0.32" d="M173.8 266.44C173.36 261.68 174 257.2 182 245.4C182.24 245.04 182.56 244.76 182.88 244.56C181.36 243.56 179.04 243.84 177.96 245.4C169.96 257.24 169.32 261.72 169.76 266.44C169.84 267.04 170.92 267.72 171.6 267.48C172.28 267.16 173.04 266.84 173.84 266.6C173.84 266.56 173.8 266.52 173.8 266.44Z" fill="#F4A15D"/>
</g>
<g opacity="0.32">
<path opacity="0.32" d="M182.88 265.8C185.64 266 188.24 266.56 190.12 267.48C190.72 267.72 191.68 267.16 191.92 266.6C189.28 265.84 186 265.56 182.88 265.8Z" fill="#F4A15D"/>
</g>
</g>
</g>
<path d="M179.36 245.4C179.24 245.24 179.12 245.12 179 245C180.48 243.52 183.24 243.68 184.44 245.4C192.44 257.24 193.08 261.72 192.64 266.44C192.56 267.04 191.48 267.72 190.8 267.48C189.88 267 188.76 266.64 187.56 266.36C188 261.64 187.32 257.16 179.36 245.4Z" fill="#37605D"/>
<path d="M191.96 266.44C192.4 261.68 191.76 257.2 183.76 245.4C182.44 243.52 179.28 243.52 177.96 245.4C169.96 257.24 169.32 261.72 169.76 266.44C169.84 267.04 170.92 267.72 171.6 267.48C176.2 265.12 185.52 265.12 190.12 267.48C190.8 267.72 191.88 267.08 191.96 266.44Z" stroke="#3129A4" stroke-width="6" stroke-miterlimit="10" stroke-linecap="round" stroke-linejoin="round"/>
<path d="M189.88 252.08C208.72 221.24 215.56 190.96 211.32 165.72C207.64 143.8 195.8 128 180.84 118.12C165.88 128 154.04 143.8 150.36 165.72C146.12 190.96 153 221.24 171.8 252.08H189.88Z" fill="#6045E2"/>
<path opacity="0.23" d="M164.68 166.16C167.08 146.32 173.32 130.56 181.72 118.76C181.44 118.56 181.12 118.36 180.84 118.16C165.88 128.04 154.04 143.84 150.36 165.76C146.12 191 153 221.28 171.8 252.12H175.6C165.16 221.28 161.64 191.64 164.68 166.16Z" fill="#F4A15D"/>
<path opacity="0.37" d="M211.32 165.72C207.68 143.96 196 128.24 181.16 118.36C183.92 122.8 187.44 129.2 190.4 137.32C195.8 152.08 196.4 164.24 196.72 171.88C198.16 206.24 185 244.24 182.24 252.12H189.88C208.72 221.24 215.56 190.96 211.32 165.72Z" fill="#3129A4"/>
<path opacity="0.72" d="M211.32 165.72C207.64 143.8 195.8 128 180.84 118.12C180.44 118.36 180.08 118.64 179.68 118.88C185.36 123.32 189.68 128.08 192.96 132.64C222.4 173.6 194.16 234.92 190.28 243.04C190.12 237.52 189.4 230.68 187.36 223.04C186.04 218.16 184.44 213.88 182.84 210.24C182.24 223.8 181.64 237.36 181.04 250.92H186C185.88 251.32 185.76 251.68 185.6 252.08H189.8C208.72 221.24 215.56 190.96 211.32 165.72Z" fill="#3129A4"/>
<path opacity="0.32" d="M155.4 172.68C155.96 166.28 158.04 145.48 170.88 128.4C172.92 125.72 175.96 122.08 175.72 121.88C175.36 121.56 168.32 127.92 163.32 134.68C157.04 143.12 152.44 153.48 150.4 165.72C146.16 190.96 153.04 221.24 171.84 252.08H173.48C168.32 241.8 164.92 232.52 162.6 225.2C161.08 220.28 158.4 211.56 156.72 199.88C155.64 192.04 154.44 183.64 155.4 172.68Z" fill="#8094DA"/>
<path opacity="0.72" d="M183 180.92C189.009 180.92 193.88 176.049 193.88 170.04C193.88 164.031 189.009 159.16 183 159.16C176.991 159.16 172.12 164.031 172.12 170.04C172.12 176.049 176.991 180.92 183 180.92Z" fill="#A5143A" stroke="#A5143A" stroke-width="6" stroke-miterlimit="10" stroke-linecap="round" stroke-linejoin="round"/>
<path d="M189.88 252.08C208.72 221.24 215.56 190.96 211.32 165.72C207.64 143.8 195.8 128 180.84 118.12C165.88 128 154.04 143.8 150.36 165.72C146.12 190.96 153 221.24 171.8 252.08H189.88Z" stroke="#3129A4" stroke-width="6" stroke-miterlimit="10" stroke-linecap="round" stroke-linejoin="round"/>
<path d="M191.585 170.103C192.548 164.172 188.52 158.583 182.588 157.621C176.657 156.658 171.068 160.686 170.106 166.617C169.143 172.549 173.171 178.137 179.103 179.1C185.034 180.063 190.623 176.035 191.585 170.103Z" fill="#ABCFD8"/>
<path opacity="0.93" d="M179.36 174.32C182.983 174.32 185.92 171.383 185.92 167.76C185.92 164.137 182.983 161.2 179.36 161.2C175.737 161.2 172.8 164.137 172.8 167.76C172.8 171.383 175.737 174.32 179.36 174.32Z" fill="#E2F0F2"/>
<path d="M191.585 170.103C192.548 164.172 188.52 158.583 182.588 157.621C176.657 156.658 171.068 160.686 170.106 166.617C169.143 172.549 173.171 178.137 179.103 179.1C185.034 180.063 190.623 176.035 191.585 170.103Z" stroke="#3129A4" stroke-width="6" stroke-miterlimit="10" stroke-linecap="round" stroke-linejoin="round"/>
<path d="M180.84 270.8C181.28 270.8 181.64 270.32 181.68 269.68L184.68 220.72C185 215.68 183.4 211 181.04 209.88C180.88 209.8 180.72 209.8 180.6 209.88C178.24 210.96 176.64 215.64 176.96 220.72L179.96 269.68C180.04 270.32 180.44 270.8 180.84 270.8Z" fill="#BC1D4E"/>
<path opacity="0.74" d="M180.84 270.8C181.28 270.8 181.64 270.32 181.68 269.68L184.68 220.72C185 215.68 183.4 211 181.04 209.88C180.88 209.8 180.72 209.8 180.6 209.88C178.24 210.96 176.64 215.64 176.96 220.72L179.96 269.68C180.04 270.32 180.44 270.8 180.84 270.8Z" fill="#6F50FF"/>
<g opacity="0.53">
<g opacity="0.53">
<g opacity="0.53">
<path opacity="0.53" d="M180.64 209.88C178.28 210.96 176.68 215.64 177 220.72L180 269.68C180.04 270.2 180.28 270.64 180.6 270.76V209.88H180.64Z" fill="#F4A15D"/>
</g>
<g opacity="0.53">
<path opacity="0.53" d="M180.64 209.88H181.08C180.92 209.8 180.76 209.8 180.64 209.88Z" fill="#F4A15D"/>
</g>
</g>
</g>
<path d="M180.84 270.8C181.28 270.8 181.64 270.32 181.68 269.68L184.68 220.72C185 215.68 183.4 211 181.04 209.88C180.88 209.8 180.72 209.8 180.6 209.88C178.24 210.96 176.64 215.64 176.96 220.72L179.96 269.68C180.04 270.32 180.44 270.8 180.84 270.8Z" stroke="#3129A4" stroke-width="6" stroke-miterlimit="10" stroke-linecap="round" stroke-linejoin="round"/>
<path d="M239.56 212.68C235.48 206.76 233.12 199.76 233.12 192.28C233.12 182.8 236.84 174.12 243.04 167.44C249.24 174.12 253 182.8 253.04 192.28C253.04 199.8 250.68 206.76 246.64 212.68H239.56Z" fill="#CF264D"/>
<path d="M239.56 212.68C235.48 206.76 233.12 199.76 233.12 192.28C233.12 182.8 236.84 174.12 243.04 167.44C249.24 174.12 253 182.8 253.04 192.28C253.04 199.8 250.68 206.76 246.64 212.68H239.56Z" fill="#D5CEEC"/>
<path opacity="0.23" d="M242.48 167.44C242.96 167.96 243.44 168.52 243.88 169.08C239.72 175.48 237.32 183 237.28 191C237.28 198.92 238.48 206.32 242.56 212.72H238.88C234.84 206.8 232.48 199.8 232.48 192.32C232.48 182.8 236.24 174.12 242.48 167.44Z" fill="#F4A15D"/>
<path opacity="0.32" d="M242.48 167.44C242.64 167.6 242.8 167.8 242.96 168C238.28 174.92 235.6 183.04 235.56 191.76C235.56 199.32 237.6 206.44 241.16 212.72H238.88C234.84 206.8 232.48 199.8 232.48 192.32C232.48 182.8 236.24 174.12 242.48 167.44Z" fill="#F4A15D"/>
<path opacity="0.37" d="M253.04 192.28C253.04 182.8 249.28 174.16 243.04 167.44C242.56 167.96 242.08 168.52 241.64 169.08C245.8 175.48 248.2 183 248.24 191C248.24 198.92 245.92 206.32 241.84 212.72H246.64C250.68 206.76 253.04 199.76 253.04 192.28Z" fill="#A5143A"/>
<path opacity="0.72" d="M253.04 192.28C253.04 182.8 249.28 174.16 243.04 167.44C242.88 167.6 242.72 167.8 242.56 168C247.24 174.92 249.92 183.04 249.96 191.76C249.96 199.32 247.92 206.44 244.36 212.72H246.64C250.68 206.76 253.04 199.76 253.04 192.28Z" fill="#A5143A"/>
<path opacity="0.37" d="M243.04 167.44C242.56 167.96 242.08 168.52 241.64 169.08C245.8 175.48 248.2 183 248.24 191C248.24 198.92 245.92 206.32 241.84 212.72H246.64C250.68 206.8 253.04 199.8 253.04 192.32C253.04 182.8 249.28 174.12 243.04 167.44Z" fill="#A5143A"/>
<path opacity="0.72" d="M243.04 167.44C242.88 167.6 242.72 167.8 242.56 168C247.24 174.92 249.92 183.04 249.96 191.76C249.96 199.32 247.92 206.44 244.36 212.72H246.64C250.68 206.8 253.04 199.8 253.04 192.32C253.04 182.8 249.28 174.12 243.04 167.44Z" fill="#A5143A"/>
<path d="M248.36 174.64C246.88 172.04 245.12 169.64 243.08 167.4C241.04 169.6 239.28 172.04 237.8 174.64H248.36Z" fill="#6F50FF"/>
<path d="M239.56 212.68C235.48 206.76 233.12 199.76 233.12 192.28C233.12 182.8 236.84 174.12 243.04 167.44C249.24 174.12 253 182.8 253.04 192.28C253.04 199.8 250.68 206.76 246.64 212.68H239.56Z" stroke="#3129A4" stroke-width="6" stroke-miterlimit="10" stroke-linecap="round" stroke-linejoin="round"/>
<path d="M236.52 207.4H249.68" stroke="#3129A4" stroke-width="4" stroke-miterlimit="10" stroke-linecap="round" stroke-linejoin="round"/>
<path opacity="0.41" d="M168.52 130.56C168.52 130.56 171.24 126.28 180.48 119.08C176.2 124.88 175.36 128.52 175.08 128.8C172.36 129.32 168.52 130.56 168.52 130.56Z" fill="white"/>
</g>
<defs>
<clipPath id="clip0">
<rect width="400" height="400" fill="white" transform="translate(-17)"/>
</clipPath>
</defs>
</svg>
