<svg width="45" height="46" viewBox="0 0 45 46" fill="none" xmlns="http://www.w3.org/2000/svg">
<path d="M22.5 44.6514C34.7339 44.6514 44.6514 34.7339 44.6514 22.5C44.6514 10.2661 34.7339 0.348587 22.5 0.348587C10.2661 0.348587 0.348602 10.2661 0.348602 22.5C0.348602 34.7339 10.2661 44.6514 22.5 44.6514Z" fill="#7064E1"/>
<path d="M22.5 0.348601C26.8813 0.347931 31.1644 1.64652 34.8076 4.08014C38.4508 6.51376 41.2905 9.9731 42.9676 14.0207C44.6447 18.0683 45.0839 22.5223 44.2296 26.8194C43.3752 31.1166 41.2658 35.0639 38.168 38.1622C35.0702 41.2605 31.1232 43.3705 26.8262 44.2255C22.5291 45.0805 18.075 44.642 14.0272 42.9655C9.97936 41.2891 6.51959 38.4499 4.08541 34.807C1.65124 31.1642 0.351995 26.8813 0.351995 22.5C0.351995 16.6257 2.68533 10.9919 6.83879 6.83779C10.9923 2.6837 16.6257 0.349498 22.5 0.348601ZM22.5 0.010153C18.0499 0.010153 13.6998 1.32976 9.99968 3.80209C6.29957 6.27442 3.41569 9.78844 1.71272 13.8998C0.00974939 18.0111 -0.435826 22.5351 0.432341 26.8997C1.30051 31.2643 3.44342 35.2734 6.5901 38.42C9.73678 41.5667 13.7459 43.7097 18.1105 44.5778C22.475 45.446 26.999 45.0004 31.1104 43.2974C35.2217 41.5945 38.7357 38.7106 41.2081 35.0105C43.6804 31.3104 45 26.9602 45 22.5102C44.9955 16.5432 42.6239 10.8218 38.4056 6.60161C34.1873 2.3814 28.4669 0.00717011 22.5 0V0.010153Z" fill="#231F20"/>
<path d="M16.9698 17.3488C16.8351 17.3488 16.706 17.2953 16.6108 17.2001C16.5156 17.1049 16.4621 16.9758 16.4621 16.8412C16.4621 14.6345 15.7073 13.1724 15.2098 13.1724C14.7123 13.1724 13.9576 14.6345 13.9576 16.8412C13.9576 16.9758 13.9041 17.1049 13.8089 17.2001C13.7137 17.2953 13.5845 17.3488 13.4499 17.3488C13.3153 17.3488 13.1861 17.2953 13.0909 17.2001C12.9957 17.1049 12.9422 16.9758 12.9422 16.8412C12.9422 14.5702 13.7376 12.157 15.2098 12.157C16.6821 12.157 17.4774 14.5702 17.4774 16.8412C17.4774 16.9758 17.4239 17.1049 17.3287 17.2001C17.2335 17.2953 17.1044 17.3488 16.9698 17.3488Z" fill="#231F20"/>
<path d="M31.5569 17.3488C31.4222 17.3488 31.2931 17.2953 31.1979 17.2001C31.1027 17.1049 31.0492 16.9758 31.0492 16.8412C31.0492 14.6345 30.2944 13.1724 29.7969 13.1724C29.2994 13.1724 28.5447 14.6345 28.5447 16.8412C28.5447 16.9758 28.4912 17.1049 28.396 17.2001C28.3008 17.2953 28.1716 17.3488 28.037 17.3488C27.9024 17.3488 27.7732 17.2953 27.678 17.2001C27.5828 17.1049 27.5293 16.9758 27.5293 16.8412C27.5293 14.5702 28.3247 12.157 29.7969 12.157C31.2692 12.157 32.0645 14.5702 32.0645 16.8412C32.0645 16.9758 32.011 17.1049 31.9158 17.2001C31.8206 17.2953 31.6915 17.3488 31.5569 17.3488Z" fill="#231F20"/>
<path d="M34.8398 27.1401C34.8398 32.3048 29.3164 36.488 22.5 36.488C15.6837 36.488 10.1602 32.3048 10.1602 27.1401H34.8398Z" fill="#231F20"/>
<path d="M7.46617 23.1261C8.95405 23.1261 10.1602 22.3594 10.1602 21.4136C10.1602 20.4678 8.95405 19.701 7.46617 19.701C5.97829 19.701 4.77213 20.4678 4.77213 21.4136C4.77213 22.3594 5.97829 23.1261 7.46617 23.1261Z" fill="white"/>
<path d="M37.5372 23.1261C39.0251 23.1261 40.2313 22.3594 40.2313 21.4136C40.2313 20.4678 39.0251 19.701 37.5372 19.701C36.0493 19.701 34.8432 20.4678 34.8432 21.4136C34.8432 22.3594 36.0493 23.1261 37.5372 23.1261Z" fill="white"/>
</svg>
