<svg width="375" height="400" viewBox="0 0 375 400" fill="none" xmlns="http://www.w3.org/2000/svg">
<g clip-path="url(#clip0)">
<path d="M169.48 131.92C179.44 128.48 190.36 128.48 200.32 131.96C195.8 126.48 190.56 121.88 184.88 118.12C179.2 121.88 173.96 126.48 169.48 131.92Z" fill="#601B23"/>
<path d="M169.48 131.92C179.44 128.48 190.36 128.48 200.32 131.96C195.8 126.48 190.56 121.88 184.88 118.12C179.2 121.88 173.96 126.48 169.48 131.92Z" stroke="#601B23" stroke-width="6" stroke-miterlimit="10" stroke-linecap="round" stroke-linejoin="round"/>
<path d="M201.64 287.28C201.64 294.72 200.08 301.84 197.2 309.08C197.12 309.32 197 309.56 196.88 309.84C194 316.72 189.88 323.6 184.88 327.64C179.72 323.48 175.52 316.32 172.6 309.24C172.56 309.2 172.56 309.16 172.52 309.08C169.64 301.84 168.08 294.72 168.08 287.28C168.08 285 168.24 282.76 168.52 280.44C169.48 272.68 174.76 263.32 181.36 262.32C181.44 262.32 181.52 262.28 181.6 262.28C183.68 262.04 185.8 262.04 187.88 262.24C187.96 262.24 188.08 262.24 188.16 262.28C194.88 263.12 200.28 272.6 201.24 280.44C201.48 282.76 201.64 285 201.64 287.28Z" fill="#6045E2"/>
<path d="M201.64 287.28C201.64 294.72 200.08 301.84 197.2 309.08C197.12 309.32 197 309.56 196.88 309.84C194 316.72 189.88 323.6 184.88 327.64C179.72 323.48 175.52 316.32 172.6 309.24C172.56 309.2 172.56 309.16 172.52 309.08C169.64 301.84 168.08 294.72 168.08 287.28C168.08 285 168.24 282.76 168.52 280.44C169.48 272.68 174.76 263.32 181.36 262.32C181.44 262.32 181.52 262.28 181.6 262.28C183.68 262.04 185.8 262.04 187.88 262.24C187.96 262.24 188.08 262.24 188.16 262.28C194.88 263.12 200.28 272.6 201.24 280.44C201.48 282.76 201.64 285 201.64 287.28Z" stroke="#3129A4" stroke-width="6" stroke-miterlimit="10" stroke-linecap="round" stroke-linejoin="round"/>
<path d="M87.1725 87.72H90.3725V89H74.3725V87.72H77.5725V47.4H74.3725V46.12H87.1725V87.72ZM123.161 76.2H103.833C104.259 83.7093 107.182 87.464 112.601 87.464C114.051 87.464 115.694 87.1227 117.529 86.44C119.406 85.7573 120.771 84.7973 121.625 83.56L122.521 84.2C121.582 85.7787 119.982 87.08 117.721 88.104C115.459 89.128 113.198 89.64 110.937 89.64C108.718 89.64 106.713 89.4267 104.921 89C103.129 88.5307 101.379 87.7627 99.6725 86.696C97.9658 85.6293 96.6218 84.0293 95.6405 81.896C94.7018 79.7627 94.2325 77.1813 94.2325 74.152C94.2325 68.9893 95.6618 65.1707 98.5205 62.696C101.379 60.1787 104.835 58.92 108.889 58.92C112.985 58.92 116.377 60.2853 119.065 63.016C121.795 65.7467 123.161 70.1413 123.161 76.2ZM103.769 74.92H114.201C114.201 70.9947 113.774 67.56 112.921 64.616C112.11 61.672 110.787 60.2 108.953 60.2C107.118 60.2 105.795 61.6293 104.985 64.488C104.174 67.304 103.769 70.5467 103.769 74.216V74.92ZM158.85 87.72C158.423 88.1467 157.613 88.5307 156.418 88.872C155.223 89.1707 153.837 89.32 152.258 89.32C148.759 89.32 146.562 88.2747 145.666 86.184C143.533 88.4027 140.269 89.512 135.874 89.512C133.527 89.512 131.586 88.9787 130.05 87.912C128.557 86.8027 127.81 85.1813 127.81 83.048C127.81 80.1893 128.919 77.992 131.138 76.456C133.357 74.8773 137.239 73.768 142.786 73.128L145.346 72.808V69.672C145.346 65.96 145.069 63.464 144.514 62.184C143.959 60.904 142.85 60.264 141.186 60.264C139.565 60.264 138.519 60.4987 138.05 60.968C137.581 61.3947 137.41 61.9067 137.538 62.504C137.666 63.0587 137.879 63.8053 138.178 64.744C138.477 65.6827 138.626 66.4293 138.626 66.984C138.626 68.3067 138.157 69.4373 137.218 70.376C136.322 71.272 135.213 71.72 133.89 71.72C132.61 71.72 131.501 71.272 130.562 70.376C129.623 69.4373 129.154 68.3067 129.154 66.984C129.154 64.808 130.263 62.952 132.482 61.416C134.743 59.8373 138.093 59.048 142.53 59.048C147.01 59.048 150.189 59.9227 152.066 61.672C153.986 63.4213 154.946 66.5147 154.946 70.952V82.472C154.946 84.7333 155.223 86.1627 155.778 86.76C156.333 87.3147 157.357 87.4213 158.85 87.08V87.72ZM136.706 81.768C136.919 83.3893 137.517 84.648 138.498 85.544C139.479 86.3973 140.61 86.824 141.89 86.824C143.213 86.824 144.365 86.184 145.346 84.904V74.024L143.042 74.344C141.079 74.6 139.479 75.3467 138.242 76.584C137.047 77.8213 136.535 79.5493 136.706 81.768ZM174.781 89.768C171.325 89.768 168.338 88.4027 165.821 85.672C163.304 82.9413 162.045 79.08 162.045 74.088C162.045 69.096 163.282 65.192 165.757 62.376C168.232 59.56 171.24 58.152 174.781 58.152C176.53 58.152 178.173 58.5147 179.709 59.24C181.245 59.9653 182.354 61.0533 183.037 62.504V47.4H179.837V46.12H192.637V87.72H195.837V89H183.037V86.056C181.885 88.5307 179.133 89.768 174.781 89.768ZM183.037 74.984V64.424C181.885 62.12 180.37 60.968 178.493 60.968C176.658 60.968 175.08 62.0347 173.757 64.168C172.434 66.3013 171.773 69.6933 171.773 74.344C171.773 78.952 172.456 82.3227 173.821 84.456C175.186 86.5893 176.829 87.5067 178.749 87.208C179.816 87.0373 180.626 86.696 181.181 86.184C182.418 84.9893 183.037 81.256 183.037 74.984ZM237.878 54.44H234.678V87.72H237.878V89H221.878V87.72H225.078V70.568H212.47V87.72H215.67V89H199.67V87.72H202.87V54.44H199.67V53.16H215.67V54.44H212.47V69.288H225.078V54.44H221.878V53.16H237.878V54.44ZM261.573 87.72C267.973 87.72 271.173 84.0933 271.173 76.84H272.453V89H242.373V87.72H245.573V54.44H242.373V53.16H271.812V64.04H270.533C270.533 60.2427 269.765 57.704 268.229 56.424C266.735 55.1013 264.303 54.44 260.933 54.44H255.173V69.8H257.733C260.805 69.8 262.746 69.416 263.557 68.648C264.367 67.88 264.773 66.344 264.773 64.04H266.053V76.84H264.773C264.773 74.4507 264.367 72.8933 263.557 72.168C262.746 71.4427 260.805 71.08 257.733 71.08H255.173V87.72H261.573ZM289.408 54.44V70.952C293.674 70.952 296.533 70.3333 297.984 69.096C299.434 67.8587 300.16 65.7893 300.16 62.888C300.16 59.9867 299.413 57.8533 297.92 56.488C296.426 55.1227 293.589 54.44 289.408 54.44ZM314.56 89.64H311.744C306.41 89.64 302.698 88.488 300.608 86.184C298.944 84.392 297.813 82.024 297.216 79.08C296.96 77.8427 296.682 76.712 296.384 75.688C295.701 73.384 294.314 72.232 292.224 72.232H289.408V87.72H292.608V89H276.608V87.72H279.808V54.44H276.608V53.16H293.44C304.32 53.16 309.76 56.3387 309.76 62.696C309.76 65.2133 308.842 67.2613 307.007 68.84C305.173 70.4187 302.826 71.208 299.968 71.208V71.656C304.234 71.656 307.2 74.472 308.864 80.104C309.717 83.0907 310.57 85.224 311.424 86.504C312.32 87.7413 313.365 88.36 314.56 88.36V89.64Z" fill="#6045E2"/>
<path d="M387 328.48C380.92 330.28 375.96 334.72 373.48 340.48C368.68 338.76 363.48 337.8 358.08 337.8C342.08 337.8 328 346.04 319.84 358.48C315.6 356.48 310.88 355.4 305.88 355.4C303.68 355.4 301.56 355.6 299.52 356.04C299.52 355.84 299.52 355.64 299.52 355.4C299.52 345.2 292.32 336.68 282.76 334.64C279.08 322.04 267.48 312.8 253.68 312.8C242.2 312.8 232.2 319.2 227.08 328.6C223.52 325.28 218.76 323.2 213.52 323.2C210.52 323.2 207.68 323.88 205.12 325.04C202 320.2 199.24 315.12 196.88 309.76C191.04 296.56 187.8 281.84 187.8 266.4C187.8 265 187.84 263.64 187.88 262.24C188.56 244.36 193.56 227.6 201.92 212.96H167.32C175.68 227.6 180.68 244.4 181.36 262.28C181.4 263.64 181.44 265 181.44 266.36C181.44 281.56 178.28 296.08 172.6 309.2C168.88 317.76 164.12 325.76 158.4 333C153.56 327 146.16 323.2 137.88 323.2C129.56 323.2 122.16 327.04 117.32 333.04C113.44 330.76 108.96 329.44 104.12 329.44C96.3601 329.44 89.3601 332.88 84.6001 338.28C77.5601 327.84 65.6401 320.96 52.1201 320.96C30.5201 320.96 13.0001 338.48 13.0001 360.08C13.0001 360.2 13.0001 360.32 13.0001 360.44C-1.63992 367.88 -11.9199 382.68 -12.9199 400H81.4801H275.04H387V328.48Z" fill="white"/>
<path d="M183.04 262.2C179.28 262.68 176.28 267.96 175.72 272.32C175.56 273.6 175.48 274.84 175.48 276.12C175.48 280.28 176.36 284.24 177.96 288.28C179.56 292.24 181.96 296.28 184.84 298.6C187.76 296.28 190.12 292.24 191.72 288.28C193.32 284.24 194.2 280.28 194.2 276.12C194.2 274.84 194.12 273.6 193.96 272.32C193.4 267.92 190.4 262.68 186.64 262.2C185.48 262.08 184.24 262.08 183.04 262.2Z" fill="#6F50FF"/>
<path d="M183.04 262.2C179.28 262.68 176.28 267.96 175.72 272.32C175.56 273.6 175.48 274.84 175.48 276.12C175.48 280.28 176.36 284.24 177.96 288.28C179.56 292.24 181.96 296.28 184.84 298.6C187.76 296.28 190.12 292.24 191.72 288.28C193.32 284.24 194.2 280.28 194.2 276.12C194.2 274.84 194.12 273.6 193.96 272.32C193.4 267.92 190.4 262.68 186.64 262.2C185.48 262.08 184.24 262.08 183.04 262.2Z" stroke="#3129A4" stroke-width="6" stroke-miterlimit="10" stroke-linecap="round" stroke-linejoin="round"/>
<path d="M136.6 201.12L123.56 206.2V181.44L163.6 150.2V197.04L153.92 202.12C148.76 199.4 142.48 198.84 136.6 201.12Z" fill="#6045E2"/>
<path d="M119.32 212.68C115.24 206.76 112.88 199.76 112.88 192.28C112.88 182.8 116.6 174.12 122.8 167.44C129 174.12 132.76 182.8 132.8 192.28C132.8 199.8 130.44 206.76 126.4 212.68H119.32Z" fill="#CF264D"/>
<path opacity="0.72" d="M123.56 206.2L136.52 201.16C136.68 197.72 136.44 194.2 135.8 190.68C134.84 185.4 133.04 180.44 130.56 175.96L123.56 181.44V206.2Z" fill="#6F50FF"/>
<path opacity="0.23" d="M125.24 188.36L163.64 158.44V150.2L123.56 181.4V206.2L125.24 205.56V188.36Z" fill="#F4A15D"/>
<path opacity="0.72" d="M147.68 200C149.88 200.36 151.96 201.08 153.92 202.12L163.6 197.04V150.2L146.72 163.36C145.88 168.44 145.48 173.76 145.48 179.24C145.52 186.48 146.28 193.48 147.68 200Z" fill="#3129A4"/>
<path d="M136.6 201.12L123.56 206.2V181.44L163.6 150.2V197.04L153.92 202.12C148.76 199.4 142.48 198.84 136.6 201.12Z" stroke="#3129A4" stroke-width="6" stroke-miterlimit="10" stroke-linecap="round" stroke-linejoin="round"/>
<path d="M119.32 212.68C115.24 206.76 112.88 199.76 112.88 192.28C112.88 182.8 116.6 174.12 122.8 167.44C129 174.12 132.76 182.8 132.8 192.28C132.8 199.8 130.44 206.76 126.4 212.68H119.32Z" fill="#CF264D"/>
<path opacity="0.23" d="M122.2 167.44C122.68 167.96 123.16 168.52 123.6 169.08C119.44 175.48 117.04 183 117 191C117 198.92 118.2 206.32 122.28 212.72H118.6C114.56 206.8 112.2 199.8 112.2 192.32C112.24 182.8 116 174.12 122.2 167.44Z" fill="#F4A15D"/>
<path opacity="0.32" d="M122.2 167.44C122.36 167.6 122.52 167.8 122.68 168C118 174.92 115.32 183.04 115.28 191.76C115.28 199.32 117.32 206.44 120.88 212.72H118.6C114.56 206.8 112.2 199.8 112.2 192.32C112.24 182.8 116 174.12 122.2 167.44Z" fill="#F4A15D"/>
<path opacity="0.37" d="M132.8 192.28C132.8 182.8 129.04 174.16 122.8 167.44C122.32 167.96 121.84 168.52 121.4 169.08C125.56 175.48 127.96 183 128 191C128 198.92 125.68 206.32 121.6 212.72H126.4C130.44 206.76 132.8 199.76 132.8 192.28Z" fill="#A5143A"/>
<path opacity="0.72" d="M132.8 192.28C132.8 182.8 129.04 174.16 122.8 167.44C122.64 167.6 122.48 167.8 122.32 168C127 174.92 129.68 183.04 129.72 191.76C129.72 199.32 127.68 206.44 124.12 212.72H126.4C130.44 206.76 132.8 199.76 132.8 192.28Z" fill="#A5143A"/>
<path opacity="0.37" d="M122.8 167.44C122.32 167.96 121.84 168.52 121.4 169.08C125.56 175.48 127.96 183 128 191C128 198.92 125.68 206.32 121.6 212.72H126.4C130.44 206.8 132.8 199.8 132.8 192.32C132.76 182.8 129 174.12 122.8 167.44Z" fill="#A5143A"/>
<path opacity="0.72" d="M122.8 167.44C122.64 167.6 122.48 167.8 122.32 168C127 174.92 129.68 183.04 129.72 191.76C129.72 199.32 127.68 206.44 124.12 212.72H126.4C130.44 206.8 132.8 199.8 132.8 192.32C132.76 182.8 129 174.12 122.8 167.44Z" fill="#A5143A"/>
<path d="M127.36 174.64C125.88 172.04 124.12 169.64 122.08 167.4C120.04 169.6 118.28 172.04 116.8 174.64H127.36Z" fill="#601B23"/>
<path d="M119.32 212.68C115.24 206.76 112.88 199.76 112.88 192.28C112.88 182.8 116.6 174.12 122.8 167.44C129 174.12 132.76 182.8 132.8 192.28C132.8 199.8 130.44 206.76 126.4 212.68H119.32Z" stroke="#601B23" stroke-width="6" stroke-miterlimit="10" stroke-linecap="round" stroke-linejoin="round"/>
<path d="M171.28 243.56C171.28 243.56 166.44 244.6 159.48 251.56C156.96 254.08 153 259.2 150.08 263.08C148.88 264.68 146.32 263.88 146.28 261.88L145.32 219.28C145.12 218.08 145.44 216.84 146.2 215.92L156.68 202.88L171.28 243.56Z" fill="#6045E2"/>
<path opacity="0.32" d="M146.2 262.72C148.48 262.4 150.2 260.44 150.24 258.12L150.68 218.52C150.48 217.32 150.8 216.08 151.56 215.16L158.12 206.96L156.64 202.88L146.2 215.88C145.44 216.84 145.12 218.04 145.32 219.24L146.2 262.72Z" fill="#D5CEEC"/>
<path opacity="0.72" d="M171.28 243.56L156.68 202.88L150.88 210.12C154 222.12 158.92 234.32 165.56 246.48C169.08 244.04 171.28 243.56 171.28 243.56Z" fill="#3129A4"/>
<path d="M171.28 243.56C171.28 243.56 166.44 244.6 159.48 251.56C156.96 254.08 153 259.2 150.08 263.08C148.88 264.68 146.32 263.88 146.28 261.88L145.32 219.28C145.12 218.08 145.44 216.84 146.2 215.92L156.68 202.88L171.28 243.56Z" stroke="#3129A4" stroke-width="6" stroke-miterlimit="10" stroke-linecap="round" stroke-linejoin="round"/>
<path d="M115.52 207.4H128.68" stroke="#601B23" stroke-width="4" stroke-miterlimit="10" stroke-linecap="round" stroke-linejoin="round"/>
<path d="M119.32 212.68C115.24 206.76 112.88 199.76 112.88 192.28C112.88 182.8 116.6 174.12 122.8 167.44C129 174.12 132.76 182.8 132.8 192.28C132.8 199.8 130.44 206.76 126.4 212.68H119.32Z" fill="#CF264D"/>
<path d="M119.32 212.68C115.24 206.76 112.88 199.76 112.88 192.28C112.88 182.8 116.6 174.12 122.8 167.44C129 174.12 132.76 182.8 132.8 192.28C132.8 199.8 130.44 206.76 126.4 212.68H119.32Z" fill="#D5CEEC"/>
<path opacity="0.23" d="M122.2 167.44C122.68 167.96 123.16 168.52 123.6 169.08C119.44 175.48 117.04 183 117 191C117 198.92 118.2 206.32 122.28 212.72H118.6C114.56 206.8 112.2 199.8 112.2 192.32C112.24 182.8 116 174.12 122.2 167.44Z" fill="#F4A15D"/>
<path opacity="0.32" d="M122.2 167.44C122.36 167.6 122.52 167.8 122.68 168C118 174.92 115.32 183.04 115.28 191.76C115.28 199.32 117.32 206.44 120.88 212.72H118.6C114.56 206.8 112.2 199.8 112.2 192.32C112.24 182.8 116 174.12 122.2 167.44Z" fill="#F4A15D"/>
<path opacity="0.37" d="M132.8 192.28C132.8 182.8 129.04 174.16 122.8 167.44C122.32 167.96 121.84 168.52 121.4 169.08C125.56 175.48 127.96 183 128 191C128 198.92 125.68 206.32 121.6 212.72H126.4C130.44 206.76 132.8 199.76 132.8 192.28Z" fill="#6045E2"/>
<path opacity="0.72" d="M132.8 192.28C132.8 182.8 129.04 174.16 122.8 167.44C122.64 167.6 122.48 167.8 122.32 168C127 174.92 129.68 183.04 129.72 191.76C129.72 199.32 127.68 206.44 124.12 212.72H126.4C130.44 206.76 132.8 199.76 132.8 192.28Z" fill="#A5143A"/>
<path opacity="0.37" d="M124.4 167C123.92 167.52 123.44 168.08 123 168.64C127.16 175.04 129.56 182.56 129.6 190.56C129.6 198.48 127.28 205.88 123.2 212.28H128C132.04 206.36 134.4 199.36 134.4 191.88C134.36 182.36 130.6 173.68 124.4 167Z" fill="#7064E1"/>
<path opacity="0.72" d="M122.8 167.44C122.64 167.6 122.48 167.8 122.32 168C127 174.92 129.68 183.04 129.72 191.76C129.72 199.32 127.68 206.44 124.12 212.72H126.4C130.44 206.8 132.8 199.8 132.8 192.32C132.76 182.8 129 174.12 122.8 167.44Z" fill="#A5143A"/>
<path d="M128.08 174.64C126.6 172.04 124.84 169.64 122.8 167.4C120.76 169.6 119 172.04 117.52 174.64H128.08Z" fill="#6F50FF"/>
<path d="M119.32 212.68C115.24 206.76 112.88 199.76 112.88 192.28C112.88 182.8 116.6 174.12 122.8 167.44C129 174.12 132.76 182.8 132.8 192.28C132.8 199.8 130.44 206.76 126.4 212.68H119.32Z" stroke="#3129A4" stroke-width="6" stroke-miterlimit="10" stroke-linecap="round" stroke-linejoin="round"/>
<path d="M115.52 207.4H128.68" stroke="#3129A4" stroke-width="4" stroke-miterlimit="10" stroke-linecap="round" stroke-linejoin="round"/>
<path d="M230.8 201.12L243.84 206.2V181.44L203.8 150.2V197.04L213.48 202.12C218.64 199.4 224.92 198.84 230.8 201.12Z" fill="#3129A4"/>
<path opacity="0.72" d="M243.84 206.2L230.88 201.16C230.72 197.72 230.96 194.2 231.6 190.68C232.56 185.4 234.36 180.44 236.84 175.96L243.84 181.44V206.2Z" fill="#6F50FF"/>
<path opacity="0.23" d="M242.2 188.36L203.8 158.44V150.2L243.84 181.4V206.2L242.2 205.56V188.36Z" fill="#F4A15D"/>
<path opacity="0.72" d="M219.72 200C217.52 200.36 215.44 201.08 213.48 202.12L203.8 197.04V150.2L220.68 163.36C221.52 168.44 221.92 173.76 221.92 179.24C221.92 186.48 221.16 193.48 219.72 200Z" fill="#D5CEEC"/>
<path d="M230.8 201.12L243.84 206.2V181.44L203.8 150.2V197.04L213.48 202.12C218.64 199.4 224.92 198.84 230.8 201.12Z" stroke="#3129A4" stroke-width="6" stroke-miterlimit="10" stroke-linecap="round" stroke-linejoin="round"/>
<path d="M196.16 243.56C196.16 243.56 201 244.6 207.96 251.56C210.48 254.08 214.44 259.2 217.36 263.08C218.56 264.68 221.12 263.88 221.16 261.88L222.12 219.28C222.32 218.08 222 216.84 221.24 215.92L210.76 202.88L196.16 243.56Z" fill="#6F50FF"/>
<path opacity="0.72" d="M221.2 262.72C218.92 262.4 217.2 260.44 217.16 258.12L216.72 218.52C216.92 217.32 216.6 216.08 215.84 215.16L209.28 206.96L210.76 202.88L221.24 215.92C222 216.88 222.32 218.08 222.12 219.28L221.2 262.72Z" fill="#D5CEEC"/>
<path opacity="0.72" d="M196.16 243.56L210.76 202.88L216.56 210.12C213.44 222.12 208.52 234.32 201.88 246.48C198.36 244.04 196.16 243.56 196.16 243.56Z" fill="#6F50FF"/>
<path d="M196.16 243.56C196.16 243.56 201 244.6 207.96 251.56C210.48 254.08 214.44 259.2 217.36 263.08C218.56 264.68 221.12 263.88 221.16 261.88L222.12 219.28C222.32 218.08 222 216.84 221.24 215.92L210.76 202.88L196.16 243.56Z" stroke="#3129A4" stroke-width="6" stroke-miterlimit="10" stroke-linecap="round" stroke-linejoin="round"/>
<path d="M195.96 266.44C196.4 261.68 195.76 257.2 187.76 245.4C186.44 243.52 183.28 243.52 181.96 245.4C173.96 257.24 173.32 261.72 173.76 266.44C173.84 267.04 174.92 267.72 175.6 267.48C180.2 265.12 189.52 265.12 194.12 267.48C194.8 267.72 195.88 267.08 195.96 266.44Z" fill="#FFBBAB"/>
<g opacity="0.32">
<g opacity="0.32">
<g opacity="0.32">
<path opacity="0.32" d="M177.8 266.44C177.36 261.68 178 257.2 186 245.4C186.24 245.04 186.56 244.76 186.88 244.56C185.36 243.56 183.04 243.84 181.96 245.4C173.96 257.24 173.32 261.72 173.76 266.44C173.84 267.04 174.92 267.72 175.6 267.48C176.28 267.16 177.04 266.84 177.84 266.6C177.84 266.56 177.8 266.52 177.8 266.44Z" fill="#F4A15D"/>
</g>
<g opacity="0.32">
<path opacity="0.32" d="M186.88 265.8C189.64 266 192.24 266.56 194.12 267.48C194.72 267.72 195.68 267.16 195.92 266.6C193.28 265.84 190 265.56 186.88 265.8Z" fill="#F4A15D"/>
</g>
</g>
</g>
<path d="M183.36 245.4C183.24 245.24 183.12 245.12 183 245C184.48 243.52 187.24 243.68 188.44 245.4C196.44 257.24 197.08 261.72 196.64 266.44C196.56 267.04 195.48 267.72 194.8 267.48C193.88 267 192.76 266.64 191.56 266.36C192 261.64 191.32 257.16 183.36 245.4Z" fill="#F4EFF0"/>
<path d="M195.96 266.44C196.4 261.68 195.76 257.2 187.76 245.4C186.44 243.52 183.28 243.52 181.96 245.4C173.96 257.24 173.32 261.72 173.76 266.44C173.84 267.04 174.92 267.72 175.6 267.48C180.2 265.12 189.52 265.12 194.12 267.48C194.8 267.72 195.88 267.08 195.96 266.44Z" stroke="#3129A4" stroke-width="6" stroke-miterlimit="10" stroke-linecap="round" stroke-linejoin="round"/>
<path d="M193.88 252.08C212.72 221.24 219.56 190.96 215.32 165.72C211.64 143.8 199.8 128 184.84 118.12C169.88 128 158.04 143.8 154.36 165.72C150.12 190.96 157 221.24 175.8 252.08H193.88Z" fill="#6045E2"/>
<path opacity="0.23" d="M168.68 166.16C171.08 146.32 177.32 130.56 185.72 118.76C185.44 118.56 185.12 118.36 184.84 118.16C169.88 128.04 158.04 143.84 154.36 165.76C150.12 191 157 221.28 175.8 252.12H179.6C169.16 221.28 165.64 191.64 168.68 166.16Z" fill="#F4A15D"/>
<path opacity="0.37" d="M215.32 165.72C211.68 143.96 200 128.24 185.16 118.36C187.92 122.8 191.44 129.2 194.4 137.32C199.8 152.08 200.4 164.24 200.72 171.88C202.16 206.24 189 244.24 186.24 252.12H193.88C212.72 221.24 219.56 190.96 215.32 165.72Z" fill="#3129A4"/>
<path opacity="0.72" d="M215.32 165.72C211.64 143.8 199.8 128 184.84 118.12C184.44 118.36 184.08 118.64 183.68 118.88C189.36 123.32 193.68 128.08 196.96 132.64C226.4 173.6 198.16 234.92 194.28 243.04C194.12 237.52 193.4 230.68 191.36 223.04C190.04 218.16 188.44 213.88 186.84 210.24C186.24 223.8 185.64 237.36 185.04 250.92H190C189.88 251.32 189.76 251.68 189.6 252.08H193.8C212.72 221.24 219.56 190.96 215.32 165.72Z" fill="#3129A4"/>
<path opacity="0.32" d="M159.4 172.68C159.96 166.28 162.04 145.48 174.88 128.4C176.92 125.72 179.96 122.08 179.72 121.88C179.36 121.56 172.32 127.92 167.32 134.68C161.04 143.12 156.44 153.48 154.4 165.72C150.16 190.96 157.04 221.24 175.84 252.08H177.48C172.32 241.8 168.92 232.52 166.6 225.2C165.08 220.28 162.4 211.56 160.72 199.88C159.64 192.04 158.44 183.64 159.4 172.68Z" fill="#8094DA"/>
<path opacity="0.72" d="M187 180.92C193.009 180.92 197.88 176.049 197.88 170.04C197.88 164.031 193.009 159.16 187 159.16C180.991 159.16 176.12 164.031 176.12 170.04C176.12 176.049 180.991 180.92 187 180.92Z" fill="#6045E2" stroke="#A5143A" stroke-width="6" stroke-miterlimit="10" stroke-linecap="round" stroke-linejoin="round"/>
<path d="M193.88 252.08C212.72 221.24 219.56 190.96 215.32 165.72C211.64 143.8 199.8 128 184.84 118.12C169.88 128 158.04 143.8 154.36 165.72C150.12 190.96 157 221.24 175.8 252.08H193.88Z" stroke="#3129A4" stroke-width="6" stroke-miterlimit="10" stroke-linecap="round" stroke-linejoin="round"/>
<path d="M195.585 170.103C196.548 164.172 192.52 158.583 186.588 157.621C180.657 156.658 175.068 160.686 174.106 166.617C173.143 172.549 177.171 178.137 183.103 179.1C189.034 180.063 194.623 176.035 195.585 170.103Z" fill="#ABCFD8"/>
<path opacity="0.93" d="M183.36 174.32C186.983 174.32 189.92 171.383 189.92 167.76C189.92 164.137 186.983 161.2 183.36 161.2C179.737 161.2 176.8 164.137 176.8 167.76C176.8 171.383 179.737 174.32 183.36 174.32Z" fill="#E2F0F2"/>
<path d="M195.585 170.103C196.548 164.172 192.52 158.583 186.588 157.621C180.657 156.658 175.068 160.686 174.106 166.617C173.143 172.549 177.171 178.137 183.103 179.1C189.034 180.063 194.623 176.035 195.585 170.103Z" stroke="#3129A4" stroke-width="6" stroke-miterlimit="10" stroke-linecap="round" stroke-linejoin="round"/>
<path d="M184.84 270.8C185.28 270.8 185.64 270.32 185.68 269.68L188.68 220.72C189 215.68 187.4 211 185.04 209.88C184.88 209.8 184.72 209.8 184.6 209.88C182.24 210.96 180.64 215.64 180.96 220.72L183.96 269.68C184.04 270.32 184.44 270.8 184.84 270.8Z" fill="#BC1D4E"/>
<path opacity="0.74" d="M184.84 270.8C185.28 270.8 185.64 270.32 185.68 269.68L188.68 220.72C189 215.68 187.4 211 185.04 209.88C184.88 209.8 184.72 209.8 184.6 209.88C182.24 210.96 180.64 215.64 180.96 220.72L183.96 269.68C184.04 270.32 184.44 270.8 184.84 270.8Z" fill="#6F50FF"/>
<g opacity="0.53">
<g opacity="0.53">
<g opacity="0.53">
<path opacity="0.53" d="M184.64 209.88C182.28 210.96 180.68 215.64 181 220.72L184 269.68C184.04 270.2 184.28 270.64 184.6 270.76V209.88H184.64Z" fill="#F4A15D"/>
</g>
<g opacity="0.53">
<path opacity="0.53" d="M184.64 209.88H185.08C184.92 209.8 184.76 209.8 184.64 209.88Z" fill="#F4A15D"/>
</g>
</g>
</g>
<path d="M184.84 270.8C185.28 270.8 185.64 270.32 185.68 269.68L188.68 220.72C189 215.68 187.4 211 185.04 209.88C184.88 209.8 184.72 209.8 184.6 209.88C182.24 210.96 180.64 215.64 180.96 220.72L183.96 269.68C184.04 270.32 184.44 270.8 184.84 270.8Z" stroke="#3129A4" stroke-width="6" stroke-miterlimit="10" stroke-linecap="round" stroke-linejoin="round"/>
<path d="M243.56 212.68C239.48 206.76 237.12 199.76 237.12 192.28C237.12 182.8 240.84 174.12 247.04 167.44C253.24 174.12 257 182.8 257.04 192.28C257.04 199.8 254.68 206.76 250.64 212.68H243.56Z" fill="#CF264D"/>
<path d="M243.56 212.68C239.48 206.76 237.12 199.76 237.12 192.28C237.12 182.8 240.84 174.12 247.04 167.44C253.24 174.12 257 182.8 257.04 192.28C257.04 199.8 254.68 206.76 250.64 212.68H243.56Z" fill="#D5CEEC"/>
<path opacity="0.23" d="M246.48 167.44C246.96 167.96 247.44 168.52 247.88 169.08C243.72 175.48 241.32 183 241.28 191C241.28 198.92 242.48 206.32 246.56 212.72H242.88C238.84 206.8 236.48 199.8 236.48 192.32C236.48 182.8 240.24 174.12 246.48 167.44Z" fill="#F4A15D"/>
<path opacity="0.32" d="M246.48 167.44C246.64 167.6 246.8 167.8 246.96 168C242.28 174.92 239.6 183.04 239.56 191.76C239.56 199.32 241.6 206.44 245.16 212.72H242.88C238.84 206.8 236.48 199.8 236.48 192.32C236.48 182.8 240.24 174.12 246.48 167.44Z" fill="#F4A15D"/>
<path opacity="0.37" d="M257.04 192.28C257.04 182.8 253.28 174.16 247.04 167.44C246.56 167.96 246.08 168.52 245.64 169.08C249.8 175.48 252.2 183 252.24 191C252.24 198.92 249.92 206.32 245.84 212.72H250.64C254.68 206.76 257.04 199.76 257.04 192.28Z" fill="#A5143A"/>
<path opacity="0.72" d="M257.04 192.28C257.04 182.8 253.28 174.16 247.04 167.44C246.88 167.6 246.72 167.8 246.56 168C251.24 174.92 253.92 183.04 253.96 191.76C253.96 199.32 251.92 206.44 248.36 212.72H250.64C254.68 206.76 257.04 199.76 257.04 192.28Z" fill="#A5143A"/>
<path opacity="0.37" d="M247.04 167.44C246.56 167.96 246.08 168.52 245.64 169.08C249.8 175.48 252.2 183 252.24 191C252.24 198.92 249.92 206.32 245.84 212.72H250.64C254.68 206.8 257.04 199.8 257.04 192.32C257.04 182.8 253.28 174.12 247.04 167.44Z" fill="#6045E2"/>
<path opacity="0.72" d="M247.04 167.44C246.88 167.6 246.72 167.8 246.56 168C251.24 174.92 253.92 183.04 253.96 191.76C253.96 199.32 251.92 206.44 248.36 212.72H250.64C254.68 206.8 257.04 199.8 257.04 192.32C257.04 182.8 253.28 174.12 247.04 167.44Z" fill="#A5143A"/>
<path d="M252.36 174.64C250.88 172.04 249.12 169.64 247.08 167.4C245.04 169.6 243.28 172.04 241.8 174.64H252.36Z" fill="#6F50FF"/>
<path d="M243.56 212.68C239.48 206.76 237.12 199.76 237.12 192.28C237.12 182.8 240.84 174.12 247.04 167.44C253.24 174.12 257 182.8 257.04 192.28C257.04 199.8 254.68 206.76 250.64 212.68H243.56Z" stroke="#3129A4" stroke-width="6" stroke-miterlimit="10" stroke-linecap="round" stroke-linejoin="round"/>
<path d="M240.52 207.4H253.68" stroke="#3129A4" stroke-width="4" stroke-miterlimit="10" stroke-linecap="round" stroke-linejoin="round"/>
<path opacity="0.41" d="M172.52 130.56C172.52 130.56 175.24 126.28 184.48 119.08C180.2 124.88 179.36 128.52 179.08 128.8C176.36 129.32 172.52 130.56 172.52 130.56Z" fill="white"/>
<path d="M91.1725 83.72H94.3725V85H78.3725V83.72H81.5725V43.4H78.3725V42.12H91.1725V83.72ZM127.161 72.2H107.833C108.259 79.7093 111.182 83.464 116.601 83.464C118.051 83.464 119.694 83.1227 121.529 82.44C123.406 81.7573 124.771 80.7973 125.625 79.56L126.521 80.2C125.582 81.7787 123.982 83.08 121.721 84.104C119.459 85.128 117.198 85.64 114.937 85.64C112.718 85.64 110.713 85.4267 108.921 85C107.129 84.5307 105.379 83.7627 103.673 82.696C101.966 81.6293 100.622 80.0293 99.6405 77.896C98.7018 75.7627 98.2325 73.1813 98.2325 70.152C98.2325 64.9893 99.6618 61.1707 102.521 58.696C105.379 56.1787 108.835 54.92 112.889 54.92C116.985 54.92 120.377 56.2853 123.065 59.016C125.795 61.7467 127.161 66.1413 127.161 72.2ZM107.769 70.92H118.201C118.201 66.9947 117.774 63.56 116.921 60.616C116.11 57.672 114.787 56.2 112.953 56.2C111.118 56.2 109.795 57.6293 108.985 60.488C108.174 63.304 107.769 66.5467 107.769 70.216V70.92ZM162.85 83.72C162.423 84.1467 161.613 84.5307 160.418 84.872C159.223 85.1707 157.837 85.32 156.258 85.32C152.759 85.32 150.562 84.2747 149.666 82.184C147.533 84.4027 144.269 85.512 139.874 85.512C137.527 85.512 135.586 84.9787 134.05 83.912C132.557 82.8027 131.81 81.1813 131.81 79.048C131.81 76.1893 132.919 73.992 135.138 72.456C137.357 70.8773 141.239 69.768 146.786 69.128L149.346 68.808V65.672C149.346 61.96 149.069 59.464 148.514 58.184C147.959 56.904 146.85 56.264 145.186 56.264C143.565 56.264 142.519 56.4987 142.05 56.968C141.581 57.3947 141.41 57.9067 141.538 58.504C141.666 59.0587 141.879 59.8053 142.178 60.744C142.477 61.6827 142.626 62.4293 142.626 62.984C142.626 64.3067 142.157 65.4373 141.218 66.376C140.322 67.272 139.213 67.72 137.89 67.72C136.61 67.72 135.501 67.272 134.562 66.376C133.623 65.4373 133.154 64.3067 133.154 62.984C133.154 60.808 134.263 58.952 136.482 57.416C138.743 55.8373 142.093 55.048 146.53 55.048C151.01 55.048 154.189 55.9227 156.066 57.672C157.986 59.4213 158.946 62.5147 158.946 66.952V78.472C158.946 80.7333 159.223 82.1627 159.778 82.76C160.333 83.3147 161.357 83.4213 162.85 83.08V83.72ZM140.706 77.768C140.919 79.3893 141.517 80.648 142.498 81.544C143.479 82.3973 144.61 82.824 145.89 82.824C147.213 82.824 148.365 82.184 149.346 80.904V70.024L147.042 70.344C145.079 70.6 143.479 71.3467 142.242 72.584C141.047 73.8213 140.535 75.5493 140.706 77.768ZM178.781 85.768C175.325 85.768 172.338 84.4027 169.821 81.672C167.304 78.9413 166.045 75.08 166.045 70.088C166.045 65.096 167.282 61.192 169.757 58.376C172.232 55.56 175.24 54.152 178.781 54.152C180.53 54.152 182.173 54.5147 183.709 55.24C185.245 55.9653 186.354 57.0533 187.037 58.504V43.4H183.837V42.12H196.637V83.72H199.837V85H187.037V82.056C185.885 84.5307 183.133 85.768 178.781 85.768ZM187.037 70.984V60.424C185.885 58.12 184.37 56.968 182.493 56.968C180.658 56.968 179.08 58.0347 177.757 60.168C176.434 62.3013 175.773 65.6933 175.773 70.344C175.773 74.952 176.456 78.3227 177.821 80.456C179.186 82.5893 180.829 83.5067 182.749 83.208C183.816 83.0373 184.626 82.696 185.181 82.184C186.418 80.9893 187.037 77.256 187.037 70.984ZM241.878 50.44H238.678V83.72H241.878V85H225.878V83.72H229.078V66.568H216.47V83.72H219.67V85H203.67V83.72H206.87V50.44H203.67V49.16H219.67V50.44H216.47V65.288H229.078V50.44H225.878V49.16H241.878V50.44ZM265.573 83.72C271.973 83.72 275.173 80.0933 275.173 72.84H276.453V85H246.373V83.72H249.573V50.44H246.373V49.16H275.812V60.04H274.533C274.533 56.2427 273.765 53.704 272.229 52.424C270.735 51.1013 268.303 50.44 264.933 50.44H259.173V65.8H261.733C264.805 65.8 266.746 65.416 267.557 64.648C268.367 63.88 268.773 62.344 268.773 60.04H270.053V72.84H268.773C268.773 70.4507 268.367 68.8933 267.557 68.168C266.746 67.4427 264.805 67.08 261.733 67.08H259.173V83.72H265.573ZM293.408 50.44V66.952C297.674 66.952 300.533 66.3333 301.984 65.096C303.434 63.8587 304.16 61.7893 304.16 58.888C304.16 55.9867 303.413 53.8533 301.92 52.488C300.426 51.1227 297.589 50.44 293.408 50.44ZM318.56 85.64H315.744C310.41 85.64 306.698 84.488 304.608 82.184C302.944 80.392 301.813 78.024 301.216 75.08C300.96 73.8427 300.682 72.712 300.384 71.688C299.701 69.384 298.314 68.232 296.224 68.232H293.408V83.72H296.608V85H280.608V83.72H283.808V50.44H280.608V49.16H297.44C308.32 49.16 313.76 52.3387 313.76 58.696C313.76 61.2133 312.842 63.2613 311.007 64.84C309.173 66.4187 306.826 67.208 303.968 67.208V67.656C308.234 67.656 311.2 70.472 312.864 76.104C313.717 79.0907 314.57 81.224 315.424 82.504C316.32 83.7413 317.365 84.36 318.56 84.36V85.64Z" fill="white"/>
</g>
<defs>
<clipPath id="clip0">
<rect width="400" height="400" fill="white" transform="translate(-13)"/>
</clipPath>
</defs>
</svg>
