<svg width="75" height="81" viewBox="0 0 75 81" fill="none" xmlns="http://www.w3.org/2000/svg">
<circle r="37.5" transform="matrix(-1 0 0 1 37.5 41.5)" fill="#D5CEEC"/>
<path d="M48.1147 48.1593C48.1147 48.1593 61.2112 48.4371 67.8658 59.8574C67.8658 59.8574 72.4238 76.222 71.968 79.6981L61.8493 76.2379C56.8052 79.1823 49.2314 81.4362 38.4595 80.9282C18.1463 79.9838 9 69.2302 9 69.2302C9 69.2302 11.1498 54.0004 23.1676 50.5402C35.1854 47.08 48.1147 48.1593 48.1147 48.1593Z" fill="#3129A4"/>
<path d="M19.9382 30.856C18.3205 22.1303 16.8669 8.66386 22.5547 5.90756L26.282 5.72642C26.282 5.72642 29.0178 -0.967437 39.976 0.119331C50.9342 1.2061 61.9818 10.9634 56.9873 26.816C54.3931 35.0377 59 47 59 47L42.8833 46.937L18 46.1022C20.227 41.3873 20.9087 36.0246 19.9382 30.856Z" fill="black"/>
<path d="M22.6245 17.0435C22.6245 17.0435 19.4432 38.1269 27.4415 40.8301C28.3135 41.3741 29.283 41.7246 30.2897 41.8598C31.2965 41.995 32.3191 41.912 33.2939 41.6159V48.2875C33.2939 48.2875 41.3748 54.684 48 47.8317V30.6224C48 30.6224 47.2497 20.1396 45.2464 21.2555C44.7887 21.5148 40.7445 21.0747 40.0842 13.3973C40.0842 13.3973 30.7954 9.06748 26.4961 12.0457C22.1968 15.0239 22.6245 17.0435 22.6245 17.0435Z" fill="#684938"/>
<path d="M33 41.5633C33 41.5633 38.113 40.2593 40 38C40 38 37.4005 47.909 33 48V41.5633Z" fill="url(#paint0_linear)"/>
<path d="M29 11.4023C31.4923 11.4023 34.203 11.7721 35.9574 13.613C38.1259 15.8867 38.0732 19.5057 39.0219 22.5582C39.7224 24.8839 41.1252 26.9099 43.0202 28.3328C43.969 29.0317 45.0417 29.526 46.1756 29.7867C47.3094 30.0474 48.4816 30.0694 49.6236 29.8512C49.8582 29.8254 50.0853 29.75 50.2911 29.6297C50.4969 29.5093 50.6772 29.3464 50.8208 29.151C50.9795 28.798 51.0345 28.4038 50.979 28.0181C50.7606 23.6911 50.2712 19.2146 48.1328 15.5091C46.9395 13.4601 45.2918 11.7412 43.3289 10.4976C42.1886 9.73685 40.9043 9.243 39.5641 9.04998C36.9287 8.73528 34.3686 9.96259 31.9817 11.1663" fill="black"/>
<path d="M48.1104 48C48.1104 48 51.0937 48.4579 50.9977 50.6268C50.9018 52.7956 50.5418 59.3264 47.1906 57.76C43.8393 56.1936 41 51.4541 41 51.4541L48.1104 48Z" fill="white"/>
<path d="M33.6076 48C33.6076 48 30.9225 48.4579 31.0017 50.6268C31.0809 52.7956 31.4192 59.3264 34.4283 57.76C37.4373 56.1936 40 51.4541 40 51.4541L33.6076 48Z" fill="white"/>
<path d="M41 61C39.8954 61 39 60.3284 39 59.5C39 58.6716 39.8954 58 41 58C42.1046 58 43 58.6716 43 59.5C43 60.3284 42.1046 61 41 61Z" fill="white"/>
<path d="M41 67C39.8954 67 39 66.3284 39 65.5C39 64.6716 39.8954 64 41 64C42.1046 64 43 64.6716 43 65.5C43 66.3284 42.1046 67 41 67Z" fill="white"/>
<path d="M41 73C39.8954 73 39 72.3284 39 71.5C39 70.6716 39.8954 70 41 70C42.1046 70 43 70.6716 43 71.5C43 72.3284 42.1046 73 41 73Z" fill="white"/>
<defs>
<linearGradient id="paint0_linear" x1="-7958.8" y1="2057.8" x2="-8059.18" y2="1774.49" gradientUnits="userSpaceOnUse">
<stop stop-opacity="0"/>
<stop offset="0.99"/>
</linearGradient>
</defs>
</svg>
