<svg width="175" height="132" viewBox="0 0 175 132" fill="none" xmlns="http://www.w3.org/2000/svg">
<g clip-path="url(#clip0)">
<path opacity="0.18" d="M61.9553 3.79461C53.3643 8.40867 47.0994 16.8464 44.312 26.1895C42.6625 31.7235 42.1483 37.5562 40.2675 43.0201C34.916 58.5527 19.4917 68.6571 12.9202 83.706C9.24986 92.0869 8.6194 101.857 11.7029 110.468C14.7865 119.079 21.6831 126.359 30.3098 129.399C35.5967 131.261 41.28 131.54 46.8827 131.718C57.369 132.053 67.9387 132.091 78.2638 130.229C83.1805 129.34 88.0259 128.025 92.9889 127.453C102.591 126.343 112.394 128.031 121.934 126.483C128.577 125.404 134.875 122.782 140.891 119.769C145.409 117.503 149.85 114.971 153.58 111.554C163.436 102.514 167.086 87.8561 164.439 74.7475C161.791 61.6389 153.469 50.1242 142.994 41.8107C138.389 38.1549 133.372 35.0595 128.544 31.7037C122.323 27.3822 116.413 22.6287 110.858 17.4782C97.5699 5.152 80.4288 -6.12079 61.9553 3.79461Z" fill="#7064E1"/>
<path opacity="0.44" d="M52.8198 103.005L43.8071 104.258C43.3776 104.318 42.9229 104.391 42.5951 104.67C42.0664 105.118 42.0664 105.961 42.3929 106.566C42.7194 107.171 43.2969 107.593 43.8547 107.995C41.7135 108.505 37.9943 108.391 38.1027 111.446C38.1311 112.008 38.3172 112.551 38.6398 113.012C38.9624 113.473 39.4084 113.834 39.9266 114.054C40.5597 114.31 41.2589 114.338 41.9409 114.362C48.6049 114.599 55.3786 114.824 61.8325 113.152C63.063 112.834 64.5208 112.137 64.5222 110.867C64.5222 110.416 64.3239 109.985 64.3014 109.535C64.1587 106.653 70.3191 108.345 71.9078 108.436C75.4324 108.642 78.9569 108.789 82.4814 108.878C89.6807 109.069 96.888 109.059 104.086 108.957C106.361 108.924 108.651 108.874 110.897 109.244C112.668 109.535 114.386 110.083 116.125 110.526C121.85 111.978 127.805 112.284 133.648 111.426C136.292 111.03 139.551 109.613 139.379 106.942C139.233 104.65 136.626 103.46 134.408 102.865C131.124 101.983 127.785 101.321 124.412 100.883C118.465 100.111 112.444 100.041 106.437 99.992C93.3974 99.8876 80.3575 99.8797 67.3149 99.8717C62.9401 99.8717 57.1642 102.401 52.8198 103.005Z" fill="#7064E1"/>
<path d="M70.5466 99.3562H106.942L100.502 76.2093H75.9788L70.5466 99.3562Z" fill="#7064E1"/>
<path d="M70.5466 99.3562H106.942L100.502 76.2093H75.9788L70.5466 99.3562Z" fill="url(#paint0_linear)"/>
<path d="M143.259 14.3629V74.0444C143.259 74.9024 143.09 75.752 142.762 76.5447C142.433 77.3374 141.952 78.0577 141.346 78.6644C140.739 79.2711 140.019 79.7523 139.226 80.0806C138.433 80.4088 137.584 80.5777 136.726 80.5775H42.4155C41.5575 80.5777 40.7079 80.4088 39.9152 80.0806C39.1224 79.7523 38.4022 79.2711 37.7955 78.6644C37.1888 78.0577 36.7075 77.3374 36.3793 76.5447C36.051 75.752 35.8822 74.9024 35.8823 74.0444V14.3629C35.883 12.6306 36.5716 10.9694 37.7967 9.74453C39.0218 8.51968 40.6831 7.83144 42.4155 7.83109H136.726C138.458 7.83144 140.119 8.51968 141.344 9.74453C142.569 10.9694 143.258 12.6306 143.259 14.3629Z" fill="#7064E1"/>
<path d="M50.0126 69.6999C50.0641 69.9167 49.9042 70.1387 49.7033 70.2286C49.4928 70.3089 49.267 70.3409 49.0425 70.3224L48.0921 70.3132C47.9936 70.3016 47.894 70.322 47.808 70.3713C47.6943 70.4546 47.6758 70.6159 47.6758 70.7573L47.5793 74.8281C47.5569 75.7533 47.5423 76.7248 47.9547 77.5548C48.1596 77.9672 48.4609 78.3253 48.6777 78.7324C48.8944 79.1395 49.0239 79.6325 48.8521 80.0541C47.2379 80.1211 45.6237 80.1233 44.0094 80.0607C43.7094 80.0488 43.379 80.0224 43.1715 79.8056C43.0659 79.6789 42.9884 79.5311 42.9441 79.3721C42.4686 78.0258 42.0771 76.6512 41.7718 75.2564C41.481 73.9254 41.2682 72.568 41.3211 71.2067C41.3739 69.8453 41.7044 68.4747 42.4313 67.3235C42.5991 67.0312 42.8238 66.7755 43.0922 66.5715C43.3762 66.3935 43.6894 66.2669 44.0173 66.1974C45.6179 65.7798 47.2806 65.6687 48.9301 65.5551C49.4826 65.5181 50.0813 65.4916 50.5426 65.7969C51.0343 66.1207 51.2444 66.7552 51.214 67.3433C51.1836 67.9315 50.9497 68.4853 50.721 69.0258" fill="url(#paint1_linear)"/>
<path d="M129.596 76.282C128.58 72.9169 127.421 69.5995 126.118 66.3296C126.078 66.1843 125.99 66.0567 125.869 65.9674C125.731 65.9072 125.576 65.8946 125.43 65.9318L122.595 66.3349C122.648 67.9315 123.374 69.4144 123.994 70.8855C125.093 73.4947 125.897 76.2184 126.392 79.006C126.422 79.2854 126.509 79.5555 126.649 79.799C126.913 80.1784 127.393 80.3277 127.838 80.4189C129.226 80.7097 130.132 81.1327 130.366 79.7211C130.536 78.7139 129.891 77.231 129.596 76.282Z" fill="url(#paint2_linear)"/>
<path d="M116.318 77.157L113.278 77.1226C113.067 77.1226 112.834 77.1226 112.678 77.2667C112.522 77.4107 112.497 77.5997 112.385 77.7544C112.139 78.094 111.641 78.094 111.223 78.0491C109.763 77.8927 108.318 77.6159 106.903 77.2217L107.446 73.5064C110.032 74.0847 112.678 74.3465 115.327 74.2862L115.467 69.8136L111.448 69.7779C111.277 69.7944 111.105 69.756 110.958 69.6682C110.77 69.5268 110.742 69.2598 110.737 69.0245C110.727 68.478 110.758 67.9315 110.829 67.3896C110.83 67.2609 110.882 67.1378 110.973 67.0473C111.088 66.9824 111.223 66.9649 111.35 66.9984C114.412 67.4032 117.505 67.5161 120.587 67.3354C120.759 71.9016 121.591 76.419 123.058 80.7467C121.421 80.5696 119.489 80.8485 117.903 80.4929C117.152 80.3238 117.188 80.2418 116.946 79.4356C116.887 79.2281 116.419 77.1583 116.318 77.157Z" fill="url(#paint3_linear)"/>
<path d="M143.259 14.3629V66.7023H35.8823V14.3629C35.883 12.6306 36.5716 10.9694 37.7967 9.74453C39.0218 8.51968 40.6831 7.83144 42.4155 7.83109H136.726C138.458 7.83144 140.119 8.51968 141.344 9.74453C142.569 10.9694 143.258 12.6306 143.259 14.3629Z" fill="#473F47"/>
<path d="M46.2033 63.784C47.4536 64.6431 48.7542 65.5247 50.2477 65.7943C50.4314 65.8273 50.6442 65.867 50.738 66.0269C50.8007 66.1679 50.8082 66.3273 50.7592 66.4736C50.5371 67.537 50.22 68.5783 49.8115 69.5849C47.6341 69.3018 45.5406 68.5637 43.6669 67.4187C43.3696 67.2363 43.0682 67.0341 42.8871 66.7367C42.7061 66.4393 42.6598 66.0401 42.6321 65.6714C42.5541 64.6642 42.4047 63.2236 43.0074 62.3301C43.4779 61.6323 43.7396 62.0909 44.3661 62.5218L46.2033 63.784Z" fill="#7064E1"/>
<path d="M45.4421 63.6161C46.6924 64.4752 47.9929 65.3568 49.4865 65.6264C49.6702 65.6595 49.883 65.6978 49.9768 65.8591C50.0395 66.0001 50.047 66.1595 49.998 66.3058C49.7763 67.3687 49.4596 68.4096 49.0516 69.4158C46.8736 69.1332 44.7795 68.3951 42.9057 67.2495C42.6083 67.0684 42.3083 66.8662 42.1259 66.5688C41.9435 66.2714 41.8986 65.871 41.8708 65.5035C41.7928 64.4951 41.6435 63.0557 42.2462 62.1623C42.7167 61.4644 42.9784 61.923 43.6062 62.3539L45.4421 63.6161Z" fill="url(#paint4_linear)"/>
<path d="M141.642 15.6159V64.9577H37.5039V15.6159C37.5039 12.1557 40.3416 9.3484 43.8401 9.3484H135.31C138.804 9.34311 141.642 12.1504 141.642 15.6159Z" fill="white"/>
<path opacity="0.18" d="M141.642 15.6159V64.9577H37.5039V15.6159C37.5039 12.1557 40.3416 9.3484 43.8401 9.3484H135.31C138.804 9.34311 141.642 12.1504 141.642 15.6159Z" fill="#7064E1"/>
<path d="M110.179 32.0883C110.176 30.902 110.432 29.7293 110.929 28.6518L105.804 25.8617C104.876 27.7429 104.38 29.8078 104.353 31.9053C104.326 34.0028 104.768 36.0798 105.648 37.9843C106.527 39.8888 107.821 41.5726 109.435 42.9125C111.049 44.2524 112.942 45.2144 114.976 45.7282L116.013 39.9748C114.325 39.4572 112.847 38.4118 111.797 36.9923C110.747 35.5728 110.18 33.8539 110.179 32.0883Z" fill="#7064E1"/>
<path opacity="0.5" d="M130.504 39.3206C128.948 41.9156 126.597 43.9403 123.8 45.0949C121.004 46.2494 117.909 46.4724 114.976 45.7309L116.013 39.9749C116.797 40.2179 117.614 40.3405 118.434 40.3383C119.82 40.3386 121.183 39.9899 122.397 39.3244C123.612 38.6589 124.64 37.698 125.385 36.5305L130.504 39.3206Z" fill="#7064E1"/>
<path d="M132.505 32.0883C132.51 34.6364 131.818 37.1372 130.504 39.3206L125.379 36.5305C125.988 35.577 126.395 34.5082 126.574 33.3907C126.753 32.2731 126.7 31.1307 126.419 30.0345C126.137 28.9383 125.633 27.9118 124.938 27.0188C124.242 26.1258 123.371 25.3855 122.377 24.8438C121.383 24.3022 120.289 23.9708 119.161 23.8704C118.034 23.77 116.898 23.9026 115.824 24.26C114.75 24.6175 113.761 25.1921 112.919 25.9481C112.077 26.7041 111.399 27.6253 110.928 28.6545L105.804 25.8644C107.21 23.0159 109.538 20.7267 112.41 19.369C115.282 18.0113 118.529 17.6649 121.622 18.3861C124.716 19.1073 127.475 20.8536 129.45 23.3413C131.425 25.829 132.501 28.9117 132.503 32.0883H132.505Z" fill="white"/>
<path opacity="0.18" d="M80.8042 15.8089H46.5061V47.3182H80.8042V15.8089Z" fill="#7064E1"/>
<path d="M116.899 108.512C115.015 108.621 112.998 108.699 111.388 107.719C111.274 107.658 111.176 107.57 111.104 107.462C111.063 107.376 111.046 107.281 111.055 107.186C111.064 107.091 111.098 107 111.154 106.923C111.268 106.77 111.418 106.647 111.591 106.565C112.177 106.246 112.848 106.127 113.506 106.012C114.317 105.871 115.129 105.728 115.95 105.646C116.478 105.595 117.369 105.382 117.8 105.806C118.137 106.142 118.064 106.731 118.009 107.162C117.899 107.924 117.751 108.461 116.899 108.512Z" fill="white"/>
<path d="M129.377 106.386C127.891 107.549 126.277 108.765 124.395 108.873C124.267 108.889 124.136 108.872 124.016 108.824C123.934 108.776 123.865 108.707 123.819 108.624C123.772 108.541 123.749 108.447 123.752 108.352C123.758 108.161 123.811 107.975 123.905 107.809C124.206 107.214 124.69 106.733 125.165 106.263C125.751 105.686 126.338 105.106 126.965 104.572C127.361 104.231 127.982 103.546 128.572 103.646C129.04 103.731 129.32 104.262 129.516 104.643C129.865 105.334 130.048 105.86 129.377 106.386Z" fill="white"/>
<path d="M114.658 104.248C114.666 104.874 114.676 105.499 114.687 106.122C115.822 106.263 116.968 106.295 118.109 106.217C118.162 106.227 118.216 106.225 118.268 106.209C118.319 106.194 118.366 106.167 118.405 106.13C118.444 106.093 118.473 106.047 118.491 105.996C118.508 105.945 118.514 105.891 118.506 105.838C118.749 102.737 118.351 99.6047 118.713 96.5146C118.768 95.8677 118.917 95.2323 119.156 94.6285C119.42 94.0232 119.817 93.4919 120.213 92.9579C121.404 91.3148 122.465 89.5812 123.386 87.7729C124.339 85.9093 124.588 83.9822 124.562 81.8715C124.535 79.8374 123.495 78.9558 121.51 79.4845C121.225 79.5203 120.955 79.6299 120.725 79.8024C120.496 79.9749 120.315 80.2042 120.202 80.4678C119.046 82.4398 117.887 84.4197 117.02 86.5344C114.739 92.0856 114.584 98.2222 114.658 104.248Z" fill="#473F47"/>
<path d="M114.658 104.248C114.666 104.874 114.676 105.499 114.687 106.122C115.822 106.263 116.968 106.295 118.109 106.217C118.162 106.227 118.216 106.225 118.268 106.209C118.319 106.194 118.366 106.167 118.405 106.13C118.444 106.093 118.473 106.047 118.491 105.996C118.508 105.945 118.514 105.891 118.506 105.838C118.749 102.737 118.351 99.6047 118.713 96.5146C118.768 95.8677 118.917 95.2323 119.156 94.6285C119.42 94.0232 119.817 93.4919 120.213 92.9579C121.404 91.3148 122.465 89.5812 123.386 87.7729C124.339 85.9093 124.588 83.9822 124.562 81.8715C124.535 79.8374 123.495 78.9558 121.51 79.4845C121.225 79.5203 120.955 79.6299 120.725 79.8024C120.496 79.9749 120.315 80.2042 120.202 80.4678C119.046 82.4398 117.887 84.4197 117.02 86.5344C114.739 92.0856 114.584 98.2222 114.658 104.248Z" fill="url(#paint5_linear)"/>
<path d="M113.576 68.4099C109.533 67.2796 106.06 64.6775 103.839 61.1155C103.49 60.5498 103.166 59.8599 103.419 59.2439C103.443 59.1665 103.495 59.1009 103.565 59.0602C103.679 59.0087 103.807 59.0801 103.913 59.1475L109.161 62.5839C110.615 63.5342 112.103 64.5003 113.787 64.9206C113.97 65.5181 114.295 65.9106 114.316 66.5358C114.337 67.1609 113.993 67.9447 113.576 68.4099Z" fill="#FFBBAB"/>
<path d="M50.1197 77.1371L111.65 77.1371V27.5548L50.1197 27.5548L50.1197 77.1371Z" fill="white"/>
<path opacity="0.16" d="M102.976 76.1498C103.24 76.3639 103.59 76.4432 103.926 76.5107C106.179 76.9589 108.482 77.1078 110.774 76.9534C110.997 76.9389 111.235 76.9151 111.407 76.7724C111.614 76.6019 111.671 76.3098 111.691 76.0414C111.753 75.3387 111.705 74.6307 111.55 73.9426C111.53 73.854 105.985 73.862 105.458 73.9426C104.67 74.0615 101.667 75.0925 102.976 76.1498Z" fill="#7064E1"/>
<path opacity="0.16" d="M55.2426 56.5609C55.3284 57.0042 55.3364 57.459 55.2664 57.9051C55.1342 58.5421 54.7284 59.08 54.3491 59.6087C52.6587 61.9625 51.3343 64.5587 50.421 67.3089C50.0113 65.8194 50.0245 64.2519 50.0338 62.7068C50.0192 62.162 50.0613 61.6172 50.1593 61.0811C50.3206 60.3357 50.688 59.6563 51.0105 58.9664C51.5063 57.8858 51.8796 56.7531 52.1234 55.5894C52.2952 54.7687 52.5873 52.6883 53.8799 52.8284C54.9677 52.9434 55.1236 55.7375 55.2426 56.5609Z" fill="#7064E1"/>
<path d="M128.428 83.5514C127.956 85.5141 127.208 87.3936 126.341 89.2135C125.608 90.7494 123.915 92.7253 123.923 94.466C123.937 97.5931 127.228 101.779 129.244 103.925C128.175 104.631 127.034 105.22 125.838 105.682C125.574 105.785 125.279 105.883 125.004 105.801C124.677 105.703 124.476 105.382 124.305 105.086L122.102 101.253C120.874 99.121 119.612 96.8794 119.51 94.421C119.473 93.5315 119.591 92.6447 119.691 91.7618C119.926 89.8797 119.712 87.7465 120.164 85.9172C120.578 84.2492 121.12 82.5945 121.509 80.8948C121.704 80.0449 121.946 79.121 122.651 78.6069C122.952 78.4037 123.288 78.2564 123.642 78.1721C125.36 77.6896 127.218 77.6262 128.159 79.4078C128.81 80.6436 128.745 82.2297 128.428 83.5514Z" fill="#473F47"/>
<path d="M113.067 65.0793C112.131 65.4189 113.006 67.6037 113.257 68.2513C113.302 68.41 113.398 68.5495 113.53 68.6478C113.676 68.7147 113.84 68.7342 113.998 68.7034C115.407 68.5721 116.809 68.4051 118.203 68.2024C118.515 68.1779 118.818 68.0879 119.093 67.9381C119.257 67.8213 119.397 67.6727 119.503 67.5011C119.609 67.3295 119.68 67.1383 119.711 66.9389C119.843 66.278 119.904 64.7131 119.336 64.2122C118.924 63.8501 118.103 64.1065 117.564 64.162C116.04 64.3246 114.512 64.5532 113.067 65.0793Z" fill="#7064E1"/>
<path d="M113.067 65.0793C112.131 65.4189 113.006 67.6037 113.257 68.2513C113.302 68.41 113.398 68.5495 113.53 68.6478C113.676 68.7147 113.84 68.7342 113.998 68.7034C115.407 68.5721 116.809 68.4051 118.203 68.2024C118.515 68.1779 118.818 68.0879 119.093 67.9381C119.257 67.8213 119.397 67.6727 119.503 67.5011C119.609 67.3295 119.68 67.1383 119.711 66.9389C119.843 66.278 119.904 64.7131 119.336 64.2122C118.924 63.8501 118.103 64.1065 117.564 64.162C116.04 64.3246 114.512 64.5532 113.067 65.0793Z" fill="url(#paint6_linear)"/>
<path d="M115.792 57.0142C115.626 57.2918 115.289 57.4544 115.179 57.7584C115.047 58.1258 115.303 58.5051 115.434 58.8726C115.617 59.3854 115.566 59.959 115.738 60.4731C115.77 60.5849 115.833 60.6854 115.919 60.7626C116.001 60.8179 116.094 60.8545 116.192 60.8696C116.573 60.9495 116.964 60.9722 117.352 60.9371C117.429 60.9214 117.508 60.9321 117.578 60.9674C117.634 61.019 117.67 61.0888 117.678 61.1644C117.9 62.1376 117.885 63.15 117.632 64.1157C117.549 64.4343 117.456 64.8215 117.692 65.0515C117.777 65.127 117.88 65.179 117.992 65.2022C118.727 65.3806 119.435 64.8374 119.932 64.2664C120.376 63.7552 120.758 63.1936 121.07 62.5931C121.166 62.4271 121.232 62.2455 121.266 62.0565C121.279 61.8099 121.245 61.563 121.164 61.3296C120.955 60.5264 120.827 59.7041 120.783 58.8752C120.728 57.8178 120.804 56.7089 120.399 55.7256C120.279 55.3873 120.053 55.0969 119.755 54.8982C119.418 54.6999 119.003 54.6999 118.612 54.7145C117.838 54.7449 116.991 54.8466 116.466 55.415C116.314 55.5789 115.997 56.6693 115.792 57.0142Z" fill="#FFBBAB"/>
<path d="M116.112 54.4924C115.798 54.4343 115.561 54.8559 115.684 55.1533C115.807 55.4507 116.139 55.6 116.455 55.6542C116.77 55.7084 117.098 55.6952 117.402 55.793C117.706 55.8908 117.998 56.1485 117.99 56.4684C118.331 56.3745 118.683 56.6627 118.783 56.997C118.884 57.3314 118.818 57.6989 118.746 58.0452C118.843 58.1496 119.024 58.0782 119.116 57.9698C119.209 57.8614 119.267 57.716 119.391 57.646C119.656 57.4927 119.986 57.8363 119.949 58.1416C119.912 58.4469 119.666 58.6796 119.444 58.8924C119.388 58.9381 119.343 58.996 119.312 59.0615C119.22 59.318 119.562 59.5017 119.828 59.5598C119.81 59.7589 119.833 59.9596 119.896 60.1493C119.929 60.2437 119.99 60.3258 120.071 60.385C120.152 60.4442 120.248 60.4777 120.348 60.481C120.527 60.4718 120.669 60.337 120.833 60.2669C120.997 60.1969 121.25 60.2418 121.264 60.4202C121.54 59.844 121.247 59.3074 121.366 58.7602C121.474 58.2593 121.916 58.4456 122.218 58.1086C122.386 57.9209 122.372 57.6394 122.45 57.4015C122.549 57.0962 122.803 56.853 122.871 56.5397C122.988 56.0111 122.548 55.5339 122.146 55.1678C122.188 55.0698 122.198 54.9608 122.175 54.8567C122.151 54.7525 122.094 54.6587 122.014 54.5889C121.849 54.452 121.649 54.3648 121.436 54.3378C121.379 54.332 121.325 54.3105 121.28 54.2757C121.211 54.2096 121.226 54.0986 121.234 54.0034C121.366 52.3975 118.741 52.8429 117.775 52.9249C117.374 52.9593 116.988 53.0904 116.649 53.3069C116.554 53.3835 115.755 54.4277 116.112 54.4924Z" fill="#473F47"/>
<path d="M121.205 62.1398L121.139 62.1543C119.736 62.5046 117.689 63.7853 117.229 65.2075C116.653 66.9944 116.275 69.3972 116.691 71.2437C116.98 72.527 117.759 73.6465 118.085 74.8982C118.449 76.2846 118.51 77.642 119.074 78.9954C119.323 79.5915 119.644 80.2008 120.199 80.5286C120.66 80.7996 121.215 80.8392 121.749 80.8683C123.322 80.9516 125.531 81.4842 126.835 80.403C127.841 79.5783 128.237 78.1866 128.169 76.8886C128.1 75.5907 127.628 74.351 127.163 73.1363L124.974 67.4266C124.447 66.0547 123.166 61.7525 121.205 62.1398Z" fill="#7064E1"/>
<path d="M122.357 76.1816C122.235 76.3473 122.157 76.5407 122.128 76.7444C122.099 76.9481 122.122 77.1557 122.193 77.3486C122.418 78.2769 122.514 79.2318 122.479 80.1863C122.492 80.3568 122.439 80.526 122.331 80.6581C122.207 80.7488 122.056 80.7953 121.902 80.7903C121.354 80.8326 120.774 80.8696 120.279 80.6278C119.694 80.3396 119.354 79.7211 119.09 79.1237C118.338 77.4147 117.916 75.5815 117.504 73.7615C117.415 73.4675 117.387 73.1588 117.419 72.8535C117.501 72.3949 117.853 72.0275 118.239 71.7644C118.625 71.5014 119.056 71.3084 119.428 71.0243C120.153 70.4678 120.688 69.4607 121.675 69.3338C122.419 69.2373 122.962 69.7607 123.204 70.4216C123.827 72.1596 123.15 74.6101 122.357 76.1816Z" fill="url(#paint7_linear)"/>
<path d="M119.978 66.3058C119.978 66.3058 117.973 71.7314 117.578 72.1279C117.183 72.5244 121.432 74.9246 121.432 74.9246C121.432 74.9246 124.208 69.6484 124.075 67.3618C123.943 65.0753 121.54 64.1514 119.978 66.3058Z" fill="#7064E1"/>
<path d="M121.432 74.1884C121.432 74.1884 121.285 75.9357 119.142 75.9066L115.519 75.8551C113.85 75.8326 112.178 75.7758 110.508 75.7877C110.06 75.7877 109.75 75.9965 109.319 76.0969C108.548 76.2691 107.747 76.2507 106.985 76.0434C106.224 75.8361 105.524 75.4462 104.947 74.9074C104.495 74.4699 104.115 73.8051 104.381 73.2341C104.413 73.1531 104.472 73.0855 104.547 73.0425C104.614 73.0178 104.686 73.0088 104.756 73.0161C105.766 73.0478 106.811 73.3055 107.763 72.9658C107.683 72.8383 107.64 72.6908 107.64 72.5402C107.655 72.3922 107.792 72.2442 107.938 72.2759C108.014 72.3043 108.081 72.3532 108.132 72.4173C108.377 72.6888 108.681 72.9 109.021 73.0343C109.361 73.1687 109.728 73.2226 110.092 73.1918C112.84 73.0597 115.551 72.4768 118.298 72.3526C118.942 72.3248 119.606 72.3235 120.207 72.5535C120.808 72.7834 121.35 73.55 121.432 74.1884Z" fill="#FFBBAB"/>
<path d="M55.9945 109.515C56.2094 109.533 56.4198 109.588 56.6171 109.675C56.7151 109.72 56.7982 109.792 56.8567 109.883C56.9152 109.974 56.9467 110.08 56.9475 110.188C56.9289 110.292 56.8846 110.389 56.8186 110.472C56.7526 110.554 56.6669 110.619 56.5695 110.659C56.3805 110.755 56.173 110.802 55.9853 110.9C55.8241 111.009 55.6539 111.104 55.4764 111.184C55.1764 111.279 54.8566 111.162 54.5618 111.052C53.2266 110.58 51.8186 110.347 50.4024 110.363C50.2648 110.373 50.1265 110.363 49.9914 110.336C49.5949 110.231 49.3543 109.807 49.2406 109.41C48.9961 108.547 49.1085 107.625 49.2671 106.742C49.277 106.643 49.3116 106.548 49.3675 106.466C49.4287 106.401 49.5056 106.352 49.5909 106.326C50.9866 105.805 51.5734 107.187 52.4867 107.926C53.4971 108.753 54.7065 109.301 55.9945 109.515Z" fill="#FFBBAB"/>
<path d="M51.3818 109.556C51.473 109.57 51.5655 109.581 51.6567 109.59C52.2791 109.658 52.9059 109.675 53.5309 109.64C53.6503 109.645 53.7686 109.616 53.8732 109.558C53.94 109.504 53.9933 109.434 54.029 109.356C54.0648 109.277 54.082 109.191 54.0794 109.105C54.0736 108.933 54.0851 108.761 54.1138 108.591C54.1152 108.574 54.1201 108.557 54.1283 108.542C54.1365 108.527 54.1477 108.514 54.1612 108.503C54.1747 108.493 54.1903 108.485 54.2069 108.481C54.2236 108.477 54.2409 108.476 54.2578 108.479C54.7376 108.463 55.1989 108.653 55.6311 108.862C56.4664 109.266 57.2938 109.787 57.759 110.591C57.8048 110.656 57.831 110.733 57.8344 110.813C57.8282 110.883 57.803 110.949 57.7617 111.006C57.1986 111.882 55.795 111.667 54.9359 111.484C53.9776 111.282 53.0564 110.92 52.0889 110.768C51.0316 110.6 49.8738 110.674 48.9552 110.114C48.8044 110.032 48.6767 109.913 48.5838 109.769C48.33 109.322 48.6419 108.609 48.9605 108.265C48.9944 108.222 49.0405 108.191 49.0926 108.176C49.1618 108.167 49.2317 108.186 49.2869 108.229C49.7284 108.501 50.0152 108.976 50.4553 109.251C50.7402 109.414 51.0555 109.518 51.3818 109.556Z" fill="#7064E1"/>
<path d="M41.8657 73.9862C41.8657 73.9862 37.5279 76.4683 38.7438 81.0124C39.8012 84.9775 42.8517 87.4464 44.8012 90.8366C45.881 92.716 45.6841 95.7837 46.1414 97.9738C46.702 100.656 47.4746 103.289 48.4517 105.848C48.6473 106.364 48.9685 106.963 49.5197 106.98C49.784 106.989 50.0272 106.856 50.2889 106.848C50.5506 106.84 50.7845 106.927 51.0264 106.873C51.6569 106.729 51.6529 105.835 51.5102 105.203C50.8228 102.16 50.4079 99.0609 50.2704 95.9436C50.1647 93.5434 50.8163 90.9938 50.1382 88.6663C49.595 86.8159 46.374 76.9428 46.374 76.9428L41.8657 73.9862Z" fill="#473F47"/>
<path d="M46.863 111.911C47.0661 111.984 47.2562 112.089 47.4261 112.222C47.5097 112.29 47.5722 112.381 47.6064 112.483C47.6405 112.586 47.6449 112.696 47.619 112.801C47.5755 112.897 47.5083 112.981 47.4237 113.044C47.3391 113.107 47.2399 113.148 47.1353 113.163C46.9291 113.209 46.715 113.202 46.5088 113.251C46.3257 113.317 46.1374 113.367 45.9458 113.401C45.6325 113.418 45.3523 113.224 45.0919 113.049C43.9162 112.26 42.6107 111.685 41.2352 111.349C41.0976 111.324 40.9642 111.279 40.8387 111.217C40.4752 111.016 40.351 110.556 40.3404 110.136C40.318 109.239 40.6537 108.373 41.029 107.559C41.0627 107.465 41.1201 107.381 41.1956 107.316C41.2706 107.267 41.3573 107.239 41.4467 107.235C42.927 107.076 43.1557 108.557 43.8535 109.506C44.6292 110.557 45.6668 111.386 46.863 111.911Z" fill="#FFBBAB"/>
<path d="M42.405 77.0499C41.1824 77.1993 40.2903 77.7464 39.3651 78.5368C37.5464 80.0779 37.6759 83.2289 38.2892 85.5313C38.6117 86.7446 40.5361 90.5537 40.8189 91.6269C41.3555 93.6756 40.2836 96.2133 40.1898 98.283C40.0665 101.02 40.1598 103.763 40.4687 106.486C40.5321 107.034 40.6934 107.692 41.2221 107.847C41.4732 107.921 41.7507 107.847 42.0032 107.904C42.2556 107.961 42.4631 108.105 42.7103 108.111C43.3579 108.128 43.576 107.263 43.5945 106.615C43.6846 103.496 44.053 100.391 44.6955 97.3367C45.1898 94.9854 46.4547 92.6777 46.374 90.255C46.308 88.2725 46.2498 86.3031 46.189 84.3272C46.1216 82.1305 46.4269 79.9061 45.7581 77.7927C45.6802 77.5455 45.581 77.2838 45.3696 77.1318C45.1784 77.0188 44.9598 76.9607 44.7378 76.964C44.0843 76.9276 43.4289 76.9422 42.7777 77.0076C42.6587 77.0208 42.5266 77.034 42.405 77.0499Z" fill="#473F47"/>
<path d="M45.5135 54.8321C45.6787 55.111 46.017 55.2722 46.1254 55.5776C46.2576 55.945 46.0025 56.323 45.8703 56.6904C45.6879 57.2033 45.7461 57.7769 45.5677 58.291C45.5362 58.4035 45.4728 58.5045 45.3853 58.5818C45.3033 58.6364 45.2104 58.6725 45.113 58.6875C44.7322 58.7678 44.3415 58.7909 43.9539 58.7563C43.8773 58.7391 43.7972 58.7499 43.7279 58.7867C43.6713 58.8372 43.6355 58.9069 43.6274 58.9823C43.4043 59.9553 43.4197 60.9678 43.6723 61.9336C43.7569 62.2522 43.8481 62.6394 43.6129 62.8694C43.5287 62.9456 43.4255 62.9977 43.3142 63.0201C42.578 63.1998 41.8695 62.6553 41.3739 62.0843C40.9301 61.5737 40.5482 61.0125 40.2359 60.4123C40.1398 60.2462 40.0732 60.0646 40.039 59.8757C40.0269 59.6287 40.0614 59.3817 40.1408 59.1475C40.3506 58.3444 40.4782 57.522 40.5214 56.6931C40.5769 55.6357 40.5003 54.5268 40.9073 53.5435C41.0265 53.2055 41.2518 52.9153 41.5497 52.7161C41.888 52.5178 42.3017 52.5178 42.6943 52.5324C43.4662 52.5628 44.3134 52.6645 44.8381 53.2342C44.9901 53.3968 45.3086 54.4885 45.5135 54.8321Z" fill="#FFBBAB"/>
<path d="M40.0946 60.1467C40.3853 60.1255 40.6787 60.1242 40.9695 60.1229C41.5007 60.1041 42.0324 60.1422 42.5556 60.2366C43.0811 60.3333 43.5631 60.5921 43.9341 60.9767C44.1588 61.2278 44.3134 61.5331 44.5262 61.7948C44.739 62.0565 45.0404 62.2826 45.3774 62.2733C45.6087 62.2733 45.8215 62.1504 46.0475 62.0988C46.37 62.0248 46.7084 62.0816 47.0295 62.0129C47.3507 61.9442 47.5582 61.705 47.8133 61.5054C48.3693 61.0648 48.9055 60.5991 49.4218 60.1084C49.6782 59.8665 52.356 57.001 52.2502 56.9257C52.6639 57.225 53.0279 57.5877 53.3288 58.0002C53.4368 58.1282 53.5069 58.2839 53.531 58.4496C53.5283 58.6056 53.4874 58.7585 53.412 58.895C52.5482 60.7992 51.4569 62.5917 50.162 64.2334C49.4874 65.113 48.7035 65.9032 47.8292 66.5847C47.2569 67.0195 46.5775 67.3975 46.2246 68.0531C45.4316 69.5228 46.2154 71.7631 46.2246 73.3293C46.2246 73.8659 46.0026 74.3034 46.0039 74.8493C46.0039 75.8009 46.8299 76.6455 46.5326 77.6249C46.2854 78.4351 45.3536 78.7827 44.5394 79.0179L41.3422 79.9431C40.6338 80.148 39.8368 80.3396 39.1905 79.9907C38.3856 79.5493 38.2085 78.4906 38.1332 77.576C37.9428 75.2141 38.0155 72.3817 37.0375 70.1744C36.4083 68.751 36.2801 67.7465 36.4638 66.1499C36.596 64.9603 36.7758 63.7576 37.1855 62.6262C37.3626 62.1358 37.5952 61.6587 37.8186 61.1895C38.0168 60.7705 38.5072 60.5392 38.9222 60.3793C39.2991 60.2435 39.6943 60.1651 40.0946 60.1467Z" fill="#7064E1"/>
<path d="M44.4919 53.1245C44.4303 53.6477 44.1804 54.1307 43.7887 54.4832C43.4147 54.8361 42.9468 55.0766 42.5596 55.4084C42.1723 55.7401 41.8551 56.2424 41.9437 56.7486C41.637 56.6455 41.2392 56.7287 41.1017 57.0129C41.0606 57.1087 41.0472 57.2142 41.0631 57.3172C41.079 57.4203 41.1235 57.5168 41.1916 57.5958C41.2613 57.6729 41.3472 57.7335 41.4433 57.7733C41.5393 57.8131 41.6429 57.831 41.7467 57.8258C41.3444 57.9889 40.9995 58.2676 40.7554 58.6267C40.4131 59.1303 40.3523 59.6378 40.1475 60.189C40.0153 60.5419 39.7232 60.8102 39.5342 61.1353C39.2011 61.7063 39.2051 62.4041 39.1245 63.0597C38.9923 64.0933 38.6235 65.1215 37.9151 65.8842C37.2067 66.6468 36.1361 67.1107 35.1091 66.9415C34.0822 66.7724 33.1715 65.8842 33.1134 64.8493C32.668 64.7779 32.3203 64.3933 32.1763 63.9677C32.0322 63.5421 32.052 63.0769 32.1009 62.6288C32.1538 62.1451 32.2437 61.6508 32.4975 61.2384C32.9587 60.5062 33.8403 60.181 34.6122 59.7845C34.9584 59.6064 35.2915 59.4036 35.6087 59.1779C35.7544 59.0883 35.8781 58.9673 35.9709 58.8236C36.1453 58.513 36.0277 58.1298 35.9511 57.7808C35.8268 57.2191 35.8387 56.5913 36.1705 56.1194C36.4718 55.6899 36.982 55.4678 37.4671 55.2669L38.7108 54.7488C38.8167 54.7144 38.9128 54.655 38.991 54.5757C39.0458 54.4991 39.0837 54.4117 39.102 54.3193C39.2632 53.7153 39.3386 53.0835 39.591 52.5125C40.1197 51.3098 41.3899 50.9265 42.5979 51.138C43.6196 51.3336 44.595 51.9719 44.4919 53.1245Z" fill="#FC682D"/>
<path d="M40.2029 62.0076C40.2029 62.0076 45.9127 62.9328 46.4519 62.7835C46.9912 62.6341 46.9806 67.5218 46.9806 67.5218C46.9806 67.5218 41.021 67.342 39.0953 66.1023C37.1696 64.8625 37.5569 62.3116 40.2029 62.0076Z" fill="#7064E1"/>
<path d="M42.2383 111.146C42.3203 111.171 42.4035 111.192 42.4855 111.213C43.0498 111.353 43.6244 111.447 44.2037 111.495C44.3131 111.512 44.4251 111.501 44.5288 111.462C44.5977 111.419 44.6557 111.361 44.6986 111.292C44.7414 111.224 44.7679 111.146 44.776 111.065C44.7916 110.906 44.8235 110.75 44.8711 110.597C44.881 110.566 44.901 110.54 44.928 110.522C44.9563 110.51 44.9875 110.506 45.0179 110.511C45.4606 110.558 45.8611 110.792 46.2312 111.04C46.9475 111.516 47.6414 112.097 47.9692 112.89C48.0021 112.957 48.0162 113.031 48.0102 113.105C47.9952 113.168 47.9632 113.227 47.9177 113.274C47.2925 114.007 46.029 113.633 45.2624 113.357C44.4086 113.05 43.6076 112.602 42.7379 112.341C41.7823 112.054 40.7144 111.977 39.9412 111.347C39.813 111.253 39.7107 111.128 39.6438 110.983C39.4667 110.54 39.8421 109.926 40.1725 109.648C40.1917 109.627 40.2153 109.61 40.2417 109.599C40.2681 109.587 40.2966 109.582 40.3253 109.583C40.354 109.584 40.3822 109.591 40.4079 109.604C40.4335 109.617 40.456 109.635 40.4738 109.658C40.8452 109.962 41.0488 110.435 41.4189 110.741C41.661 110.932 41.9401 111.069 42.2383 111.146Z" fill="#7064E1"/>
<path d="M53.6672 34.2202H107.139V71.4366H53.6672V34.2202ZM106.667 34.6973H54.1444V70.9582H106.661L106.667 34.6973Z" fill="#7064E1"/>
<path d="M52.3639 55.1189C52.3639 54.5176 52.3771 53.866 52.7459 53.3915L53.0181 54.5123C53.3471 53.4548 53.8564 52.4621 54.5236 51.5781C54.6081 52.2006 54.4099 52.8245 54.213 53.4285C54.5007 52.8491 54.8261 52.2893 55.1871 51.7526C55.4144 52.3923 54.8355 53.0293 54.7615 53.7047C54.9864 53.3627 55.2717 53.0644 55.6034 52.8245C55.7038 53.0135 55.6034 53.2448 55.5082 53.4364L54.9042 54.6193C55.0753 54.4411 55.2685 54.2857 55.4791 54.1567C55.6655 54.614 55.2901 55.0819 55.0734 55.5287C54.9135 55.8578 54.8368 56.2212 54.6769 56.553C54.5313 56.8582 54.3229 57.1293 54.0653 57.3484C53.8077 57.5675 53.5067 57.7297 53.182 57.8245C52.9494 57.416 52.4498 57.383 52.3731 56.9323C52.2767 56.364 52.3665 55.6978 52.3639 55.1189Z" fill="#FFBBAB"/>
<path d="M61.5815 46.1631H57.8372V70.9582H61.5815V46.1631Z" fill="#7064E1"/>
<path d="M69.9199 40.6436H66.1755V70.9582H69.9199V40.6436Z" fill="#7064E1"/>
<path d="M78.5283 51.0983H74.7839V70.9569H78.5283V51.0983Z" fill="#7064E1"/>
<path d="M87.1353 40.6436H83.3909V70.9582H87.1353V40.6436Z" fill="#7064E1"/>
<path d="M95.7434 45.2881H91.999V70.9582H95.7434V45.2881Z" fill="#7064E1"/>
<path d="M104.35 37.268H100.606V70.9582H104.35V37.268Z" fill="#7064E1"/>
</g>
<defs>
<linearGradient id="paint0_linear" x1="90.8414" y1="71.1022" x2="86.9291" y2="123.83" gradientUnits="userSpaceOnUse">
<stop offset="0.01"/>
<stop offset="0.08" stop-opacity="0.69"/>
<stop offset="0.21" stop-opacity="0.32"/>
<stop offset="1" stop-opacity="0"/>
</linearGradient>
<linearGradient id="paint1_linear" x1="-20015.3" y1="9748.72" x2="-16419.4" y2="10569.7" gradientUnits="userSpaceOnUse">
<stop offset="0.01"/>
<stop offset="0.08" stop-opacity="0.69"/>
<stop offset="0.21" stop-opacity="0.32"/>
<stop offset="1" stop-opacity="0"/>
</linearGradient>
<linearGradient id="paint2_linear" x1="-10809.2" y1="10688.5" x2="-9251.26" y2="10582.7" gradientUnits="userSpaceOnUse">
<stop offset="0.01"/>
<stop offset="0.08" stop-opacity="0.69"/>
<stop offset="0.21" stop-opacity="0.32"/>
<stop offset="1" stop-opacity="0"/>
</linearGradient>
<linearGradient id="paint3_linear" x1="-19595.6" y1="10238.7" x2="-27096.8" y2="8711.99" gradientUnits="userSpaceOnUse">
<stop offset="0.01"/>
<stop offset="0.08" stop-opacity="0.69"/>
<stop offset="0.21" stop-opacity="0.32"/>
<stop offset="1" stop-opacity="0"/>
</linearGradient>
<linearGradient id="paint4_linear" x1="-16067.5" y1="5091.36" x2="-14640" y2="4638.26" gradientUnits="userSpaceOnUse">
<stop offset="0.01"/>
<stop offset="0.08" stop-opacity="0.69"/>
<stop offset="0.21" stop-opacity="0.32"/>
<stop offset="1" stop-opacity="0"/>
</linearGradient>
<linearGradient id="paint5_linear" x1="-13176.5" y1="23284.6" x2="-14868.1" y2="23159.6" gradientUnits="userSpaceOnUse">
<stop offset="0.01"/>
<stop offset="0.08" stop-opacity="0.69"/>
<stop offset="0.21" stop-opacity="0.32"/>
<stop offset="1" stop-opacity="0"/>
</linearGradient>
<linearGradient id="paint6_linear" x1="-9682.41" y1="3269.37" x2="-10041.1" y2="2702.93" gradientUnits="userSpaceOnUse">
<stop offset="0.01"/>
<stop offset="0.08" stop-opacity="0.69"/>
<stop offset="0.21" stop-opacity="0.32"/>
<stop offset="1" stop-opacity="0"/>
</linearGradient>
<linearGradient id="paint7_linear" x1="-7720.65" y1="8427.54" x2="-8859.89" y2="8357.4" gradientUnits="userSpaceOnUse">
<stop offset="0.01"/>
<stop offset="0.08" stop-opacity="0.69"/>
<stop offset="0.21" stop-opacity="0.32"/>
<stop offset="1" stop-opacity="0"/>
</linearGradient>
<clipPath id="clip0">
<rect width="175" height="131.897" fill="white"/>
</clipPath>
</defs>
</svg>
