<svg width="50" height="51" viewBox="0 0 50 51" fill="none" xmlns="http://www.w3.org/2000/svg">
<path d="M24.9375 50.4296C38.4927 50.4296 49.4813 39.441 49.4813 25.8859C49.4813 12.3307 38.4927 1.3421 24.9375 1.3421C11.3824 1.3421 0.393768 12.3307 0.393768 25.8859C0.393768 39.441 11.3824 50.4296 24.9375 50.4296Z" fill="#7064E1"/>
<path d="M24.9638 1.33461C31.2731 1.33078 37.3423 3.75352 41.9146 8.10116C46.4869 12.4488 49.212 18.3883 49.5258 24.6899C49.8396 30.9914 47.7179 37.1722 43.6001 41.9526C39.4823 46.7329 33.6839 49.7466 27.4053 50.3695C21.1268 50.9925 14.8492 49.177 9.87235 45.299C4.89549 41.421 1.60063 35.7776 0.670009 29.5373C-0.260613 23.2969 1.24429 16.9377 4.87311 11.7764C8.50193 6.61502 13.9767 3.04691 20.1638 1.81086C21.7443 1.49494 23.352 1.33542 24.9638 1.33461ZM24.9638 0.959609C18.3499 0.952647 12.0042 3.57331 7.32261 8.24507C2.64099 12.9168 0.00697577 19.257 1.38357e-05 25.8709C-0.0069481 32.4847 2.61371 38.8304 7.28548 43.512C11.9573 48.1936 18.2974 50.8277 24.9113 50.8346C28.1861 50.8381 31.4296 50.1964 34.4565 48.9464C37.4833 47.6964 40.2344 45.8624 42.5525 43.5492C44.8706 41.2359 46.7103 38.4888 47.9667 35.4645C49.2232 32.4403 49.8716 29.1982 49.875 25.9234C49.8785 22.6485 49.2369 19.4051 47.9868 16.3782C46.7368 13.3513 44.9028 10.6003 42.5896 8.28219C40.2764 5.9641 37.5292 4.12432 34.505 2.86791C31.4807 1.6115 28.2386 0.963056 24.9638 0.959609Z" fill="#231F20"/>
<path d="M16.4339 26.1153C17.4893 25.9107 17.9512 23.7144 17.4657 21.2099C16.9801 18.7053 15.7309 16.8408 14.6754 17.0454C13.62 17.25 13.1581 19.4463 13.6437 21.9509C14.1292 24.4554 15.3785 26.3199 16.4339 26.1153Z" fill="#231F20"/>
<path d="M32.2824 23.0471C33.3378 22.8425 33.7997 20.6463 33.3141 18.1417C32.8286 15.6371 31.5793 13.7726 30.5239 13.9772C29.4685 14.1819 29.0066 16.3781 29.4922 18.8827C29.9777 21.3873 31.227 23.2518 32.2824 23.0471Z" fill="#231F20"/>
<path d="M14.5425 44.3096C14.4123 44.3095 14.2862 44.2642 14.1857 44.1814C14.0851 44.0987 14.0164 43.9836 13.9912 43.8559C13.4175 40.9647 14.3662 37.9684 16.6162 35.4109C18.8662 32.8534 22.1287 31.1097 25.8412 30.3784C33.54 28.8484 40.755 32.4109 41.9287 38.3172C41.9576 38.4663 41.926 38.6209 41.8409 38.7467C41.7558 38.8726 41.6242 38.9596 41.475 38.9884C41.3258 39.0172 41.1713 38.9856 41.0454 38.9005C40.9195 38.8155 40.8326 38.6838 40.8037 38.5347C39.7537 33.2397 33.1312 30.0747 26.04 31.4809C22.5787 32.1672 19.53 33.8284 17.46 36.1571C15.39 38.4859 14.5838 41.0997 15.0863 43.6384C15.1149 43.7846 15.0844 43.9362 15.0015 44.0599C14.9185 44.1836 14.7899 44.2694 14.6438 44.2984L14.5425 44.3096Z" fill="#231F20"/>
<path d="M8.73241 29.804C10.3495 29.4833 11.4951 28.3899 11.2912 27.362C11.0872 26.3341 9.61105 25.7608 7.99399 26.0816C6.37693 26.4023 5.23134 27.4957 5.43525 28.5236C5.63916 29.5516 7.11535 30.1248 8.73241 29.804Z" fill="white"/>
<path d="M42.1644 23.3218C43.7814 23.001 44.927 21.9077 44.7231 20.8797C44.5192 19.8518 43.043 19.2785 41.426 19.5993C39.8089 19.9201 38.6633 21.0134 38.8672 22.0414C39.0711 23.0693 40.5473 23.6426 42.1644 23.3218Z" fill="white"/>
<path d="M10.9575 19.5559C10.9575 19.5559 16.08 17.3059 16.7212 13.8784L10.9575 19.5559Z" fill="#7064E1"/>
<path d="M10.9575 20.1184C10.8217 20.1283 10.6868 20.0886 10.578 20.0067C10.4692 19.9247 10.3939 19.8061 10.3659 19.6728C10.338 19.5395 10.3594 19.4006 10.4261 19.2818C10.4928 19.1631 10.6003 19.0726 10.7287 19.0271C10.7775 19.0046 15.6037 16.8409 16.1662 13.7584C16.18 13.6845 16.2082 13.6141 16.2492 13.5511C16.2902 13.4881 16.3433 13.4339 16.4052 13.3914C16.4672 13.3489 16.537 13.319 16.6105 13.3035C16.684 13.288 16.7599 13.2871 16.8337 13.3009C16.9076 13.3147 16.978 13.3429 17.041 13.3839C17.104 13.4249 17.1583 13.4779 17.2007 13.5399C17.2432 13.6019 17.2731 13.6716 17.2886 13.7451C17.3041 13.8186 17.305 13.8945 17.2912 13.9684C16.605 17.6284 11.4225 19.9684 11.2012 20.0546C11.1263 20.0952 11.0427 20.1171 10.9575 20.1184Z" fill="#231F20"/>
<path d="M35.19 14.9021C35.19 14.9021 29.5875 14.7671 27.69 11.8533L35.19 14.9021Z" fill="#7064E1"/>
<path d="M35.19 15.4609C34.95 15.4609 29.2725 15.2809 27.24 12.1571C27.1902 12.0967 27.1535 12.0266 27.1324 11.9513C27.1112 11.876 27.106 11.7971 27.117 11.7196C27.1281 11.6421 27.1552 11.5678 27.1966 11.5015C27.238 11.4351 27.2928 11.378 27.3575 11.334C27.4222 11.29 27.4954 11.26 27.5724 11.2459C27.6493 11.2318 27.7284 11.2339 27.8045 11.252C27.8806 11.2702 27.9521 11.304 28.0144 11.3514C28.0767 11.3988 28.1284 11.4586 28.1662 11.5271C29.8762 14.1521 35.1487 14.3171 35.205 14.3208C35.3542 14.3208 35.4972 14.3801 35.6027 14.4856C35.7082 14.5911 35.7675 14.7342 35.7675 14.8833C35.7675 15.0325 35.7082 15.1756 35.6027 15.2811C35.4972 15.3866 35.3542 15.4459 35.205 15.4459L35.19 15.4609Z" fill="#231F20"/>
</svg>
