<svg width="175" height="132" viewBox="0 0 175 132" fill="none" xmlns="http://www.w3.org/2000/svg">
<g clip-path="url(#clip0)">
<path opacity="0.18" d="M161.704 88.7584C160.581 93.1832 158.634 97.5992 156.928 101.537C150.447 116.408 139.51 126.577 122.385 124.499C114.132 123.494 106.054 120.723 97.7441 120.99C89.7935 121.236 82.2245 124.231 74.673 126.726C60.6401 131.37 45.103 134.344 31.2235 129.23C17.344 124.117 6.55184 108.387 11.4897 94.4418C15.3312 83.5575 27.3425 76.2559 28.5923 64.784C30.2368 49.874 12.5904 37.0119 16.3135 22.4615C17.8966 16.3352 22.9923 11.7745 28.3906 8.48555C40.7922 0.90337 56.0399 -1.60063 70.2877 0.977921C83.8383 3.41176 95.1129 14.8223 108.769 15.3485C117.574 15.6818 126.047 10.6782 134.817 11.5026C145.667 12.5507 153.622 22.1589 158.695 31.8109C160.329 34.8241 161.695 37.9746 162.778 41.2262C164.886 47.8526 165.314 54.899 164.023 61.7318C162.708 68.7483 162.866 75.3263 162.664 82.5225C162.575 84.6303 162.253 86.7217 161.704 88.7584Z" fill="#7064E1"/>
<path d="M67.7224 117.171C67.1874 117.337 66.5866 117.609 66.4507 118.14C68.1346 119.21 70.2177 119.455 72.2086 119.403C74.1995 119.35 76.186 118.999 78.1814 118.986C80.8125 118.986 83.777 119.455 85.8907 117.859C84.9519 117.265 83.8741 116.926 82.764 116.877C83.1543 114.421 69.2836 116.684 67.7224 117.171Z" fill="url(#paint0_linear)"/>
<path d="M33.9161 87.9164C33.2057 87.9164 32.2234 88.276 32.3988 88.9645L64.8193 91.5957C68.6345 91.907 72.4541 92.214 76.2868 92.214C82.0754 92.214 87.8377 91.5036 93.6131 91.1703C99.0509 90.859 104.497 90.8809 109.94 90.9072C114.978 90.9335 121.175 91.8413 126.069 90.5213C126.805 90.3239 127.547 89.7319 127.498 88.9733C127.476 88.6224 127.292 88.2585 127.428 87.934C127.507 87.7747 127.632 87.6432 127.788 87.5568C128.792 86.9385 130.072 87.4209 131.23 87.6752C133.073 88.0758 134.997 87.8312 136.681 86.9823C136.997 86.8511 137.266 86.628 137.453 86.3421C137.542 86.1977 137.575 86.0252 137.544 85.8583C137.513 85.6913 137.421 85.5418 137.286 85.4387C137.15 85.3713 137 85.3368 136.848 85.3379L126.924 84.566C126.557 84.5093 126.183 84.5424 125.832 84.6625C125.442 84.8336 125.464 85.2896 125.148 85.4782C124.635 85.7808 123.468 85.6185 122.881 85.6536C121.376 85.7369 119.872 85.8202 118.364 85.8948C115.361 86.038 112.353 86.1594 109.339 86.2588C103.199 86.4649 97.0293 86.5877 90.8767 86.6973C78.7075 86.8946 66.5339 86.9999 54.3691 87.4691C47.55 87.7235 40.7352 87.7673 33.9161 87.9164Z" fill="url(#paint1_linear)"/>
<path d="M58.8464 20.3522C58.2757 20.1539 57.6524 20.1695 57.0923 20.396C56.731 20.5249 56.4007 20.7281 56.1227 20.9924C55.8448 21.2568 55.6253 21.5765 55.4785 21.9309C55.4756 21.9769 55.4629 22.0219 55.4413 22.0626C55.4197 22.1034 55.3896 22.1391 55.353 22.1673C55.3165 22.1955 55.2744 22.2157 55.2295 22.2263C55.1846 22.2369 55.1379 22.2379 55.0926 22.2291C54.4544 22.2276 53.8385 22.4636 53.3648 22.8912C52.8122 23.3956 52.8122 24.0139 52.7377 24.7375C52.6472 24.6919 52.5473 24.6682 52.4461 24.6682C52.3448 24.6682 52.2449 24.6919 52.1544 24.7375C51.9738 24.8265 51.8093 24.9451 51.6677 25.0883C51.4257 25.2825 51.2321 25.5302 51.102 25.8119C50.9266 26.2899 51.1239 26.8161 51.1327 27.3248C51.1357 27.3476 51.1338 27.3708 51.127 27.3927C51.1202 27.4147 51.1086 27.4349 51.0932 27.452C51.0752 27.4597 51.0558 27.4637 51.0362 27.4637C51.0166 27.4637 50.9972 27.4597 50.9792 27.452C50.8432 27.4256 50.7204 27.3555 50.5845 27.3423C50.4255 27.3438 50.2719 27.4007 50.1503 27.5031C50.0286 27.6056 49.9465 27.7472 49.9179 27.9036C49.8662 28.2177 49.8827 28.5393 49.9662 28.8465C50.0477 29.1539 50.0385 29.4782 49.9399 29.7805C49.8348 29.9791 49.6969 30.1585 49.532 30.3112C49.0564 30.7544 48.7469 31.3471 48.655 31.9907C48.6292 32.3018 48.7129 32.612 48.8918 32.8678C48.9836 32.9941 49.1067 33.0944 49.2488 33.159C49.391 33.2235 49.5475 33.2501 49.7031 33.2362C50.431 33.1397 50.6854 32.1179 51.3782 31.8767C52.0711 31.6355 52.8473 30.8199 53.2946 30.1752C53.6542 29.6578 54.005 29.057 54.6102 28.8596C54.8094 28.8173 55.0014 28.7464 55.1803 28.6491C55.2993 28.5563 55.3978 28.4398 55.4697 28.3071C55.7203 27.9376 55.914 27.5326 56.0442 27.1055C56.2635 26.2635 56.0442 25.3163 56.452 24.5401C56.5685 24.3175 56.7306 24.1219 56.9279 23.9662C57.1251 23.8105 57.353 23.6983 57.5966 23.6367C57.8027 23.5841 58.0351 23.571 58.2237 23.514C58.4622 23.4451 58.6875 23.3369 58.8903 23.1938C59.157 23.0404 59.3865 22.83 59.5624 22.5775C59.7383 22.3251 59.8562 22.0369 59.9076 21.7335C59.9471 21.1152 59.3902 20.5627 58.8464 20.3522Z" fill="#FF681C"/>
<path d="M60.64 21.3915C60.8591 21.476 61.0409 21.636 61.1526 21.8426C61.2643 22.0492 61.2987 22.2888 61.2496 22.5185C61.1745 22.7042 61.0626 22.8728 60.9207 23.014L60.1269 23.8911L59.798 22.672C59.764 22.4432 59.6507 22.2337 59.4779 22.08C59.3651 22.0153 59.2373 21.9813 59.1073 21.9813C58.9773 21.9813 58.8496 22.0153 58.7368 22.08C58.5044 22.1984 58.2982 22.3825 58.0921 22.5185C58.0351 22.5536 57.9562 22.593 57.8948 22.558C57.8334 22.5229 57.8246 22.3957 57.8553 22.308C58.2325 21.2643 59.6752 20.9749 60.64 21.3915Z" fill="#FF681C"/>
<path d="M61.1794 54.3821C61.2034 54.7926 61.34 55.1885 61.5741 55.5266C61.9293 55.9651 62.5213 56.1844 63.0124 56.5045C63.063 56.5302 63.1073 56.5667 63.1422 56.6114C63.177 56.6561 63.2016 56.708 63.2142 56.7633C63.2113 56.8167 63.1926 56.8681 63.1607 56.911C63.1287 56.9539 63.0847 56.9864 63.0344 57.0045C62.9303 57.0339 62.8213 57.0413 62.7142 57.0264C62.2133 56.9478 61.7081 56.8994 61.2013 56.8817C60.947 56.8817 60.6531 56.908 60.4909 56.7106C60.3864 56.5434 60.3503 56.3424 60.39 56.1493C60.4349 55.424 60.3759 54.696 60.2146 53.9874C60.1608 53.8145 60.1415 53.6327 60.1576 53.4524C60.174 53.369 60.2119 53.2913 60.2677 53.2271C60.3234 53.1629 60.395 53.1145 60.4752 53.0865C60.5555 53.0586 60.6417 53.0522 60.7252 53.0679C60.8088 53.0836 60.8867 53.1209 60.9513 53.1761C61.2408 53.4261 61.1443 54.0444 61.1794 54.3821Z" fill="#FCBDBA"/>
<path d="M53.0666 57.0965C53.0071 57.5032 53.0587 57.9183 53.2157 58.2981C53.4744 58.82 54.0138 59.1313 54.4304 59.5435C54.4756 59.578 54.5121 59.6225 54.5373 59.6735C54.5624 59.7244 54.5753 59.7805 54.5752 59.8374C54.5622 59.889 54.5339 59.9355 54.494 59.9708C54.4541 60.006 54.4044 60.0283 54.3515 60.0347C54.2446 60.0457 54.1366 60.0322 54.0358 59.9952C53.5592 59.8213 53.0731 59.6749 52.5799 59.5567C52.3299 59.5128 52.0361 59.469 51.9177 59.2497C51.8458 59.0665 51.8458 58.8629 51.9177 58.6796C52.1081 57.9767 52.1967 57.2501 52.1808 56.5221C52.163 56.342 52.1809 56.1602 52.2334 55.9871C52.2664 55.9087 52.3193 55.8404 52.3869 55.7889C52.4544 55.7373 52.5343 55.7044 52.6186 55.6933C52.7028 55.6822 52.7885 55.6933 52.8671 55.7257C52.9457 55.758 53.0145 55.8103 53.0666 55.8774C53.3166 56.1713 53.0973 56.7589 53.0666 57.0965Z" fill="#FCBDBA"/>
<path d="M51.4705 37.3627C51.4705 37.3627 55.654 43.5723 58.3948 45.4273C58.3422 46.0482 58.3554 46.6729 58.4343 47.291C58.5746 48.2953 59.0614 49.1767 59.2193 50.1634L59.7455 53.4831C59.7674 53.6322 59.8113 53.812 59.956 53.8646C60.043 53.8924 60.1365 53.8924 60.2235 53.8646L61.3812 53.5488C61.3118 51.5542 61.3542 49.5572 61.5084 47.5673C61.6033 46.7625 61.6239 45.9508 61.5698 45.1422C61.3768 43.3881 59.9385 41.8226 58.9386 40.4149C58.3378 39.5641 57.6932 38.2924 56.8512 37.6478C56.1496 37.1128 55.1585 37.3671 54.277 37.4548C53.616 37.5179 52.9491 37.4705 52.3037 37.3145C52.1717 37.2527 52.0264 37.2247 51.881 37.2331C51.7355 37.2416 51.5944 37.2861 51.4705 37.3627Z" fill="#473F47"/>
<path d="M49.8784 37.3233C49.8784 37.3233 51.5054 44.6335 53.3867 47.3612C53.1133 47.9227 52.8973 48.5104 52.742 49.1153C52.6382 49.6105 52.578 50.1138 52.5622 50.6195L52.1851 56.7238C52.7681 56.7544 53.3518 56.6801 53.9085 56.5045L56.0485 51.1238C56.4572 50.2666 56.6983 49.3393 56.7589 48.3917C56.7589 46.5587 55.0048 39.8667 54.7987 39.5291C54.3383 38.7704 53.3253 38.652 52.4745 38.4064C51.8357 38.2258 51.2322 37.9382 50.6897 37.5557C50.4222 37.389 50.181 37.2268 49.8784 37.3233Z" fill="#473F47"/>
<path d="M64.8982 31.6311C65.7898 32.0425 66.7792 32.1945 67.7531 32.0697C68.0387 31.991 68.3381 31.976 68.6301 32.0258C68.5029 32.2056 68.3802 32.4643 68.56 32.6178C68.615 32.6538 68.6785 32.675 68.7441 32.6792C68.9806 32.7097 69.221 32.6842 69.4458 32.6047C69.5519 32.552 69.6694 32.5264 69.7878 32.5301C69.8923 32.5561 69.9823 32.6223 70.0381 32.7143C70.094 32.8063 70.1112 32.9166 70.086 33.0213C70.0239 33.2301 69.8864 33.4083 69.7001 33.5212C69.399 33.7207 69.0501 33.8364 68.6894 33.8564C68.3287 33.8764 67.9692 33.8001 67.6478 33.6352C67.4636 33.5344 67.2926 33.4072 67.104 33.3063C66.7413 33.141 66.3577 33.0259 65.9639 32.9643C64.811 32.7256 63.6778 32.4002 62.574 31.9907C62.4068 31.9509 62.2494 31.8775 62.1115 31.775C61.9735 31.6725 61.8578 31.543 61.7715 31.3943C61.5479 30.8418 61.9601 29.9165 62.6179 30.2761C63.3809 30.719 64.0694 31.2891 64.8982 31.6311Z" fill="#FCBDBA"/>
<path d="M59.4517 28.4825C60.754 29.3338 62.2066 29.9292 63.7318 30.2366C63.7976 30.2366 63.8765 30.2805 63.894 30.3462C63.9011 30.391 63.89 30.4368 63.8633 30.4734C63.5519 31.1004 63.1581 31.6829 62.6925 32.2056C62.6425 32.2719 62.578 32.3259 62.5039 32.3635C62.431 32.3848 62.3546 32.3912 62.2792 32.3821C62.2039 32.3731 62.1311 32.3488 62.0654 32.3109C61.0801 31.9162 60.1154 31.4777 59.1711 30.9953C58.3307 30.6267 57.582 30.0771 56.9784 29.3859C56.6774 29.0272 56.4991 28.5815 56.4697 28.1141C56.4697 27.5967 56.9433 26.667 57.5968 26.9213C57.8906 27.0353 58.1493 27.3993 58.3729 27.6054C58.7142 27.9196 59.0745 28.2125 59.4517 28.4825Z" fill="#7064E1"/>
<path d="M59.4517 28.4825C60.754 29.3338 62.2066 29.9292 63.7318 30.2366C63.7976 30.2366 63.8765 30.2805 63.894 30.3462C63.9011 30.391 63.89 30.4368 63.8633 30.4734C63.5519 31.1004 63.1581 31.6829 62.6925 32.2056C62.6425 32.2719 62.578 32.3259 62.5039 32.3635C62.431 32.3848 62.3546 32.3912 62.2792 32.3821C62.2039 32.3731 62.1311 32.3488 62.0654 32.3109C61.0801 31.9162 60.1154 31.4777 59.1711 30.9953C58.3307 30.6267 57.582 30.0771 56.9784 29.3859C56.6774 29.0272 56.4991 28.5815 56.4697 28.1141C56.4697 27.5967 56.9433 26.667 57.5968 26.9213C57.8906 27.0353 58.1493 27.3993 58.3729 27.6054C58.7142 27.9196 59.0745 28.2125 59.4517 28.4825Z" fill="url(#paint2_linear)"/>
<path d="M77.8086 25.8689C78.0428 26.1643 78.1827 26.5235 78.2099 26.8996C78.2371 27.2756 78.1503 27.6512 77.961 27.9773C77.7717 28.3034 77.4886 28.5649 77.1485 28.7278C76.8084 28.8906 76.4272 28.9473 76.0544 28.8903C76.0544 28.8903 73.9802 28.9386 74.4494 30.8944L78.3962 35.92L73.3706 39.8667C71.4148 40.336 71.3666 38.2617 71.3666 38.2617C71.4202 37.8894 71.361 37.5095 71.1966 37.1711C71.0322 36.8328 70.7701 36.5515 70.4442 36.3636C70.1183 36.1757 69.7436 36.0898 69.3684 36.117C68.9932 36.1442 68.6347 36.2833 68.3394 36.5163C68.044 36.7493 67.8253 37.0655 67.7114 37.424C67.5976 37.7825 67.5938 38.167 67.7007 38.5277C67.8075 38.8884 68.02 39.2088 68.3108 39.4475C68.6015 39.6861 68.9572 39.8322 69.3318 39.8667C71.1166 40.4544 70.4237 42.1909 70.4237 42.1909L65.3982 46.1377L55.1848 33.1704L60.1621 29.2236C62.118 28.7544 62.1662 30.8286 62.1662 30.8286C62.1196 31.1362 62.1502 31.4504 62.2552 31.7432C62.3602 32.036 62.5363 32.298 62.7677 32.5059C62.9991 32.7137 63.2785 32.8608 63.5808 32.9339C63.8831 33.007 64.1988 33.0039 64.4996 32.9247C64.8004 32.8456 65.0768 32.6929 65.304 32.4805C65.5311 32.268 65.7019 32.0025 65.801 31.7076C65.9001 31.4128 65.9244 31.098 65.8717 30.7915C65.819 30.485 65.6909 30.1963 65.499 29.9516C65.3391 29.7505 65.14 29.5839 64.9139 29.4618C64.6878 29.3397 64.4393 29.2646 64.1834 29.2412C62.4162 28.6579 63.109 26.9038 63.109 26.9038L68.1828 22.9L72.1296 27.9299C72.1296 27.9299 73.8837 28.6228 74.4538 26.838C74.4915 26.4643 74.6401 26.1103 74.8807 25.8218C75.1212 25.5333 75.4426 25.3234 75.8035 25.2191C76.1644 25.1149 76.5482 25.1211 76.9056 25.2368C77.2629 25.3526 77.5774 25.5728 77.8086 25.8689Z" fill="#7064E1"/>
<path d="M77.8086 25.8689C78.0428 26.1643 78.1827 26.5235 78.2099 26.8996C78.2371 27.2756 78.1503 27.6512 77.961 27.9773C77.7717 28.3034 77.4886 28.5649 77.1485 28.7278C76.8084 28.8906 76.4272 28.9473 76.0544 28.8903C76.0544 28.8903 73.9802 28.9386 74.4494 30.8944L78.3962 35.92L73.3706 39.8667C71.4148 40.336 71.3666 38.2617 71.3666 38.2617C71.4202 37.8894 71.361 37.5095 71.1966 37.1711C71.0322 36.8328 70.7701 36.5515 70.4442 36.3636C70.1183 36.1757 69.7436 36.0898 69.3684 36.117C68.9932 36.1442 68.6347 36.2833 68.3394 36.5163C68.044 36.7493 67.8253 37.0655 67.7114 37.424C67.5976 37.7825 67.5938 38.167 67.7007 38.5277C67.8075 38.8884 68.02 39.2088 68.3108 39.4475C68.6015 39.6861 68.9572 39.8322 69.3318 39.8667C71.1166 40.4544 70.4237 42.1909 70.4237 42.1909L65.3982 46.1377L55.1848 33.1704L60.1621 29.2236C62.118 28.7544 62.1662 30.8286 62.1662 30.8286C62.1196 31.1362 62.1502 31.4504 62.2552 31.7432C62.3602 32.036 62.5363 32.298 62.7677 32.5059C62.9991 32.7137 63.2785 32.8608 63.5808 32.9339C63.8831 33.007 64.1988 33.0039 64.4996 32.9247C64.8004 32.8456 65.0768 32.6929 65.304 32.4805C65.5311 32.268 65.7019 32.0025 65.801 31.7076C65.9001 31.4128 65.9244 31.098 65.8717 30.7915C65.819 30.485 65.6909 30.1963 65.499 29.9516C65.3391 29.7505 65.14 29.5839 64.9139 29.4618C64.6878 29.3397 64.4393 29.2646 64.1834 29.2412C62.4162 28.6579 63.109 26.9038 63.109 26.9038L68.1828 22.9L72.1296 27.9299C72.1296 27.9299 73.8837 28.6228 74.4538 26.838C74.4915 26.4643 74.6401 26.1103 74.8807 25.8218C75.1212 25.5333 75.4426 25.3234 75.8035 25.2191C76.1644 25.1149 76.5482 25.1211 76.9056 25.2368C77.2629 25.3526 77.5774 25.5728 77.8086 25.8689Z" fill="url(#paint3_linear)"/>
<path d="M61.2013 37.3057C62.2757 38.1828 63.3939 39.1256 64.7095 39.3536C64.9626 39.4103 65.2245 39.4159 65.4798 39.3699C65.7351 39.324 65.9786 39.2275 66.1961 39.0861C66.2712 39.0415 66.3323 38.9768 66.3726 38.8993C66.4128 38.8219 66.4307 38.7347 66.4241 38.6476C66.3759 38.4327 66.1128 38.3582 65.8979 38.3187C64.8929 38.1813 63.9278 37.8347 63.065 37.3013C62.745 37.0748 62.4416 36.8257 62.1572 36.5558L60.0216 34.6526C59.9955 34.6209 59.9627 34.5954 59.9256 34.5779C59.8884 34.5605 59.8478 34.5515 59.8067 34.5518C59.719 34.5518 59.6664 34.6526 59.6269 34.7315C59.4945 35.0009 59.3944 35.285 59.3287 35.5779C59.263 35.898 59.3287 35.9419 59.605 36.1261C60.1576 36.5003 60.6896 36.8935 61.2013 37.3057Z" fill="url(#paint4_linear)"/>
<path d="M62.1924 35.7007C62.9355 36.3509 63.8479 36.7767 64.8236 36.9286C65.1138 36.9325 65.3997 36.9999 65.6612 37.1259C65.4814 37.2619 65.2884 37.4943 65.4244 37.6741C65.468 37.7241 65.5239 37.7619 65.5866 37.7837C65.8052 37.877 66.0422 37.919 66.2795 37.9065C66.3969 37.8886 66.5169 37.8976 66.6303 37.9328C66.6761 37.9595 66.7162 37.9951 66.7483 38.0373C66.7804 38.0796 66.8038 38.1277 66.8173 38.1791C66.8307 38.2304 66.8339 38.2839 66.8267 38.3364C66.8194 38.389 66.8019 38.4396 66.775 38.4854C66.6605 38.6711 66.478 38.8049 66.2663 38.8581C65.9219 38.9667 65.5547 38.9809 65.2029 38.8991C64.8512 38.8173 64.5278 38.6426 64.2666 38.3933C64.1132 38.2442 63.986 38.0731 63.8281 37.9284C63.5264 37.6681 63.1899 37.4511 62.8283 37.2838C61.7882 36.7312 60.7914 36.1008 59.8463 35.3981C59.6971 35.3135 59.5665 35.1995 59.4625 35.0631C59.3585 34.9267 59.2832 34.7706 59.2411 34.6044C59.1797 34.008 59.8331 33.2318 60.3681 33.7668C60.9908 34.3983 61.4951 35.1218 62.1924 35.7007Z" fill="#FCBDBA"/>
<path d="M49.8785 38.2617C49.9571 38.3558 50.0561 38.4308 50.168 38.481C50.6092 38.7327 51.0679 38.9525 51.5406 39.1388C52.7687 39.5784 54.113 39.5675 55.3338 39.1081C55.8223 38.9322 56.2808 38.6823 56.6933 38.367C56.8498 38.2604 56.9814 38.1213 57.0792 37.9591C57.1956 37.6947 57.2322 37.4021 57.1844 37.1171C57.0748 35.6393 56.9126 34.1132 57.1844 32.6792C57.2718 32.1866 57.4191 31.7065 57.623 31.2496C57.9781 30.6261 58.2718 29.9696 58.5 29.2894C58.5783 28.8714 58.5642 28.4413 58.4589 28.0292C58.3537 27.6172 58.1596 27.2331 57.8905 26.9038C57.3204 26.1758 56.2767 25.5312 55.3558 25.8601C54.292 26.2609 53.3695 26.9654 52.7027 27.8861C51.9756 28.9171 51.3997 30.0468 50.9924 31.2408C50.817 31.7101 50.646 32.1793 50.51 32.6617C50.2197 33.8286 50.0319 35.0186 49.9487 36.2182C49.9005 36.7181 49.8566 37.218 49.804 37.7179C49.7626 37.9023 49.7891 38.0953 49.8785 38.2617Z" fill="#7064E1"/>
<path d="M55.3338 39.1081C55.8223 38.9322 56.2808 38.6823 56.6933 38.367C56.8498 38.2604 56.9814 38.1213 57.0792 37.9591C57.1956 37.6947 57.2321 37.4021 57.1844 37.1171C57.0748 35.6393 56.9125 34.1132 57.1844 32.6792C57.009 32.5038 56.8117 32.3459 56.6187 32.1881C56.1802 31.8285 55.5487 31.1181 54.9128 31.1663C55.0663 31.8372 55.1891 32.5214 55.2812 33.2055C55.3733 33.8896 55.3382 34.6 55.4478 35.2753C55.5933 36.4703 55.5652 37.68 55.3645 38.8669C55.3459 38.946 55.3356 39.0268 55.3338 39.1081Z" fill="url(#paint5_linear)"/>
<path d="M60.6707 33.3984C60.705 33.4159 60.7354 33.44 60.7603 33.4694C60.7851 33.4987 60.8039 33.5327 60.8154 33.5694C60.8167 33.6423 60.7901 33.713 60.7409 33.7668C60.3424 34.3291 59.8427 34.8124 59.2674 35.192C59.2119 35.2361 59.145 35.2635 59.0745 35.2709C58.9936 35.2623 58.9179 35.2268 58.8596 35.1701C57.9825 34.4991 57.1055 33.8545 56.2503 33.1528C55.6973 32.7604 55.2091 32.284 54.8032 31.7408C54.505 31.2505 54.2776 30.7204 54.1279 30.1665C53.606 28.522 55.1847 27.8072 56.2416 29.0131C57.6361 30.6094 58.9078 32.1661 60.6707 33.3984Z" fill="#7064E1"/>
<path d="M60.4559 56.772C60.4331 56.7176 60.4251 56.658 60.4328 56.5995C60.4405 56.5409 60.4636 56.4854 60.4998 56.4388C60.5963 56.3467 60.7541 56.3905 60.8769 56.4388C61.1481 56.5703 61.4316 56.6745 61.7233 56.7501C62.0171 56.8274 62.329 56.7947 62.6004 56.658C62.7495 56.5703 62.8942 56.4388 63.0652 56.4519C63.1513 56.4648 63.2336 56.4962 63.3064 56.544C63.5697 56.6805 63.8521 56.7766 64.144 56.8291C64.2668 56.8395 64.3854 56.8785 64.4904 56.9431C64.5222 56.9654 64.5454 56.9979 64.5562 57.0352C64.5562 57.1229 64.4729 57.1887 64.3896 57.2193C63.4774 57.5746 62.4556 57.443 61.4821 57.3377C61.373 57.3224 61.2623 57.3224 61.1532 57.3377C60.991 57.3684 60.7936 57.4518 60.6577 57.3377C60.5413 57.1705 60.4716 56.9752 60.4559 56.772Z" fill="#473F47"/>
<path d="M51.7948 59.2717C51.7805 59.2149 51.7807 59.1555 51.7952 59.0988C51.8098 59.0421 51.8383 58.99 51.8781 58.9472C51.9877 58.8682 52.1368 58.9471 52.2552 58.9954C52.51 59.1575 52.7786 59.2969 53.0578 59.412C53.3406 59.5172 53.6519 59.5172 53.9348 59.412C54.0927 59.3462 54.2506 59.2322 54.4216 59.2673C54.5046 59.2916 54.582 59.3318 54.6496 59.3857C54.8911 59.5625 55.159 59.7002 55.4434 59.7935C55.5655 59.8188 55.6797 59.8729 55.7766 59.9514C55.7908 59.9633 55.8024 59.978 55.8107 59.9946C55.819 60.0112 55.8238 60.0293 55.8249 60.0479C55.8249 60.1356 55.7284 60.1882 55.6407 60.2101C54.6891 60.4513 53.6936 60.2101 52.742 59.9689C52.6351 59.9379 52.5244 59.9217 52.4131 59.9207C52.2509 59.9207 52.0447 59.9909 51.922 59.8418C51.8331 59.6651 51.7895 59.4693 51.7948 59.2717Z" fill="#473F47"/>
<path d="M59.9165 24.3998C59.8419 24.641 59.7674 24.8822 59.706 25.1277C59.6364 25.494 59.5396 25.8546 59.4165 26.2065C59.354 26.382 59.2542 26.5419 59.124 26.6752C58.9938 26.8084 58.8363 26.9118 58.6623 26.9783C58.4848 27.0351 58.2923 27.0211 58.1248 26.9394C57.9573 26.8577 57.8278 26.7146 57.7633 26.5398C57.5528 26.588 57.4782 26.8468 57.4826 27.066C57.5179 27.2806 57.4776 27.5007 57.3686 27.6888C57.1713 27.9212 56.7853 27.8247 56.5266 27.6581C56.1349 27.3941 55.8304 27.0198 55.6516 26.5827C55.4728 26.1455 55.4279 25.6651 55.5224 25.2023C55.7373 24.2244 55.7285 23.0535 56.2854 22.2071C56.4855 21.9215 56.7404 21.6786 57.0353 21.4923C57.2937 21.3031 57.5951 21.1811 57.9124 21.1371C58.1345 21.1241 58.3573 21.1418 58.5746 21.1897C59.5042 21.3476 60.2936 21.4836 60.298 22.5492C60.2694 23.1823 60.1407 23.807 59.9165 24.3998Z" fill="#FCBDBA"/>
<path d="M58.7719 22.6764C58.6272 22.6764 58.4606 22.6413 58.3334 22.729C58.2062 22.8167 58.1974 23.014 58.1185 23.1675C57.965 23.4526 57.5747 23.492 57.2809 23.6411C57.1029 23.7364 56.9547 23.8789 56.8526 24.053C56.7505 24.2271 56.6984 24.426 56.7021 24.6278C56.7077 24.4987 56.6757 24.3707 56.61 24.2595C56.5924 24.2331 56.5697 24.2106 56.5432 24.1933C56.5166 24.1761 56.4868 24.1644 56.4556 24.1591C56.4244 24.1537 56.3924 24.1548 56.3617 24.1623C56.3309 24.1697 56.302 24.1834 56.2767 24.2024C56.2371 24.2493 56.214 24.3078 56.2109 24.3691C56.199 24.4943 56.2193 24.6205 56.27 24.7357C56.3206 24.8508 56.3999 24.9511 56.5003 25.0269C56.4093 25.2149 56.2663 25.373 56.0884 25.4826C55.9105 25.5921 55.705 25.6486 55.4961 25.6452C55.3641 25.6484 55.2352 25.6049 55.1321 25.5224C55.0672 25.4557 55.0192 25.3745 54.9918 25.2856C54.7418 24.584 55.1233 23.8341 55.2154 23.093C55.2242 22.8313 55.267 22.5718 55.3426 22.3212C55.4239 22.1441 55.5352 21.9824 55.6715 21.8432C56.0809 21.3516 56.6227 20.9878 57.2327 20.7951C57.8203 20.6328 58.9868 20.7161 59.4473 21.181C59.5517 21.314 59.6178 21.4731 59.6381 21.641C59.6585 21.8089 59.6325 21.9792 59.5629 22.1334C59.4933 22.2875 59.3827 22.4197 59.2433 22.5154C59.1038 22.6111 58.9408 22.6668 58.7719 22.6764Z" fill="#FF681C"/>
<path d="M58.5132 89.2495V81.0447C59.592 78.7029 61.7188 80.2992 61.7188 80.2992C62.0509 80.6471 62.4795 80.8877 62.9495 80.9898C63.4195 81.0919 63.9094 81.0509 64.3558 80.872C64.8023 80.6932 65.185 80.3847 65.4545 79.9864C65.7241 79.588 65.8682 79.1181 65.8682 78.6371C65.8682 78.1562 65.7241 77.6862 65.4545 77.2879C65.185 76.8895 64.8023 76.5811 64.3558 76.4022C63.9094 76.2234 63.4195 76.1824 62.9495 76.2845C62.4795 76.3866 62.0509 76.6271 61.7188 76.9751C59.7104 78.2907 58.5132 76.2296 58.5132 76.2296V68.0203H66.7181C66.7181 68.0203 68.7967 66.8231 67.4636 64.8147C67.1156 64.4826 66.8751 64.054 66.773 63.584C66.6708 63.114 66.7119 62.6242 66.8907 62.1777C67.0695 61.7312 67.378 61.3485 67.7763 61.079C68.1747 60.8094 68.6446 60.6654 69.1256 60.6654C69.6066 60.6654 70.0765 60.8094 70.4749 61.079C70.8732 61.3485 71.1817 61.7312 71.3605 62.1777C71.5393 62.6242 71.5804 63.114 71.4783 63.584C71.3761 64.054 71.1356 64.4826 70.7876 64.8147C70.7876 64.8147 69.1914 66.9415 71.5331 68.0203H79.738V89.2495H58.5132Z" fill="url(#paint6_linear)"/>
<path d="M42.792 88.811H41.3098L56.4829 48.7469C56.534 48.6176 56.6228 48.5066 56.7377 48.4284C56.8527 48.3502 56.9885 48.3084 57.1276 48.3084C57.2398 48.3082 57.3505 48.3353 57.4499 48.3874C57.5494 48.4394 57.6347 48.5148 57.6986 48.6072C57.7624 48.6995 57.8029 48.806 57.8165 48.9174C57.8301 49.0288 57.8164 49.1419 57.7766 49.2469L42.792 88.811Z" fill="#7064E1"/>
<path d="M51.681 88.811H50.1987L65.5385 48.2996H67.0207L51.681 88.811Z" fill="#7064E1"/>
<path d="M63.1441 54.6276H55.3032L55.6979 53.5839H63.5388L63.1441 54.6276Z" fill="#7064E1"/>
<path d="M60.732 60.9907H52.8911L53.2902 59.947H61.1311L60.732 60.9907Z" fill="#7064E1"/>
<path d="M58.3245 67.3538H50.4836L50.8783 66.3057H58.7192L58.3245 67.3538Z" fill="#7064E1"/>
<path d="M55.9171 73.7124H48.0762L48.4708 72.6687H56.3118L55.9171 73.7124Z" fill="#7064E1"/>
<path d="M53.5052 80.0755H45.6643L46.0634 79.0318H53.8999L53.5052 80.0755Z" fill="#7064E1"/>
<path d="M55.7374 54.6276L53.7202 59.947H61.1445L60.7498 60.9907H53.3387L51.3258 66.3057H58.7326L58.3379 67.3494H50.918L48.9051 72.6687H56.3207L55.926 73.7124H48.5105L46.4932 79.0318H53.9044L53.5053 80.0755H46.0986L42.792 88.811H41.3098L56.4829 48.747C56.5488 48.6095 56.6582 48.4976 56.7942 48.4286C56.9301 48.3596 57.085 48.3373 57.2349 48.3653C57.3848 48.3933 57.5212 48.4699 57.6231 48.5833C57.725 48.6967 57.7867 48.8405 57.7985 48.9925C57.7985 49.0763 57.7837 49.1595 57.7547 49.2381L56.1102 53.5839H63.5169L63.1223 54.6276H55.7374Z" fill="url(#paint7_linear)"/>
<path d="M51.681 88.811H50.1987L65.5385 48.2996H67.0207L51.681 88.811Z" fill="url(#paint8_linear)"/>
<path d="M125.218 54.1716C124.999 54.3569 124.736 54.4836 124.455 54.5399C124.196 54.5508 123.939 54.5043 123.701 54.404L120.052 53.1893C119.776 53.404 119.592 53.7152 119.537 54.0603C119.482 54.4053 119.559 54.7584 119.754 55.0486C120.111 55.4404 120.577 55.718 121.091 55.8467L123.595 56.7457C124.173 57.0157 124.804 57.1538 125.442 57.15C126.08 57.1462 126.709 57.0006 127.283 56.7238C128.029 56.4738 128.849 56.1625 129.208 55.4608C129.568 54.7592 129.305 53.8295 129.41 53.0095C129.549 52.4886 129.647 51.9579 129.704 51.422C129.704 50.9615 129.327 50.2686 128.779 50.3651C128.305 50.4484 127.989 51.2729 127.739 51.6193C127.035 52.5943 126.184 53.4551 125.218 54.1716Z" fill="white"/>
<path d="M119.596 52.9831C119.558 52.8845 119.5 52.7949 119.425 52.72C119.388 52.6825 119.341 52.6566 119.289 52.6457C119.238 52.6348 119.184 52.6393 119.136 52.6586C119.088 52.6881 119.049 52.7305 119.024 52.7809C118.999 52.8313 118.989 52.8878 118.995 52.9437C118.999 52.9635 118.998 52.9838 118.994 53.0034C118.989 53.023 118.981 53.0414 118.969 53.0577C118.943 53.084 118.894 53.0577 118.855 53.0577C118.443 52.9788 118.022 52.9174 117.601 52.8735C117.555 52.8645 117.509 52.8679 117.465 52.8833C117.422 52.8988 117.384 52.9257 117.354 52.9613C117.325 52.9969 117.306 53.0397 117.299 53.0853C117.292 53.1308 117.298 53.1774 117.316 53.2199C117.361 53.3596 117.431 53.4902 117.522 53.6059C117.737 53.9567 117.816 54.4171 118.158 54.6452C118.367 54.7675 118.61 54.8183 118.85 54.7899C119.092 54.7899 119.328 54.7329 119.57 54.746C119.729 54.7801 119.895 54.7617 120.043 54.6934C120.099 54.6521 120.142 54.5974 120.171 54.5345C120.199 54.4716 120.211 54.4026 120.206 54.3338C120.18 54.1172 120.103 53.9097 119.982 53.7286C119.846 53.4918 119.719 53.2375 119.596 52.9831Z" fill="#FDB9A9"/>
<path d="M129.77 80.4483C128.375 80.1325 128.647 82.1103 128.279 82.847C128.046 83.2254 127.749 83.5606 127.402 83.8381C127.06 84.1227 126.836 84.5245 126.775 84.9651C126.767 85.0471 126.783 85.1297 126.823 85.2019C126.894 85.2887 126.993 85.3477 127.104 85.3686C127.901 85.6014 128.757 85.5165 129.494 85.1318C129.838 84.9691 130.125 84.7042 130.314 84.3731C130.466 84.0161 130.538 83.6297 130.524 83.2417C130.568 82.4173 130.936 80.707 129.77 80.4483Z" fill="#FDB9A9"/>
<path d="M128.533 84.5266C128.533 84.5266 124.56 84.6976 126.244 85.943C127.928 87.1885 130.441 85.6404 130.686 85.3554C130.932 85.0704 130.73 84.5836 130.73 84.5836L128.533 84.5266Z" fill="#7064E1"/>
<path d="M130.511 85.0747C130.16 85.5133 128.292 86.0877 127.463 86.0264C126.634 85.965 125.893 85.5878 125.977 85.0484C126.06 84.509 127.516 83.268 127.792 83.2724C128.068 83.2768 128.283 83.9126 128.836 84.0442C129.083 84.0851 129.336 84.0623 129.572 83.9779C129.807 83.8935 130.017 83.7502 130.182 83.5618C130.231 83.4959 130.301 83.4484 130.381 83.427C130.46 83.4055 130.545 83.4113 130.621 83.4434C130.736 83.7038 130.787 83.9884 130.768 84.2726C130.748 84.5569 130.66 84.8322 130.511 85.0747Z" fill="white"/>
<path d="M134.563 81.2288C133.168 80.9043 133.44 82.8865 133.072 83.6188C132.839 83.9985 132.542 84.3353 132.195 84.6143C131.853 84.8973 131.63 85.2976 131.568 85.7369C131.561 85.8203 131.577 85.904 131.616 85.9781C131.688 86.0635 131.787 86.1222 131.897 86.1447C132.694 86.3757 133.55 86.2909 134.287 85.9079C134.631 85.7423 134.917 85.4763 135.107 85.1449C135.259 84.7893 135.331 84.4045 135.317 84.0179C135.361 83.1847 135.73 81.4788 134.563 81.2288Z" fill="#FDB9A9"/>
<path d="M133.326 85.2896C133.326 85.2896 129.353 85.4563 131.037 86.7105C132.721 87.9646 135.234 86.4035 135.48 86.1184C135.725 85.8334 135.523 85.3466 135.523 85.3466L133.326 85.2896Z" fill="#7064E1"/>
<path d="M135.304 85.829C134.953 86.2675 133.085 86.8464 132.256 86.785C131.427 86.7236 130.686 86.3465 130.77 85.8071C130.853 85.2677 132.309 84.0267 132.585 84.053C132.861 84.0793 133.076 84.6932 133.629 84.8204C133.875 84.8623 134.129 84.8403 134.364 84.7567C134.6 84.673 134.81 84.5304 134.975 84.3424C135.024 84.2759 135.094 84.2279 135.174 84.2064C135.253 84.1849 135.338 84.1911 135.414 84.224C135.525 84.4809 135.573 84.7606 135.554 85.0398C135.535 85.319 135.449 85.5896 135.304 85.829Z" fill="white"/>
<path d="M130.963 63.1921L132.831 82.8558L135.523 82.5225C136.589 77.725 136.326 63.3719 136.326 63.3719L130.963 63.1921Z" fill="#473F47"/>
<path d="M132.831 62.6615L130.963 82.3208L128.261 81.9875C126.722 69.5508 127.994 61.8151 127.994 61.8151L132.831 62.6615Z" fill="#473F47"/>
<path d="M128.24 55.5529C128.204 55.1933 128.108 54.8337 128.073 54.4654C127.985 53.7244 127.998 52.975 128.112 52.2376C128.239 51.4509 128.477 50.6861 128.818 49.9661C129.125 49.3433 129.695 49.089 130.318 48.7645C130.848 48.4797 131.421 48.2856 132.015 48.19C132.433 48.1518 132.854 48.1755 133.265 48.2602C134.537 48.5014 136.208 49.1372 137.076 50.159C137.729 50.9089 137.804 51.9877 137.826 52.9831C137.852 54.3557 137.826 55.7283 137.738 57.1009C137.738 57.2983 137.716 57.4956 137.699 57.6973C137.628 59.2243 137.397 60.7397 137.01 62.2186C136.938 62.6806 136.687 63.0961 136.313 63.3763C135.317 63.9552 133.8 63.635 132.726 63.4859C131.3 63.2842 129.84 63.0737 128.577 62.3808C128.315 62.2684 128.103 62.0641 127.981 61.8064C127.918 61.4818 127.959 61.1456 128.099 60.846C128.538 59.4427 128.196 57.9648 128.196 56.5308C128.196 56.2721 128.226 56.009 128.226 55.7459C128.24 55.6845 128.24 55.6187 128.24 55.5529Z" fill="white"/>
<path d="M132.712 58.092C133.05 58.3023 133.423 58.4508 133.813 58.5305C134.975 58.8682 136.168 59.048 137.321 59.4076C137.4 59.4228 137.473 59.4592 137.532 59.5128C137.579 59.5856 137.601 59.672 137.593 59.7584C137.599 60.0962 137.548 60.4325 137.444 60.7539C137.41 60.9144 137.318 61.0566 137.185 61.1529C137.017 61.2143 136.832 61.2143 136.664 61.1529L132.318 60.232C132.007 60.1526 131.687 60.1143 131.366 60.118C130.986 60.1623 130.613 60.2551 130.257 60.3943C129.59 60.6077 128.904 60.7546 128.209 60.8328C128.246 60.0033 128.347 59.1778 128.511 58.3639C128.575 58.1233 128.666 57.8908 128.783 57.671C128.923 57.454 129.088 57.2538 129.274 57.0746C129.976 56.3423 130.463 55.4257 131.173 54.6934C131.546 54.3075 132.011 54.0619 132.34 53.6497C132.471 53.4831 133.611 52.0491 133.502 51.8956C133.721 52.1675 134.265 51.8956 134.462 52.1762C134.585 52.3517 134.462 52.5885 134.348 52.7683C133.508 54.1753 132.922 55.719 132.616 57.329C132.528 57.7017 132.397 57.8333 132.712 58.092Z" fill="url(#paint9_linear)"/>
<path d="M129.169 40.0904C129.572 40.3494 129.889 40.7229 130.079 41.163C130.268 41.603 130.322 42.0897 130.234 42.5607C130.145 43.0316 129.918 43.4655 129.582 43.8066C129.245 44.1478 128.814 44.3807 128.345 44.4757C128.345 44.4757 125.854 45.4141 127.253 47.5805L134.173 51.9877L129.787 58.9077C127.621 60.3066 126.683 57.8157 126.683 57.8157C126.588 57.3455 126.356 56.9142 126.014 56.5773C125.673 56.2405 125.238 56.0136 124.767 55.9257C124.295 55.8378 123.808 55.893 123.368 56.0842C122.929 56.2754 122.556 56.5938 122.299 56.9985C122.041 57.4033 121.911 57.8757 121.924 58.3552C121.938 58.8346 122.094 59.2991 122.374 59.6888C122.653 60.0785 123.043 60.3757 123.493 60.542C123.943 60.7084 124.432 60.7364 124.898 60.6223C127.31 60.5741 127.204 62.9728 127.204 62.9728L122.819 69.8928L104.91 58.4911L109.273 51.6325C111.439 50.2379 112.378 52.7244 112.378 52.7244C112.471 53.1964 112.703 53.6298 113.044 53.9686C113.386 54.3074 113.821 54.5361 114.294 54.6253C114.767 54.7144 115.255 54.6599 115.697 54.4688C116.138 54.2776 116.512 53.9586 116.771 53.5528C117.029 53.1471 117.16 52.6732 117.147 52.1923C117.133 51.7114 116.976 51.2456 116.695 50.8549C116.415 50.4642 116.023 50.1665 115.572 50.0003C115.121 49.834 114.63 49.8068 114.163 49.9222C111.751 49.9704 111.86 47.5717 111.86 47.5717L116.307 40.5815L123.231 44.9931C123.231 44.9931 125.63 45.0984 125.582 42.6865C125.505 42.3697 125.493 42.0407 125.546 41.7191C125.599 41.3975 125.715 41.0897 125.889 40.814C126.234 40.2906 126.77 39.9224 127.382 39.7873C127.995 39.6522 128.636 39.7609 129.169 40.0904Z" fill="#7064E1"/>
<path d="M139.847 54.268C140.027 54.581 140.174 54.9117 140.286 55.2547C140.428 55.8561 140.442 56.4803 140.33 57.0878C140.277 57.6832 140.063 58.2531 139.711 58.7367C138.97 59.6137 137.646 59.697 136.497 59.5874C135.193 59.467 133.905 59.2083 132.655 58.8156C132.539 58.7895 132.43 58.7386 132.335 58.6665C132.234 58.5519 132.165 58.4128 132.134 58.263C132.038 57.8996 131.975 57.5283 131.945 57.1536C133.261 56.7764 134.717 57.0834 136.089 56.8817C136.183 56.8813 136.275 56.8586 136.358 56.8154C136.441 56.7722 136.512 56.7099 136.566 56.6336C136.62 56.5572 136.655 56.4691 136.668 56.3765C136.682 56.2838 136.672 56.1894 136.642 56.1011C136.576 55.3293 136.098 54.6539 135.874 53.9084C135.655 53.191 135.674 52.4219 135.927 51.7158C136.002 51.4669 136.131 51.2373 136.303 51.0428C136.476 50.8483 136.689 50.6934 136.927 50.5888C137.475 50.409 137.685 50.8387 137.988 51.2422C138.685 52.2016 139.306 53.2132 139.847 54.268Z" fill="white"/>
<path d="M131.397 56.6624C131.345 56.6203 131.283 56.593 131.217 56.5835C131.167 56.5887 131.118 56.6073 131.078 56.6374C131.037 56.6675 131.005 56.7079 130.985 56.7545C130.946 56.849 130.902 56.9413 130.853 57.0308C130.787 57.1039 130.706 57.1612 130.615 57.1984C130.523 57.2356 130.425 57.2518 130.327 57.2457C130.13 57.2259 129.932 57.2259 129.735 57.2457C129.662 57.2606 129.594 57.2938 129.537 57.3421C129.484 57.3949 129.446 57.4618 129.428 57.5351C129.394 57.6841 129.399 57.839 129.44 57.986C129.481 58.133 129.558 58.2674 129.665 58.3771C129.879 58.5941 130.142 58.7566 130.432 58.8507C130.728 58.9814 131.056 59.021 131.375 58.9647C131.55 58.9139 131.717 58.8386 131.87 58.741L132.511 58.3858C132.564 58.3606 132.612 58.3248 132.651 58.2806C132.791 58.1052 132.598 57.5789 132.471 57.4035C132.151 57.1054 131.789 56.8557 131.397 56.6624Z" fill="#FDB9A9"/>
<path d="M130.967 46.1991C130.967 45.822 130.998 45.4404 131.037 45.0721C131.077 44.7037 131.125 44.4143 131.186 44.0898C131.191 43.9937 131.215 43.8997 131.259 43.8142C131.303 43.7286 131.365 43.6536 131.441 43.5942C131.948 43.2916 132.53 43.1395 133.12 43.1557C133.344 43.14 133.568 43.1709 133.778 43.2464C133.989 43.3218 134.181 43.4403 134.344 43.5942C134.542 43.8461 134.659 44.1517 134.681 44.4713C134.702 45.3013 134.619 46.1306 134.436 46.9402C134.343 47.576 134.309 48.219 134.335 48.861C134.024 49.0676 133.667 49.1941 133.296 49.2293C133.123 49.2277 132.951 49.1996 132.787 49.146C132.696 49.1253 132.615 49.0724 132.559 48.9969C132.539 48.9266 132.539 48.8523 132.559 48.782C132.563 48.7149 132.563 48.6475 132.559 48.5803C132.585 48.2047 132.577 47.8276 132.537 47.4533C132.538 47.437 132.535 47.4208 132.529 47.4056C132.523 47.3905 132.514 47.3769 132.502 47.3656C132.478 47.3569 132.452 47.3569 132.427 47.3656H132.322C132.136 47.3853 131.947 47.3853 131.761 47.3656C131.536 47.3436 131.328 47.2407 131.173 47.0762C130.995 46.8208 130.921 46.507 130.967 46.1991Z" fill="#FDB9A9"/>
<path d="M131.748 43.7959C131.616 43.7959 131.498 43.8661 131.384 43.7959C131.264 43.6971 131.16 43.5819 131.072 43.4539C130.863 43.176 130.76 42.832 130.783 42.4847C130.791 42.3276 130.843 42.1758 130.932 42.0462C131.029 41.9283 131.154 41.8364 131.296 41.7787C131.568 41.6448 131.871 41.5858 132.173 41.6077C132.611 41.6646 133.02 41.8597 133.34 42.1646C133.407 42.2349 133.489 42.2889 133.581 42.3225C133.665 42.3401 133.751 42.3401 133.835 42.3225C134.39 42.2758 134.942 42.4455 135.374 42.7961C135.62 43.011 135.813 43.2873 136.067 43.4758C136.322 43.6644 136.572 43.7346 136.703 43.9757C136.758 44.0878 136.78 44.2132 136.767 44.3373C136.754 44.4615 136.706 44.5794 136.629 44.6774C136.465 44.8697 136.241 44.9998 135.993 45.0458C136.02 45.1171 136.033 45.1932 136.03 45.2695C136.028 45.3458 136.01 45.4209 135.978 45.4903C135.946 45.5597 135.901 45.6221 135.845 45.6738C135.788 45.7254 135.722 45.7654 135.651 45.7913C135.549 45.8067 135.451 45.8393 135.361 45.8877C135.3 45.936 135.273 46.0105 135.212 46.0588C135.067 46.1772 134.879 46.2166 134.817 46.4184C134.799 46.5033 134.792 46.5903 134.795 46.6771C134.785 46.8057 134.732 46.9274 134.646 47.0235C134.589 47.0849 134.488 47.2384 134.405 47.256C134.322 47.2735 134.247 47.1726 134.221 47.0849C134.118 46.713 134.144 46.3173 134.296 45.9623C134.404 45.7909 134.467 45.5947 134.48 45.3922C134.48 45.1905 134.19 45.0326 134.041 45.151C133.892 45.2694 133.883 45.5545 133.725 45.4974C133.823 45.214 133.816 44.9048 133.705 44.6262C133.594 44.3477 133.386 44.1184 133.12 43.9801C132.825 43.8898 132.517 43.8468 132.208 43.853C132.064 43.8226 131.917 43.8064 131.77 43.8047L131.748 43.7959Z" fill="#473F47"/>
<path d="M132.322 47.3743C132.757 47.2914 133.184 47.1651 133.594 46.9972C133.631 47.3428 133.548 47.6906 133.358 47.9821C133.169 48.2736 132.885 48.491 132.554 48.5979C132.587 48.2229 132.587 47.8458 132.554 47.4708C132.554 47.4383 132.542 47.407 132.519 47.3831C132.495 47.3744 132.469 47.3744 132.445 47.3831H132.344L132.322 47.3743Z" fill="#DE9F93"/>
<path d="M118.592 50.5274C118.658 50.6227 118.701 50.7323 118.717 50.8474C118.733 50.9625 118.722 51.0797 118.684 51.1896C118.608 51.4091 118.497 51.615 118.355 51.7991L117.666 52.8165C117.487 53.0796 117.228 53.3778 116.925 53.3515C116.171 53.2989 115.838 51.343 116.118 50.7642C116.443 50.0406 118.096 49.909 118.592 50.5274Z" fill="#FDB9A9"/>
<path d="M122.144 68.0203V89.2495H100.919V81.0403C100.919 81.0403 102.116 78.9616 104.125 80.2948C104.457 80.6427 104.885 80.8833 105.355 80.9854C105.825 81.0875 106.315 81.0465 106.762 80.8677C107.208 80.6888 107.591 80.3803 107.86 79.982C108.13 79.5837 108.274 79.1137 108.274 78.6327C108.274 78.1518 108.13 77.6818 107.86 77.2835C107.591 76.8852 107.208 76.5767 106.762 76.3978C106.315 76.219 105.825 76.178 105.355 76.2801C104.885 76.3822 104.457 76.6227 104.125 76.9707C104.125 76.9707 101.998 78.567 100.919 76.2252V68.0203H109.124C111.466 66.9415 109.869 64.8147 109.869 64.8147C109.521 64.4826 109.281 64.054 109.179 63.584C109.077 63.114 109.118 62.6242 109.296 62.1777C109.475 61.7312 109.784 61.3485 110.182 61.079C110.58 60.8094 111.05 60.6654 111.531 60.6654C112.012 60.6654 112.482 60.8094 112.881 61.079C113.279 61.3485 113.587 61.7312 113.766 62.1777C113.945 62.6242 113.986 63.114 113.884 63.584C113.782 64.054 113.541 64.4826 113.193 64.8147C111.878 66.8231 113.939 68.0203 113.939 68.0203H122.144Z" fill="#7064E1"/>
<path d="M122.144 68.0203V89.2495H100.919V81.0403C100.919 81.0403 102.116 78.9616 104.125 80.2948C104.457 80.6427 104.885 80.8833 105.355 80.9854C105.825 81.0875 106.315 81.0465 106.762 80.8677C107.208 80.6888 107.591 80.3803 107.86 79.982C108.13 79.5837 108.274 79.1137 108.274 78.6327C108.274 78.1518 108.13 77.6818 107.86 77.2835C107.591 76.8852 107.208 76.5767 106.762 76.3978C106.315 76.219 105.825 76.178 105.355 76.2801C104.885 76.3822 104.457 76.6227 104.125 76.9707C104.125 76.9707 101.998 78.567 100.919 76.2252V68.0203H109.124C111.466 66.9415 109.869 64.8147 109.869 64.8147C109.521 64.4826 109.281 64.054 109.179 63.584C109.077 63.114 109.118 62.6242 109.296 62.1777C109.475 61.7312 109.784 61.3485 110.182 61.079C110.58 60.8094 111.05 60.6654 111.531 60.6654C112.012 60.6654 112.482 60.8094 112.881 61.079C113.279 61.3485 113.587 61.7312 113.766 62.1777C113.945 62.6242 113.986 63.114 113.884 63.584C113.782 64.054 113.541 64.4826 113.193 64.8147C111.878 66.8231 113.939 68.0203 113.939 68.0203H122.144Z" fill="url(#paint10_linear)"/>
<path d="M87.0529 57.4035C87.0514 57.8843 86.9064 58.3536 86.6363 58.7513C86.3662 59.149 85.9834 59.4569 85.5371 59.6356C85.0908 59.8142 84.6013 59.8554 84.1314 59.7538C83.6615 59.6522 83.2327 59.4126 82.9 59.0656C80.8915 57.75 79.6943 59.811 79.6943 59.811V68.0203H100.919V46.7911H79.6943V54.996C80.7731 57.3377 82.9 55.7415 82.9 55.7415C83.2327 55.3945 83.6615 55.1548 84.1314 55.0533C84.6013 54.9517 85.0908 54.9929 85.5371 55.1715C85.9834 55.3501 86.3662 55.658 86.6363 56.0557C86.9064 56.4535 87.0514 56.9228 87.0529 57.4035Z" fill="#7064E1"/>
<path d="M88.6447 71.226C88.2967 71.558 88.0561 71.9866 87.954 72.4567C87.8519 72.9267 87.8929 73.4165 88.0718 73.863C88.2506 74.3094 88.5591 74.6921 88.9574 74.9617C89.3558 75.2312 89.8257 75.3753 90.3067 75.3753C90.7877 75.3753 91.2576 75.2312 91.6559 74.9617C92.0543 74.6921 92.3628 74.3094 92.5416 73.863C92.7204 73.4165 92.7614 72.9267 92.6593 72.4567C92.5572 71.9866 92.3167 71.558 91.9687 71.226C91.9687 71.226 90.3725 69.0991 92.7142 68.0203H87.8948C87.8948 68.0203 89.9778 69.2175 88.6447 71.226Z" fill="#7064E1"/>
<path d="M79.6943 46.7911V54.996C80.7731 57.3377 82.9 55.7415 82.9 55.7415C83.232 55.3935 83.6607 55.153 84.1307 55.0509C84.6007 54.9488 85.0905 54.9898 85.537 55.1686C85.9835 55.3475 86.3661 55.6559 86.6357 56.0543C86.9052 56.4526 87.0493 56.9226 87.0493 57.4035C87.0493 57.8845 86.9052 58.3544 86.6357 58.7528C86.3661 59.1511 85.9835 59.4596 85.537 59.6384C85.0905 59.8173 84.6007 59.8583 84.1307 59.7562C83.6607 59.6541 83.232 59.4135 82.9 59.0655C80.8915 57.75 79.6943 59.811 79.6943 59.811V68.0203H87.8948C87.8948 68.0203 89.9735 69.2175 88.6403 71.226C88.2924 71.558 88.0518 71.9867 87.9497 72.4567C87.8476 72.9267 87.8886 73.4165 88.0675 73.863C88.2463 74.3094 88.5548 74.6921 88.9531 74.9617C89.3515 75.2312 89.8214 75.3753 90.3024 75.3753C90.7833 75.3753 91.2533 75.2312 91.6516 74.9617C92.05 74.6921 92.3584 74.3094 92.5373 73.863C92.7161 73.4165 92.7571 72.9267 92.655 72.4567C92.5529 71.9867 92.3124 71.558 91.9644 71.226C91.9644 71.226 90.3681 69.0991 92.7099 68.0203H100.919V46.7911H79.6943Z" fill="url(#paint11_linear)"/>
<path d="M79.6943 68.0203V89.2495H100.919V81.0403C100.919 81.0403 102.116 78.9616 104.125 80.2948C104.457 80.6427 104.886 80.8833 105.356 80.9854C105.826 81.0875 106.315 81.0465 106.762 80.8676C107.208 80.6888 107.591 80.3803 107.861 79.982C108.13 79.5837 108.274 79.1137 108.274 78.6327C108.274 78.1518 108.13 77.6818 107.861 77.2835C107.591 76.8851 107.208 76.5767 106.762 76.3978C106.315 76.219 105.826 76.178 105.356 76.2801C104.886 76.3822 104.457 76.6227 104.125 76.9707C104.125 76.9707 101.998 78.567 100.919 76.2252V68.0203H92.7187C90.3769 69.0991 91.9732 71.226 91.9732 71.226C92.3211 71.558 92.5617 71.9867 92.6638 72.4567C92.7659 72.9267 92.7249 73.4165 92.546 73.863C92.3672 74.3094 92.0587 74.6921 91.6604 74.9617C91.262 75.2312 90.7921 75.3753 90.3111 75.3753C89.8302 75.3753 89.3602 75.2312 88.9619 74.9617C88.5635 74.6921 88.2551 74.3094 88.0762 73.863C87.8974 73.4165 87.8564 72.9267 87.9585 72.4567C88.0606 71.9867 88.3011 71.558 88.6491 71.226C89.9647 69.2175 87.9036 68.0203 87.9036 68.0203H79.6943Z" fill="#7064E1"/>
<path d="M58.5132 89.2495V81.0447C59.592 78.7029 61.7188 80.2992 61.7188 80.2992C62.0509 80.6471 62.4795 80.8877 62.9495 80.9898C63.4195 81.0919 63.9094 81.0509 64.3558 80.872C64.8023 80.6932 65.185 80.3847 65.4545 79.9864C65.7241 79.588 65.8682 79.1181 65.8682 78.6371C65.8682 78.1562 65.7241 77.6862 65.4545 77.2879C65.185 76.8895 64.8023 76.5811 64.3558 76.4022C63.9094 76.2234 63.4195 76.1824 62.9495 76.2845C62.4795 76.3866 62.0509 76.6271 61.7188 76.9751C59.7104 78.2907 58.5132 76.2296 58.5132 76.2296V68.0203H66.7181C66.7181 68.0203 68.7967 66.8231 67.4636 64.8147C67.1156 64.4826 66.8751 64.054 66.773 63.584C66.6708 63.114 66.7119 62.6242 66.8907 62.1777C67.0695 61.7312 67.378 61.3485 67.7763 61.079C68.1747 60.8094 68.6446 60.6654 69.1256 60.6654C69.6066 60.6654 70.0765 60.8094 70.4749 61.079C70.8732 61.3485 71.1817 61.7312 71.3605 62.1777C71.5393 62.6242 71.5804 63.114 71.4783 63.584C71.3761 64.054 71.1356 64.4826 70.7876 64.8147C70.7876 64.8147 69.1914 66.9415 71.5331 68.0203H79.738V89.2495H58.5132Z" fill="#7064E1"/>
<path d="M58.5132 89.2495V81.0447C59.592 78.7029 61.7188 80.2992 61.7188 80.2992C62.0509 80.6471 62.4795 80.8877 62.9495 80.9898C63.4195 81.0919 63.9094 81.0509 64.3558 80.872C64.8023 80.6932 65.185 80.3847 65.4545 79.9864C65.7241 79.588 65.8682 79.1181 65.8682 78.6371C65.8682 78.1562 65.7241 77.6862 65.4545 77.2879C65.185 76.8895 64.8023 76.5811 64.3558 76.4022C63.9094 76.2234 63.4195 76.1824 62.9495 76.2845C62.4795 76.3866 62.0509 76.6271 61.7188 76.9751C59.7104 78.2907 58.5132 76.2296 58.5132 76.2296V68.0203H66.7181C66.7181 68.0203 68.7967 66.8231 67.4636 64.8147C67.1156 64.4826 66.8751 64.054 66.773 63.584C66.6708 63.114 66.7119 62.6242 66.8907 62.1777C67.0695 61.7312 67.378 61.3485 67.7763 61.079C68.1747 60.8094 68.6446 60.6654 69.1256 60.6654C69.6066 60.6654 70.0765 60.8094 70.4749 61.079C70.8732 61.3485 71.1817 61.7312 71.3605 62.1777C71.5393 62.6242 71.5804 63.114 71.4783 63.584C71.3761 64.054 71.1356 64.4826 70.7876 64.8147C70.7876 64.8147 69.1914 66.9415 71.5331 68.0203H79.738V89.2495H58.5132Z" fill="url(#paint12_linear)"/>
<path d="M87.079 57.4079C87.0776 57.8886 86.9325 58.358 86.6624 58.7557C86.3924 59.1534 86.0096 59.4613 85.5633 59.6399C85.1169 59.8186 84.6274 59.8597 84.1575 59.7582C83.6877 59.6566 83.2588 59.4169 82.9261 59.0699C82.9261 59.0699 80.7993 57.4737 79.7205 59.8154V68.0203H71.5156C69.1738 66.9415 70.7701 64.8147 70.7701 64.8147C71.1181 64.4826 71.3586 64.054 71.4607 63.584C71.5628 63.114 71.5218 62.6242 71.343 62.1777C71.1641 61.7312 70.8557 61.3485 70.4573 61.079C70.059 60.8094 69.589 60.6654 69.1081 60.6654C68.6271 60.6654 68.1571 60.8094 67.7588 61.079C67.3605 61.3485 67.052 61.7312 66.8731 62.1777C66.6943 62.6242 66.6533 63.114 66.7554 63.584C66.8575 64.054 67.0981 64.4826 67.446 64.8147C68.7616 66.8231 66.7005 68.0203 66.7005 68.0203H58.5132V46.7911H66.6391C68.9809 47.8699 67.3846 49.9968 67.3846 49.9968C67.0367 50.3288 66.7961 50.7574 66.694 51.2274C66.5919 51.6975 66.6329 52.1873 66.8118 52.6338C66.9906 53.0802 67.2991 53.4629 67.6974 53.7325C68.0958 54.002 68.5657 54.1461 69.0467 54.1461C69.5276 54.1461 69.9976 54.002 70.3959 53.7325C70.7943 53.4629 71.1027 53.0802 71.2816 52.6338C71.4604 52.1873 71.5014 51.6975 71.3993 51.2274C71.2972 50.7574 71.0567 50.3288 70.7087 49.9968C69.3931 47.9883 71.4542 46.7911 71.4542 46.7911H79.738V55.0004C79.738 55.0004 80.9352 57.079 82.9437 55.7459C83.2764 55.3989 83.7052 55.1592 84.1751 55.0576C84.645 54.9561 85.1345 54.9973 85.5808 55.1759C86.0271 55.3545 86.4099 55.6624 86.68 56.0601C86.95 56.4578 87.0951 56.9272 87.0965 57.4079H87.079Z" fill="#7064E1"/>
<path d="M92.2801 98.1999C92.2877 98.6813 92.1508 99.154 91.8871 99.5568C91.6234 99.9596 91.2449 100.274 90.8007 100.46C90.3564 100.645 89.8667 100.693 89.3948 100.598C88.9229 100.502 88.4905 100.267 88.1535 99.9234C88.1535 99.9234 86.0047 98.3578 84.961 100.713L85.0794 108.918L76.8745 109.036C74.5152 107.992 76.0808 105.844 76.0808 105.844C76.4224 105.507 76.6554 105.075 76.7497 104.605C76.8441 104.135 76.7956 103.647 76.6104 103.204C76.4251 102.762 76.1117 102.385 75.7104 102.122C75.3091 101.859 74.8384 101.722 74.3587 101.729C73.879 101.736 73.4124 101.887 73.0189 102.161C72.6255 102.435 72.3231 102.821 72.1508 103.269C71.9785 103.717 71.9441 104.206 72.0521 104.673C72.1601 105.141 72.4055 105.565 72.7567 105.892C74.1206 107.878 72.0595 109.106 72.0595 109.106L63.8546 109.225L63.5476 87.9954L71.6736 87.8813C74.0328 88.925 72.4673 91.0738 72.4673 91.0738C72.1257 91.4106 71.8927 91.842 71.7983 92.3123C71.704 92.7826 71.7525 93.2705 71.9377 93.713C72.123 94.1555 72.4364 94.5324 72.8377 94.7953C73.2389 95.0582 73.7097 95.1949 74.1894 95.188C74.669 95.181 75.1356 95.0307 75.5291 94.7563C75.9226 94.4819 76.225 94.096 76.3973 93.6483C76.5696 93.2006 76.604 92.7115 76.496 92.2441C76.388 91.7767 76.1426 91.3523 75.7913 91.0256C74.4275 89.0391 76.4886 87.8112 76.4886 87.8112L84.7724 87.6928L84.8908 95.902C84.8908 95.902 86.1187 97.9631 88.1053 96.5993C88.3305 96.359 88.602 96.1668 88.9035 96.0342C89.2049 95.9015 89.5301 95.8312 89.8594 95.8275C90.4945 95.8228 91.1056 96.0697 91.5592 96.5143C92.0128 96.9588 92.272 97.5649 92.2801 98.1999Z" fill="#7064E1"/>
<path d="M66.5206 88.0743C66.2268 88.3988 65.9987 89.1136 66.4636 89.4162C66.6298 89.5059 66.8142 89.5569 67.003 89.5653L69.485 89.8679C69.4105 89.8679 70.7085 104.493 71.2172 107.602C71.2786 107.97 71.4321 108.431 71.8049 108.479C71.9166 108.472 72.0252 108.44 72.122 108.383C72.2187 108.327 72.3009 108.248 72.3618 108.155C72.7201 107.593 72.9243 106.947 72.9538 106.282C73.5703 101.508 73.8634 96.6984 73.8309 91.8851C73.8309 90.9335 73.7958 89.9381 73.3222 89.1092C73.0313 88.6583 72.65 88.2727 72.2023 87.9768C71.7547 87.6809 71.2505 87.4811 70.7217 87.3902C69.3052 87.0701 67.5511 86.9254 66.5206 88.0743Z" fill="url(#paint13_linear)"/>
<path d="M72.4936 118.429V118.486C72.5988 118.754 72.9321 118.842 73.2128 118.877C73.4778 118.906 73.7444 118.917 74.0109 118.912C74.1387 118.916 74.2664 118.899 74.388 118.859C74.4996 118.81 74.6042 118.747 74.6994 118.67L75.4668 118.1C75.6824 117.952 75.8797 117.778 76.0544 117.583C76.2272 117.382 76.318 117.124 76.3088 116.859C76.2996 116.729 76.2505 116.604 76.1682 116.502C76.0858 116.4 75.9742 116.326 75.8483 116.289C75.6881 116.27 75.5261 116.27 75.3659 116.289C75.1878 116.312 75.0069 116.283 74.845 116.205C74.6831 116.127 74.5472 116.004 74.4538 115.851C74.4221 115.708 74.3452 115.578 74.2345 115.482C74.1229 115.428 73.9963 115.413 73.8749 115.439C73.6087 115.452 73.3458 115.504 73.0944 115.592C72.9676 115.637 72.8526 115.711 72.7577 115.806C72.6629 115.902 72.5906 116.017 72.5462 116.145C72.5193 116.262 72.5076 116.383 72.5111 116.504C72.5265 116.754 72.5265 117.004 72.5111 117.254C72.4761 117.566 72.4585 117.879 72.4585 118.192C72.461 118.273 72.4727 118.352 72.4936 118.429Z" fill="#262836"/>
<path d="M79.9354 118.53C79.4187 118.767 78.8869 118.969 78.3436 119.135C78.1273 119.229 77.885 119.243 77.6595 119.175C77.571 119.132 77.4927 119.071 77.43 118.995C77.3672 118.919 77.3213 118.831 77.2955 118.736C77.2481 118.543 77.2289 118.343 77.2385 118.144C77.272 117.836 77.3352 117.532 77.427 117.236C77.4753 116.96 77.5147 116.684 77.5498 116.408C77.6068 116.009 77.6595 115.614 77.7077 115.219L79.0891 115.513C79.2338 115.544 79.3697 116.101 79.4574 116.219C79.5217 116.306 79.6047 116.378 79.7003 116.429C79.7959 116.48 79.9018 116.508 80.01 116.513C80.2453 116.479 80.4826 116.46 80.7204 116.456C80.8737 116.492 81.0107 116.578 81.1099 116.7C81.2091 116.822 81.2649 116.974 81.2685 117.131C81.2674 117.288 81.2336 117.442 81.1694 117.585C81.1052 117.728 81.0121 117.855 80.8958 117.96C80.6632 118.171 80.3962 118.34 80.1064 118.46L79.9354 118.53Z" fill="#262836"/>
<path d="M79.9572 116.987C79.5947 117.193 79.2181 117.373 78.8302 117.526H78.7951C78.1549 117.776 77.4401 116.772 77.4401 116.772C77.4401 116.772 76.5367 111.194 76.563 108.878C76.5937 107.291 76.2166 105.028 75.6509 100.923C75.5106 105.116 74.8001 106.957 74.9799 108.462C75.2562 110.746 74.9273 116.421 74.9273 116.421C74.9273 116.421 74.3221 117.526 73.66 117.377H73.6205C73.2218 117.286 72.8304 117.166 72.4496 117.017C72.4496 117.017 71.6778 109.203 71.6778 107.142C71.6778 105.08 71.7655 103.234 71.7655 103.234L71.3621 96.7089L73.0811 94.2093L73.2214 94.1523L73.353 94.0207L75.2606 92.6218C75.2606 92.6218 75.2606 92.9463 75.2255 93.4989L76.7077 94.2926L76.8481 94.3979L76.9928 94.433L79.4749 94.8715C79.4749 94.8715 80.1239 104.883 80.3519 106.931C80.58 108.979 79.9572 116.987 79.9572 116.987Z" fill="#7064E1"/>
<path d="M79.9572 116.987C79.5947 117.193 79.2181 117.373 78.8302 117.526H78.7951C78.1549 117.776 77.4401 116.772 77.4401 116.772C77.4401 116.772 76.5367 111.194 76.563 108.878C76.5937 107.291 76.2166 105.028 75.6509 100.923C75.5106 105.116 74.8001 106.957 74.9799 108.462C75.2562 110.746 74.9273 116.421 74.9273 116.421C74.9273 116.421 74.3221 117.526 73.66 117.377H73.6205C73.2218 117.286 72.8304 117.166 72.4496 117.017C72.4496 117.017 71.6778 109.203 71.6778 107.142C71.6778 105.08 71.7655 103.234 71.7655 103.234L71.3621 96.7089L73.0811 94.2093L73.2214 94.1523L73.353 94.0207L75.2606 92.6218C75.2606 92.6218 75.2606 92.9463 75.2255 93.4989L76.7077 94.2926L76.8481 94.3979L76.9928 94.433L79.4749 94.8715C79.4749 94.8715 80.1239 104.883 80.3519 106.931C80.58 108.979 79.9572 116.987 79.9572 116.987Z" fill="url(#paint14_linear)"/>
<path d="M91.6396 82.0884C91.6704 82.0664 91.7071 82.0542 91.7449 82.0533C91.8458 82.0533 91.8501 82.2155 91.8151 82.312C91.7234 82.581 91.5902 82.834 91.4204 83.0619C91.3654 83.1187 91.3327 83.1934 91.3283 83.2724C91.3283 83.3513 91.3985 83.4083 91.4511 83.4653C91.6124 83.6526 91.7271 83.8754 91.7858 84.1155C91.8445 84.3556 91.8455 84.6062 91.7887 84.8467C91.6671 85.327 91.417 85.7652 91.0652 86.1141C90.9804 86.2219 90.8752 86.3119 90.7555 86.3789C90.6359 86.4459 90.5041 86.4885 90.3679 86.5044C89.8943 86.5044 89.3023 85.9211 89.1137 85.5177C89.045 85.3161 89.03 85.1002 89.0699 84.8911C89.1099 84.682 89.2036 84.4869 89.3417 84.3249C89.9013 83.3931 90.693 82.6224 91.6396 82.0884Z" fill="#A67C52"/>
<path d="M77.9006 77.4838C78.0541 77.6417 78.2909 77.8039 78.2251 78.01C78.19 78.1197 78.0716 78.1854 77.9839 78.2644C77.7675 78.4939 77.6508 78.7998 77.6594 79.1151C77.6687 79.4288 77.6242 79.7418 77.5278 80.0404C77.4731 80.1882 77.369 80.3125 77.2332 80.3924C77.0973 80.4723 76.9381 80.5029 76.7823 80.4789C76.6025 80.4307 76.4227 80.2728 76.2473 80.3474C76.0719 80.4219 76.0719 80.5667 76.0017 80.6894C75.906 80.8406 75.7697 80.9618 75.6085 81.0393C75.4472 81.1168 75.2674 81.1476 75.0896 81.128C74.7378 81.0751 74.3988 80.9577 74.0898 80.7815C73.9585 80.7292 73.8445 80.6411 73.7609 80.5272C73.7099 80.416 73.6975 80.291 73.7258 80.172C73.8342 79.815 74.0115 79.4828 74.2476 79.1941C74.6257 78.6113 74.8533 77.9438 74.9098 77.2514C74.9449 76.769 74.9098 76.2384 75.2212 75.8656C75.6597 75.3569 76.6551 75.3613 77.177 75.7341C77.6988 76.1068 77.4182 76.9882 77.9006 77.4838Z" fill="#A67C52"/>
<path d="M77.2779 75.2999C77.2167 75.4201 77.1243 75.5216 77.0104 75.5937C76.778 75.7297 76.5718 75.8875 76.3614 76.0323C76.1491 76.1722 75.9997 76.3892 75.9448 76.6374C75.8527 77.076 76.0982 77.5759 75.9448 78.0188C75.8877 78.1109 75.743 78.0539 75.686 77.9662C75.629 77.8785 75.5939 77.7688 75.5062 77.7162C75.3527 77.6285 75.1686 77.7776 75.1028 77.9399C75.0348 78.1285 75.0425 78.3362 75.1243 78.5193C75.206 78.7024 75.3555 78.8468 75.5413 78.9222C75.5194 79.0625 75.3396 79.1195 75.1949 79.102C75.052 79.0627 74.9044 79.0435 74.7563 79.045C74.4274 79.1064 74.3178 79.5756 73.9758 79.6238C73.8625 79.6163 73.7525 79.5827 73.6544 79.5256C73.5563 79.4686 73.4726 79.3896 73.4101 79.2949L73.011 78.8564C72.9467 78.7711 72.8763 78.6905 72.8005 78.6152C72.7084 78.545 72.5593 78.5407 72.4848 78.4573C72.4102 78.374 72.4848 78.1767 72.4058 78.0714C72.3685 78.0323 72.3217 78.0036 72.2699 77.9881C72.1551 77.9301 72.0637 77.8344 72.011 77.717C71.9583 77.5997 71.9475 77.4678 71.9805 77.3435C71.9911 77.3122 71.9911 77.2783 71.9805 77.247C71.9805 77.2031 71.9191 77.1856 71.8752 77.1637C71.7542 77.0852 71.6651 76.9661 71.6241 76.8278C71.5831 76.6895 71.5928 76.5411 71.6516 76.4094C71.7183 76.2581 71.8136 76.1211 71.9322 76.006C71.9741 75.9415 72.0334 75.8904 72.1033 75.8585C72.1733 75.8267 72.2508 75.8154 72.3269 75.8262L72.3927 75.2517C72.3911 75.1544 72.4111 75.0579 72.4513 74.9693C72.4915 74.8806 72.5508 74.802 72.6251 74.7391C72.6993 74.6762 72.7866 74.6305 72.8807 74.6054C72.9747 74.5803 73.0731 74.5764 73.1689 74.5939L73.0373 74.1203C73.0131 74.0597 73.0131 73.9922 73.0373 73.9317C73.0734 73.8898 73.1231 73.8619 73.1776 73.8528C73.3306 73.8091 73.488 73.7827 73.6469 73.7738C73.5899 73.641 73.5458 73.5029 73.5153 73.3616C73.5053 73.3413 73.5016 73.3184 73.5046 73.2959C73.5076 73.2735 73.5173 73.2524 73.5324 73.2355C73.5474 73.2185 73.5672 73.2065 73.5892 73.2008C73.6111 73.1952 73.6343 73.1962 73.6556 73.2037C73.7138 73.2125 73.7729 73.2125 73.831 73.2037C73.831 73.2037 73.7433 72.8003 73.739 72.7652C73.7124 72.6385 73.7359 72.5065 73.8047 72.3969C73.8527 72.3423 73.9135 72.3005 73.9816 72.2752C74.0497 72.25 74.1231 72.242 74.195 72.2521C74.3373 72.2773 74.474 72.3278 74.5985 72.4012C74.5985 72.2477 74.787 72.1688 74.9405 72.1557C75.236 72.1391 75.5309 72.1975 75.7977 72.3256C76.0646 72.4536 76.2947 72.6471 76.4666 72.888C76.495 72.9304 76.5273 72.97 76.5631 73.0064C76.6332 73.0511 76.7102 73.0837 76.7911 73.1029C76.9155 73.158 77.0262 73.2401 77.1149 73.3432C77.2036 73.4464 77.2683 73.568 77.3042 73.6993C77.3699 73.96 77.3965 74.2289 77.3831 74.4974C77.3931 74.7037 77.3739 74.9104 77.3261 75.1113C77.3174 75.1759 77.3012 75.2392 77.2779 75.2999Z" fill="#2F3554"/>
<path d="M75.0985 80.2728C75.4636 80.4258 75.8182 80.6031 76.1597 80.8035C76.2651 80.86 76.3565 80.9395 76.4272 81.0359C76.465 81.0887 76.4882 81.1507 76.4943 81.2153C76.5005 81.28 76.4894 81.3452 76.4623 81.4043C76.3702 81.5665 76.1509 81.5095 75.9843 81.4481C75.2115 81.1859 74.3961 81.0728 73.5811 81.1148C73.5267 81.1238 73.4708 81.1175 73.4197 81.0966C73.3686 81.0757 73.3243 81.041 73.2917 80.9964C73.2728 80.9426 73.2657 80.8854 73.271 80.8286C73.2763 80.7718 73.2938 80.7169 73.3224 80.6675C73.739 79.8299 74.4187 79.9659 75.0985 80.2728Z" fill="white"/>
<path d="M90.1093 86.7368C89.9509 87.1305 89.717 87.4896 89.4208 87.7936C89.1358 88.1138 88.842 88.4207 88.5438 88.7189C87.8233 89.4154 87.0634 90.0699 86.2678 90.6792C85.7274 91.1566 85.0833 91.5019 84.3865 91.6878C84.1039 91.7539 83.8081 91.7356 83.5358 91.6352C83.3143 91.5247 83.114 91.3763 82.9438 91.1966C82.742 90.9949 80.4003 88.2979 80.3608 88.2979C80.2279 88.3692 80.1252 88.486 80.0714 88.6268C79.7331 89.3278 79.5237 90.0839 79.4531 90.859C79.4246 91.2048 79.4246 91.5524 79.4531 91.8983C79.5452 93.0779 79.9574 94.2926 79.5495 95.4065C79.4681 95.6419 79.333 95.8551 79.1549 96.0292C78.9832 96.1793 78.7855 96.2967 78.5716 96.3757C78.1936 96.5304 77.7994 96.6422 77.3964 96.7089C77.1661 96.7513 76.9331 96.7763 76.6991 96.7835C75.822 96.8186 74.9888 96.6519 74.1293 96.6914C73.4014 96.7309 72.6778 96.9194 71.9367 96.8931C71.8321 96.9135 71.7244 96.9109 71.621 96.8856C71.5175 96.8604 71.4208 96.8129 71.3374 96.7467C71.254 96.6804 71.186 96.5968 71.1381 96.5017C71.0901 96.4067 71.0633 96.3023 71.0596 96.1959C70.7756 94.6344 70.6289 93.0512 70.6211 91.4641C70.6211 90.9116 70.5904 90.3546 70.5553 89.8021C70.5246 89.3329 70.6518 88.1401 70.1168 88.048C68.7573 87.7849 67.3453 88.1181 65.9727 87.9252C66.0108 87.0271 66.3922 86.1778 67.0383 85.5527C67.3552 85.2853 67.6991 85.0516 68.0644 84.8555C68.4851 84.5543 68.8628 84.1973 69.1871 83.7942C70.1196 82.6427 71.3011 81.7176 72.6427 81.0885C72.8564 80.9838 73.0816 80.9044 73.3136 80.8517H73.3707C73.4042 80.8478 73.438 80.8478 73.4715 80.8517C73.7649 80.8271 74.0603 80.8448 74.3486 80.9043C76.3051 81.229 78.2409 81.6682 80.1459 82.2199C80.3973 82.2764 80.6355 82.3806 80.8476 82.5269C80.9956 82.6607 81.1227 82.8159 81.2247 82.9873C81.7597 83.7942 82.2816 84.6099 82.821 85.4168C83.2858 86.1097 83.7419 86.978 84.426 87.4867C85.9152 86.8813 87.321 86.0885 88.6096 85.1274C88.7894 84.9914 89.0218 84.8423 89.2279 84.9344C89.2965 84.9651 89.3577 85.0099 89.4077 85.066C89.912 85.5045 90.3549 85.9869 90.1093 86.7368Z" fill="white"/>
</g>
<defs>
<linearGradient id="paint0_linear" x1="75.5414" y1="105.721" x2="76.4492" y2="123.17" gradientUnits="userSpaceOnUse">
<stop offset="0.01"/>
<stop offset="0.08" stop-opacity="0.69"/>
<stop offset="0.21" stop-opacity="0.32"/>
<stop offset="1" stop-opacity="0"/>
</linearGradient>
<linearGradient id="paint1_linear" x1="20940.5" y1="973.526" x2="20945.4" y2="2069.71" gradientUnits="userSpaceOnUse">
<stop offset="0.01"/>
<stop offset="0.08" stop-opacity="0.69"/>
<stop offset="0.21" stop-opacity="0.32"/>
<stop offset="1" stop-opacity="0"/>
</linearGradient>
<linearGradient id="paint2_linear" x1="-15049.2" y1="6951.95" x2="-14914.4" y2="7004.48" gradientUnits="userSpaceOnUse">
<stop offset="0.01"/>
<stop offset="0.08" stop-opacity="0.69"/>
<stop offset="0.21" stop-opacity="0.32"/>
<stop offset="1" stop-opacity="0"/>
</linearGradient>
<linearGradient id="paint3_linear" x1="82.6513" y1="61.9516" x2="44.6277" y2="-15.2486" gradientUnits="userSpaceOnUse">
<stop offset="0.01"/>
<stop offset="0.08" stop-opacity="0.69"/>
<stop offset="0.21" stop-opacity="0.32"/>
<stop offset="1" stop-opacity="0"/>
</linearGradient>
<linearGradient id="paint4_linear" x1="1134.83" y1="467.612" x2="1165.19" y2="686.326" gradientUnits="userSpaceOnUse">
<stop offset="0.01"/>
<stop offset="0.08" stop-opacity="0.69"/>
<stop offset="0.21" stop-opacity="0.32"/>
<stop offset="1" stop-opacity="0"/>
</linearGradient>
<linearGradient id="paint5_linear" x1="-6021.37" y1="-1080.28" x2="-6085.76" y2="-1033.21" gradientUnits="userSpaceOnUse">
<stop offset="0.01"/>
<stop offset="0.08" stop-opacity="0.69"/>
<stop offset="0.21" stop-opacity="0.32"/>
<stop offset="1" stop-opacity="0"/>
</linearGradient>
<linearGradient id="paint6_linear" x1="3662.49" y1="3714.3" x2="3604.37" y2="8822" gradientUnits="userSpaceOnUse">
<stop offset="0.01"/>
<stop offset="0.08" stop-opacity="0.69"/>
<stop offset="0.21" stop-opacity="0.32"/>
<stop offset="1" stop-opacity="0"/>
</linearGradient>
<linearGradient id="paint7_linear" x1="3671.73" y1="6443.87" x2="1716.71" y2="7059.35" gradientUnits="userSpaceOnUse">
<stop offset="0.01"/>
<stop offset="0.08" stop-opacity="0.69"/>
<stop offset="0.21" stop-opacity="0.32"/>
<stop offset="1" stop-opacity="0"/>
</linearGradient>
<linearGradient id="paint8_linear" x1="2252.87" y1="5900.57" x2="-447.339" y2="6543.59" gradientUnits="userSpaceOnUse">
<stop offset="0.01"/>
<stop offset="0.08" stop-opacity="0.69"/>
<stop offset="0.21" stop-opacity="0.32"/>
<stop offset="1" stop-opacity="0"/>
</linearGradient>
<linearGradient id="paint9_linear" x1="2825.45" y1="953.205" x2="3428.77" y2="2382.23" gradientUnits="userSpaceOnUse">
<stop offset="0.01"/>
<stop offset="0.08" stop-opacity="0.69"/>
<stop offset="0.21" stop-opacity="0.32"/>
<stop offset="1" stop-opacity="0"/>
</linearGradient>
<linearGradient id="paint10_linear" x1="3695.98" y1="3913.24" x2="9607.7" y2="6990.73" gradientUnits="userSpaceOnUse">
<stop offset="0.01"/>
<stop offset="0.08" stop-opacity="0.69"/>
<stop offset="0.21" stop-opacity="0.32"/>
<stop offset="1" stop-opacity="0"/>
</linearGradient>
<linearGradient id="paint11_linear" x1="4307.04" y1="7281.73" x2="5984.84" y2="582.887" gradientUnits="userSpaceOnUse">
<stop offset="0.01"/>
<stop offset="0.08" stop-opacity="0.69"/>
<stop offset="0.21" stop-opacity="0.32"/>
<stop offset="1" stop-opacity="0"/>
</linearGradient>
<linearGradient id="paint12_linear" x1="3704.3" y1="2590.08" x2="3444.18" y2="11085.4" gradientUnits="userSpaceOnUse">
<stop offset="0.01"/>
<stop offset="0.08" stop-opacity="0.69"/>
<stop offset="0.21" stop-opacity="0.32"/>
<stop offset="1" stop-opacity="0"/>
</linearGradient>
<linearGradient id="paint13_linear" x1="1171.48" y1="4646.71" x2="2437.93" y2="5139.69" gradientUnits="userSpaceOnUse">
<stop offset="0.01"/>
<stop offset="0.08" stop-opacity="0.69"/>
<stop offset="0.21" stop-opacity="0.32"/>
<stop offset="1" stop-opacity="0"/>
</linearGradient>
<linearGradient id="paint14_linear" x1="1549.68" y1="5966.7" x2="2616.6" y2="6507.98" gradientUnits="userSpaceOnUse">
<stop offset="0.01"/>
<stop offset="0.08" stop-opacity="0.69"/>
<stop offset="0.21" stop-opacity="0.32"/>
<stop offset="1" stop-opacity="0"/>
</linearGradient>
<clipPath id="clip0">
<rect width="175" height="131.897" fill="white"/>
</clipPath>
</defs>
</svg>
