<svg width="175" height="132" viewBox="0 0 175 132" fill="none" xmlns="http://www.w3.org/2000/svg">
<g clip-path="url(#clip0)">
<path opacity="0.18" d="M28.2037 9.14195C20.2335 13.6473 13.1725 20.1224 9.14199 28.335C5.11146 36.5476 4.42455 45.6794 4.00028 54.69C3.57601 64.7916 3.62652 74.8932 6.10141 84.6918C8.39448 93.7125 12.7079 102.097 17.5465 110.047C21.1023 115.885 25.1126 121.704 30.8503 125.431C35.0585 127.968 39.7103 129.682 44.5582 130.482C60.932 133.651 77.894 131.329 92.8135 123.876C103.925 118.3 113.582 109.986 125.31 106.036C135.604 102.572 147.16 102.561 156.433 96.945C167.99 89.8739 173.283 74.7821 170.454 61.5389C167.626 48.2957 157.676 37.2951 145.615 31.1129C138.776 27.6178 131.381 25.5974 124.492 22.3346C117.603 19.0718 111.31 14.6069 104.592 10.9804C80.5906 -2.00011 52.3869 -4.53561 28.2037 9.14195Z" fill="#7064E1"/>
<path d="M110.491 45.8006L111.835 46.3663C112.325 46.5001 112.747 46.8139 113.017 47.2452C113.157 47.7004 113.132 48.1905 112.946 48.6291C112.764 49.2251 112.552 49.8211 112.32 50.407C112.017 51.1848 111.663 51.9525 111.431 52.7505C110.976 54.7693 110.894 56.8541 111.188 58.9024C111.188 59.5691 110.34 59.9126 109.683 60.0035C108.445 60.2639 107.161 60.1978 105.956 59.8116C105.844 59.7803 105.741 59.7252 105.653 59.6499C105.543 59.5095 105.492 59.332 105.511 59.1549C105.441 58.0539 105.441 56.9124 105.289 55.9022C105.229 55.3509 105.117 54.8065 104.956 54.2759C104.841 53.7554 104.754 53.2295 104.693 52.7C104.602 52.2758 104.471 51.8616 104.4 51.4373C104.313 51.0094 104.344 50.5658 104.491 50.1544C104.673 49.7099 104.925 49.2958 105.148 48.8715C105.385 48.41 105.594 47.9343 105.774 47.4472C105.871 47.0918 106.017 46.7517 106.208 46.437C106.45 46.1503 106.752 45.9202 107.092 45.7631C107.432 45.606 107.803 45.5257 108.178 45.5279C108.96 45.4502 109.749 45.5433 110.491 45.8006Z" fill="#FFBBAB"/>
<path d="M102.218 40.5781C101.835 40.0976 101.526 39.5632 101.299 38.9922C101.045 38.2617 100.888 37.5009 100.834 36.7294C100.793 36.4522 100.814 36.1693 100.895 35.9011C101.026 35.5374 101.349 35.2647 101.45 34.8909C101.465 34.8518 101.465 34.8088 101.45 34.7697C101.45 34.7697 101.4 34.6889 101.319 34.6889L100.895 34.5778C100.966 34.2326 100.908 33.8733 100.733 33.5676C100.682 33.4563 100.599 33.3625 100.495 33.2979C100.391 33.2332 100.27 33.2006 100.147 33.2039C99.8846 33.2039 99.7533 33.5373 99.5311 33.6888C99.3088 33.8403 99.0664 33.8605 98.8745 34.0121C98.6704 34.2321 98.5552 34.5201 98.5512 34.8202C98.5374 35.5472 98.6467 36.2712 98.8745 36.9617C99.0196 37.7679 99.2153 38.5641 99.4604 39.3457C100.237 41.7559 101.48 43.9901 103.117 45.9219C103.743 46.6593 106.148 49.5685 107.097 48.821C108.441 47.8109 107.562 46.1441 106.632 45.3461C104.972 43.9428 103.49 42.3415 102.218 40.5781Z" fill="#FFBBAB"/>
<path d="M107.865 45.3158C107.41 46.0128 106.966 46.73 106.552 47.4573C106.473 47.5653 106.416 47.6878 106.385 47.8179C106.353 47.9479 106.348 48.0829 106.37 48.2149C106.445 48.3865 106.582 48.5235 106.754 48.5988C107.106 48.7564 107.493 48.8224 107.878 48.7906C108.263 48.7588 108.634 48.6303 108.956 48.417C109.59 47.9702 110.153 47.4285 110.622 46.8108C110.876 46.4692 111.191 46.178 111.552 45.9522C111.735 45.8427 111.945 45.7849 112.158 45.7849C112.371 45.7849 112.581 45.8427 112.764 45.9522C112.852 46.0084 112.927 46.0826 112.984 46.17C113.041 46.2573 113.079 46.3558 113.096 46.459C113.112 46.5621 113.106 46.6675 113.078 46.7682C113.051 46.8689 113.002 46.9626 112.936 47.0431C112.936 46.7199 112.542 46.5179 112.229 46.5987C111.925 46.7236 111.672 46.948 111.511 47.2351C111.268 47.5818 111.045 47.9428 110.845 48.3159C110.683 48.5893 110.564 48.8856 110.491 49.1948C110.471 49.5779 110.527 49.9612 110.657 50.3221C110.787 50.683 110.988 51.0141 111.249 51.2959C111.436 51.5195 111.586 51.7719 111.693 52.0434C111.77 52.4793 111.736 52.9277 111.592 53.3465C111.223 55.1266 111.131 56.9529 111.32 58.761C111.367 58.9341 111.372 59.116 111.335 59.2917C111.298 59.4673 111.22 59.6317 111.107 59.7711C110.912 59.9237 110.668 59.9992 110.42 59.9833C109.259 59.9833 108.107 59.7206 106.935 59.7509C106.217 59.8283 105.496 59.8654 104.774 59.8621C104.721 59.8685 104.667 59.8613 104.618 59.8413C104.569 59.8212 104.525 59.789 104.492 59.7475C104.459 59.7061 104.436 59.6568 104.427 59.6044C104.418 59.552 104.423 59.4981 104.44 59.4479C104.764 57.4436 104.815 55.4049 104.592 53.3869C104.349 52.4718 104.2 51.5342 104.147 50.5888C104.138 50.381 104.176 50.1737 104.258 49.9827C104.352 49.7984 104.471 49.6283 104.612 49.4776C105.371 48.5621 105.916 47.4888 106.208 46.336" fill="white"/>
<path opacity="0.1" d="M110.804 54.6597C110.812 54.8283 110.78 54.9963 110.712 55.1505C110.644 55.3048 110.54 55.4411 110.41 55.5487C110.326 55.5864 110.245 55.6302 110.168 55.68C110.016 55.8214 110.037 56.0639 110.006 56.2659C109.877 56.6368 109.678 56.9796 109.42 57.276C109.298 57.4336 109.232 57.6273 109.232 57.8266C109.232 58.0259 109.298 58.2195 109.42 58.3771C109.602 58.5589 109.905 58.5893 110.057 58.8014C110.208 59.0135 110.057 59.7004 110.37 59.9126C110.472 59.9558 110.586 59.9613 110.691 59.9279C110.797 59.8946 110.887 59.8247 110.946 59.7307C111.054 59.5395 111.113 59.3242 111.118 59.1044C111.353 56.8349 111.569 54.5554 111.764 52.2657C111.791 52.1458 111.788 52.0211 111.754 51.9029C111.72 51.7847 111.658 51.6768 111.572 51.5889C111.421 51.3767 111.219 50.9727 110.996 50.8615C110.744 51.2353 110.936 52.0434 110.936 52.4778C110.895 53.2152 110.865 53.9425 110.804 54.6597Z" fill="#020202"/>
<path d="M105.269 41.3761C105.136 41.5468 105.049 41.7485 105.016 41.962C105.041 42.1128 105.096 42.257 105.178 42.3863C105.323 42.7047 105.409 43.0471 105.43 43.3965C105.422 43.6588 105.488 43.9183 105.622 44.144C105.74 44.2559 105.88 44.3417 106.033 44.3957C106.186 44.4496 106.349 44.4706 106.511 44.4571H107.259C107.348 44.4321 107.442 44.4321 107.531 44.4571C107.614 44.4995 107.681 44.5666 107.723 44.6491C107.956 45.1946 108.095 45.7749 108.138 46.3663C108.158 46.4666 108.203 46.5603 108.269 46.6391C108.32 46.7126 108.39 46.7718 108.471 46.8108C108.997 47.0179 109.582 47.0179 110.107 46.8108C110.243 46.7699 110.36 46.6845 110.441 46.5684C110.492 46.4212 110.492 46.2609 110.441 46.1138C110.383 45.7071 110.295 45.3053 110.178 44.9117C109.967 44.3952 109.858 43.8431 109.855 43.2853C109.855 42.7904 110.128 42.3358 110.208 41.8509C110.267 41.3389 110.161 40.8215 109.904 40.3744C109.648 39.9272 109.256 39.5739 108.784 39.3659C108.383 39.2074 107.951 39.1415 107.521 39.173C107.091 39.2044 106.673 39.3326 106.299 39.5477C106.026 39.6892 105.804 39.7599 105.673 40.0528C105.541 40.3458 105.511 40.962 105.269 41.3761Z" fill="#FFBBAB"/>
<path d="M105.34 38.3659C105.295 38.1804 105.272 37.9908 105.269 37.8002C105.269 37.1537 105.643 36.4163 106.279 36.3961C106.734 36.3961 107.138 36.7395 107.602 36.7395C107.794 36.7137 107.983 36.6731 108.168 36.6183C108.653 36.5071 109.157 36.5071 109.643 36.6183C110.691 36.8038 111.626 37.3909 112.249 38.2548C112.559 38.6953 112.733 39.2166 112.751 39.7549C112.769 40.2932 112.63 40.825 112.35 41.2852C112.017 41.7903 111.501 42.154 111.148 42.649C110.978 42.958 110.793 43.2581 110.592 43.548C110.411 43.7601 109.986 44.1036 109.683 43.9521C109.38 43.8005 109.36 43.3056 109.148 43.0934C109.356 42.9291 109.555 42.7538 109.744 42.5681C109.836 42.474 109.9 42.356 109.928 42.2275C109.957 42.099 109.949 41.9651 109.905 41.8408C109.784 41.5984 109.37 41.5479 109.269 41.8408C109.3 41.5006 109.253 41.1578 109.13 40.839C109.008 40.5201 108.813 40.2338 108.562 40.0023C108.489 39.9122 108.4 39.8368 108.299 39.7801C108.189 39.7598 108.076 39.7598 107.966 39.7801C107.653 39.7801 107.35 39.7801 107.037 39.7801C106.501 39.7801 106.239 39.9316 105.855 39.477C105.591 39.1564 105.414 38.774 105.34 38.3659Z" fill="#FC682D"/>
<path d="M108.37 44.5582C108.454 44.5506 108.537 44.576 108.602 44.6289C108.656 44.6981 108.685 44.7836 108.683 44.8713C108.724 45.3182 108.724 45.7679 108.683 46.2148C108.672 46.3335 108.641 46.4496 108.592 46.5583C108.563 46.6111 108.521 46.6555 108.469 46.6873C108.418 46.7191 108.36 46.7373 108.299 46.7401C108.168 46.7401 108.057 46.629 107.915 46.5987C107.842 46.5827 107.765 46.5836 107.692 46.601C107.618 46.6185 107.55 46.6522 107.491 46.6997C107.377 46.7983 107.275 46.9102 107.188 47.033C106.964 47.3153 106.718 47.5788 106.451 47.821C106.631 47.2074 106.903 46.6249 107.259 46.0936C107.34 45.9402 107.467 45.8164 107.622 45.74C107.744 45.74 107.895 45.74 107.976 45.6087C108.057 45.4774 107.976 45.2249 107.885 45.0531C107.794 44.8814 107.562 44.639 107.703 44.5177C107.845 44.3965 108.249 44.5481 108.37 44.5582Z" fill="#E0A194"/>
<path d="M118.108 42.1742C118.507 41.8007 118.878 41.399 119.219 40.9721C120.195 39.7533 120.729 38.24 120.734 36.6789C120.699 36.509 120.699 36.3336 120.734 36.1637C120.755 36.0811 120.8 36.0064 120.862 35.9489C120.925 35.8915 121.004 35.8537 121.088 35.8405C121.161 35.8506 121.236 35.8506 121.31 35.8405C121.421 35.8405 121.472 35.6889 121.563 35.6081C121.638 35.5606 121.726 35.5354 121.815 35.5354C121.904 35.5354 121.992 35.5606 122.068 35.6081C122.222 35.7057 122.356 35.8327 122.462 35.9819C122.623 36.2041 122.785 36.4365 122.926 36.6688C123.054 36.8468 123.131 37.0564 123.148 37.2749C123.106 37.6273 122.928 37.9494 122.653 38.1739C122.34 38.1739 122.098 39.0124 122.017 39.1841C121.855 39.6387 121.674 40.0932 121.472 40.5276C120.267 43.1538 118.485 45.4743 116.259 47.3159C115.512 47.9321 112.683 50.3464 111.835 49.4877C110.673 48.2553 111.835 46.7704 112.845 46.134C114.758 45.0401 116.527 43.7097 118.108 42.1742Z" fill="#FFBBAB"/>
<path d="M104.703 43.1136H104.612C104.618 43.1072 104.625 43.102 104.633 43.0985C104.64 43.0949 104.649 43.0931 104.658 43.0931C104.666 43.0931 104.675 43.0949 104.682 43.0985C104.69 43.102 104.697 43.1072 104.703 43.1136Z" fill="#7064E1"/>
<path d="M121.532 40.6387C121.5 41.1849 121.344 41.7166 121.078 42.1944C119.464 45.5815 116.705 48.2897 113.289 49.8413C113.094 49.9047 112.917 50.0158 112.774 50.1645C112.672 50.3065 112.599 50.4681 112.562 50.6393C111.784 53.6698 111.956 56.7609 111.4 59.7913C111.382 60.0624 111.271 60.319 111.087 60.5187C110.821 60.7075 110.49 60.7837 110.168 60.7308H109.511C107.952 60.6464 106.397 60.4811 104.855 60.2358C104.583 60.222 104.327 60.1066 104.137 59.9126C104.007 59.6716 103.971 59.3907 104.036 59.1246C104.109 57.0437 104.025 54.9602 103.784 52.892C103.698 51.8836 103.698 50.8698 103.784 49.8615C103.91 49.3575 103.91 48.83 103.784 48.326C103.726 48.1789 103.644 48.0424 103.541 47.922C103.1 47.5012 102.635 47.1066 102.147 46.7401C101.477 45.9787 100.999 45.0677 100.753 44.0834C100.289 42.6893 99.8038 41.3054 99.3593 39.9114C99.0259 38.9012 99.5512 38.4265 100.309 38.0426C100.582 37.9012 100.885 37.7699 101.198 37.6284C101.466 38.708 101.852 39.7548 102.349 40.7498C102.841 41.7327 103.634 42.5326 104.612 43.0328C104.596 43.0328 104.581 43.0392 104.569 43.0506C104.558 43.0619 104.552 43.0773 104.552 43.0934C104.551 43.1312 104.561 43.1684 104.578 43.2019C104.596 43.2353 104.621 43.264 104.653 43.2853C105.329 43.9116 106.016 44.5278 106.673 45.1642C106.799 45.296 106.955 45.3963 107.127 45.4572C107.329 45.4572 108.026 45.2754 107.996 45.6491C108.001 45.669 108.001 45.6898 107.996 45.7097C107.996 45.841 107.875 45.9421 107.855 46.0734C107.851 46.1532 107.871 46.2322 107.913 46.3005C107.954 46.3688 108.015 46.4234 108.087 46.4572C108.231 46.5292 108.392 46.5573 108.552 46.5381C108.728 46.5274 108.902 46.49 109.067 46.4269C109.34 46.3158 109.562 46.1239 109.825 45.9926C110.225 45.8426 110.662 45.818 111.077 45.9219C111.53 45.9559 111.985 45.9287 112.431 45.841C113.72 45.5405 114.912 44.9185 115.896 44.0329C117.271 42.6997 118.547 41.2683 119.714 39.7498C119.844 39.5749 120.014 39.4331 120.209 39.3356C120.374 39.2811 120.551 39.275 120.719 39.3179C120.888 39.3609 121.04 39.4512 121.159 39.5781C121.293 39.7177 121.396 39.8847 121.461 40.0677C121.525 40.2507 121.55 40.4455 121.532 40.6387Z" fill="white"/>
<path d="M121.532 40.6387C121.5 41.1849 121.344 41.7166 121.078 42.1944C119.464 45.5815 116.705 48.2897 113.289 49.8413C113.094 49.9047 112.917 50.0158 112.774 50.1645C112.672 50.3065 112.599 50.4681 112.562 50.6393C111.784 53.6698 111.956 56.7609 111.4 59.7913C111.382 60.0624 111.271 60.319 111.087 60.5187C110.821 60.7075 110.49 60.7837 110.168 60.7308H109.511C107.952 60.6464 106.397 60.4811 104.855 60.2358C104.583 60.222 104.327 60.1066 104.137 59.9126C104.007 59.6716 103.971 59.3907 104.036 59.1246C104.109 57.0437 104.025 54.9602 103.784 52.892C103.698 51.8836 103.698 50.8698 103.784 49.8615C103.91 49.3575 103.91 48.83 103.784 48.326C103.726 48.1789 103.644 48.0424 103.541 47.922C103.1 47.5012 102.635 47.1066 102.147 46.7401C101.477 45.9787 100.999 45.0677 100.753 44.0834C100.289 42.6893 99.8038 41.3054 99.3593 39.9114C99.0259 38.9012 99.5512 38.4265 100.309 38.0426C100.582 37.9012 100.885 37.7699 101.198 37.6284C101.466 38.708 101.852 39.7548 102.349 40.7498C102.841 41.7327 103.634 42.5326 104.612 43.0328C104.596 43.0328 104.581 43.0392 104.569 43.0506C104.558 43.0619 104.552 43.0773 104.552 43.0934C104.551 43.1312 104.561 43.1684 104.578 43.2019C104.596 43.2353 104.621 43.264 104.653 43.2853C105.329 43.9116 106.016 44.5278 106.673 45.1642C106.799 45.296 106.955 45.3963 107.127 45.4572C107.329 45.4572 108.026 45.2754 107.996 45.6491C108.001 45.669 108.001 45.6898 107.996 45.7097C107.996 45.841 107.875 45.9421 107.855 46.0734C107.851 46.1532 107.871 46.2322 107.913 46.3005C107.954 46.3688 108.015 46.4234 108.087 46.4572C108.231 46.5292 108.392 46.5573 108.552 46.5381C108.728 46.5274 108.902 46.49 109.067 46.4269C109.34 46.3158 109.562 46.1239 109.825 45.9926C110.225 45.8426 110.662 45.818 111.077 45.9219C111.53 45.9559 111.985 45.9287 112.431 45.841C113.72 45.5405 114.912 44.9185 115.896 44.0329C117.271 42.6997 118.547 41.2683 119.714 39.7498C119.844 39.5749 120.014 39.4331 120.209 39.3356C120.374 39.2811 120.551 39.275 120.719 39.3179C120.888 39.3609 121.04 39.4512 121.159 39.5781C121.293 39.7177 121.396 39.8847 121.461 40.0677C121.525 40.2507 121.55 40.4455 121.532 40.6387Z" fill="url(#paint0_linear)"/>
<path d="M103.804 48.2856C103.723 48.1644 103.653 48.0331 103.562 47.922C103.12 47.5012 102.655 47.1066 102.168 46.7401C101.497 45.9787 101.019 45.0677 100.774 44.0834C100.309 42.6893 99.824 41.3054 99.3796 39.9114C99.0462 38.9013 99.5715 38.4265 100.329 38.0426C100.484 38.1875 100.608 38.3629 100.693 38.5578C100.85 38.986 100.962 39.4296 101.026 39.8811C101.275 40.9121 101.706 41.8905 102.299 42.7702C102.895 43.7197 103.461 44.6895 104.057 45.639C104.092 45.692 104.119 45.7499 104.137 45.8107C104.162 45.9034 104.162 46.0009 104.137 46.0936C104.018 46.4673 103.943 46.8538 103.915 47.2452C103.865 47.4876 103.996 48.1543 103.804 48.2856Z" fill="url(#paint1_linear)"/>
<path d="M121.532 40.6387C121.5 41.1849 121.344 41.7166 121.078 42.1944C119.464 45.5814 116.706 48.2897 113.289 49.8413C113.094 49.9047 112.917 50.0158 112.774 50.1645C112.672 50.3065 112.599 50.4681 112.562 50.6393C111.784 53.6698 111.956 56.7609 111.4 59.7913C111.382 60.0624 111.271 60.319 111.087 60.5187C110.821 60.7075 110.49 60.7837 110.168 60.7308H109.511C109.322 60.7175 109.14 60.651 108.986 60.5389C108.84 60.3996 108.747 60.2139 108.724 60.0136C108.587 58.8674 108.536 57.7126 108.572 56.5588C108.593 55.9778 108.476 55.3999 108.23 54.873C107.985 54.3461 107.617 53.8852 107.158 53.5284C106.925 53.4168 106.71 53.2704 106.521 53.094C106.432 53.0017 106.383 52.8786 106.383 52.7505C106.383 52.6224 106.432 52.4993 106.521 52.4071C106.617 52.3434 106.729 52.3083 106.845 52.3061C107.503 52.2596 108.157 52.1719 108.804 52.0434C109.454 51.9233 110.035 51.5626 110.431 51.0333C110.764 50.5282 110.835 49.8817 111.198 49.3968C111.694 48.896 112.321 48.5458 113.007 48.3866C115.386 47.4579 117.491 45.9429 119.128 43.9823C119.855 43.1035 120.411 41.5176 121.31 40.861C121.373 40.7765 121.448 40.7017 121.532 40.6387Z" fill="url(#paint2_linear)"/>
<path d="M70.5395 79.7016C66.3668 82.715 61.939 85.3582 57.3064 87.601L56.6498 87.6819H56.468C56.2907 87.674 56.1172 87.6276 55.9596 87.5459C55.8021 87.4642 55.6642 87.3492 55.5555 87.2089C55.4469 87.0685 55.3701 86.9062 55.3306 86.7332C55.291 86.5602 55.2896 86.3806 55.3265 86.207C55.3691 85.8399 55.4332 85.4756 55.5184 85.1161C56.1043 82.3684 56.6936 79.6241 57.2862 76.8832C57.3196 76.7829 57.3178 76.6742 57.2811 76.575C57.2443 76.4758 57.1749 76.3921 57.0842 76.3378L46.5078 68.1252C46.4407 68.0595 46.3538 68.0179 46.2605 68.007C46.1673 67.996 46.0731 68.0162 45.9926 68.0646C45.3663 68.3878 44.7198 68.6808 44.0733 68.9737C41.8004 70.0445 39.6084 71.0546 37.3658 72.0648C37.2187 72.1391 37.0576 72.1816 36.893 72.1894C36.7283 72.1972 36.5639 72.1702 36.4104 72.1101C36.2569 72.0501 36.1178 71.9583 36.0022 71.8408C35.8866 71.7234 35.7971 71.5828 35.7395 71.4284L35.6082 71.1253C35.6082 71.1253 35.6082 71.0142 35.6082 70.9637C35.7086 70.1523 35.8502 69.3465 36.0324 68.5494C37.162 64.3568 38.5485 60.2377 40.1842 56.2154C40.9491 54.0508 42.4462 52.2214 44.4167 51.0434C45.9117 50.1982 47.56 49.6591 49.2655 49.4574C50.5846 49.2674 51.9134 49.1527 53.2455 49.114C53.6597 49.114 54.084 49.114 54.5082 49.114C54.5961 49.1019 54.6806 49.0725 54.7569 49.0274C54.8333 48.9823 54.8998 48.9225 54.9527 48.8513C55.9629 47.3765 56.9124 45.8208 57.9832 44.4066C59.475 42.2781 61.0801 40.2312 62.7916 38.275C64.5757 36.4578 66.4502 34.7316 68.408 33.1029C70.3877 31.3508 72.5172 29.7757 74.772 28.3956C78.1578 26.4499 81.7852 24.9588 85.5606 23.961C86.2879 23.7388 87.0253 23.5468 87.7627 23.3448L89.2779 23.1832H89.5507C89.9043 23.2251 90.2386 23.3671 90.5142 23.5926C90.7898 23.8181 90.9952 24.1176 91.1063 24.456C91.1112 24.4996 91.1112 24.5436 91.1063 24.5873C91.1749 24.9207 91.2221 25.2581 91.2477 25.5974C91.396 27.3708 91.3622 29.1546 91.1467 30.921C90.9263 34.1127 90.2982 37.263 89.2779 40.2953C88.2553 43.1161 87.0402 45.8635 85.6414 48.518C84.5379 50.7854 83.2329 52.9491 81.7421 54.983C79.3648 58.0969 76.8223 61.0812 74.1255 63.9229C74.0416 63.9987 73.9823 64.0979 73.9552 64.2078C73.9282 64.3176 73.9348 64.433 73.974 64.5391C74.1558 65.327 74.3276 66.1149 74.469 66.9029C74.8304 68.5367 74.9664 70.2123 74.8731 71.883C74.813 73.4344 74.3896 74.9501 73.6369 76.3081C72.8842 77.6661 71.8233 78.8284 70.5395 79.7016Z" fill="white"/>
<path d="M52.9121 72.3274L46.5481 67.3675C46.5481 67.3675 49.2856 58.9327 53.2455 49.114C53.6596 49.114 54.0839 49.114 54.5082 49.114C54.596 49.1019 54.6805 49.0725 54.7568 49.0274C54.8332 48.9823 54.8997 48.9224 54.9526 48.8513C55.9628 47.3765 56.9123 45.8208 57.9831 44.4066C59.4749 42.2781 61.08 40.2312 62.7915 38.2749C64.5756 36.4578 66.4502 34.7316 68.4079 33.1029C70.3876 31.3508 72.5171 29.7757 74.772 28.3956C78.1577 26.4499 81.7851 24.9588 85.5605 23.961C86.2878 23.7388 87.0252 23.5468 87.7626 23.3448L89.2779 23.1832H89.5506C89.9042 23.2251 90.2385 23.3671 90.5141 23.5926C90.7897 23.8181 90.9951 24.1176 91.1062 24.456C91.1111 24.4996 91.1111 24.5436 91.1062 24.5873C87.5 27.5168 61.448 49.0433 52.9121 72.3274Z" fill="url(#paint3_linear)"/>
<path d="M60.2154 53.5284C61.0199 53.1048 61.7418 52.5403 62.3469 51.8616C63.5894 53.5082 64.0237 55.6093 64.8622 57.4882C65.0196 57.9505 65.3249 58.3481 65.7309 58.6196C66.0946 58.7718 66.4896 58.8341 66.8825 58.8014C67.6603 58.8014 68.4381 58.8014 69.2159 58.8014C70.0451 58.8051 70.8653 58.6293 71.6201 58.2862C72.0343 58.0842 72.4384 57.6801 72.3171 57.2761C72.1959 56.872 71.61 56.6902 71.1353 56.6902C70.5378 56.7282 69.9381 56.6737 69.3574 56.5285C68.6256 56.2116 68.0434 55.6258 67.731 54.8921C67.4074 54.2092 67.1437 53.4994 66.9431 52.7707C66.5278 51.5331 66.0144 50.3305 65.4076 49.1746C65.064 48.4547 64.5954 47.8015 64.0237 47.2452C63.7379 46.9696 63.3986 46.7557 63.0267 46.6167C62.6549 46.4777 62.2584 46.4166 61.862 46.437C60.4276 46.5886 59.4982 48.0432 58.1648 48.5887C57.5294 48.7448 56.9104 48.9613 56.3162 49.2352C55.9396 49.5099 55.6176 49.8525 55.3667 50.2453C54.5845 51.3429 54.0126 52.5759 53.6797 53.8819C55.8339 54.5208 58.1427 54.396 60.2154 53.5284Z" fill="url(#paint4_linear)"/>
<path d="M62.3672 45.5885C62.3672 45.5885 64.3875 45.4067 65.1351 46.1441C66.2994 47.4927 67.1084 49.1108 67.4887 50.8514C67.6706 51.5181 67.8928 52.1646 68.0443 52.8717C68.1396 53.4973 68.3232 54.1061 68.5898 54.6799C68.7539 55.0005 69.031 55.2489 69.3676 55.3769C69.6324 55.4376 69.9049 55.458 70.1758 55.4375C70.5138 55.4344 70.8516 55.458 71.1859 55.5083C71.2506 55.5132 71.313 55.534 71.3677 55.5689C71.4058 55.619 71.4301 55.6782 71.4385 55.7406C71.4582 55.9148 71.4323 56.0912 71.3632 56.2524C71.2941 56.4136 71.1843 56.554 71.0445 56.6598C70.1897 57.0697 69.2219 57.18 68.2969 56.973C67.1857 56.5992 66.8321 54.5385 66.4281 53.5789C65.8422 52.1747 65.2159 50.8009 64.5492 49.4372C64.4787 49.2565 64.3682 49.0942 64.2259 48.9624C64.0583 48.8523 63.8687 48.7799 63.6703 48.7503L61.2358 48.225C61.4682 47.3462 62.1147 46.4572 62.3672 45.5885Z" fill="#FFBBAB"/>
<path d="M73.2366 52.2455C76.5338 52.2455 79.2067 49.5726 79.2067 46.2754C79.2067 42.9783 76.5338 40.3054 73.2366 40.3054C69.9395 40.3054 67.2666 42.9783 67.2666 46.2754C67.2666 49.5726 69.9395 52.2455 73.2366 52.2455Z" fill="#7064E1"/>
<path d="M73.2365 50.2453C75.4291 50.2453 77.2065 48.4679 77.2065 46.2754C77.2065 44.0829 75.4291 42.3055 73.2365 42.3055C71.044 42.3055 69.2666 44.0829 69.2666 46.2754C69.2666 48.4679 71.044 50.2453 73.2365 50.2453Z" fill="#473F47"/>
<path d="M55.6294 49.4675L46.1642 68.2161L37.1839 72.2567C37.1839 72.2567 35.4363 73.4184 35.6081 71.0344C35.7798 68.6504 40.4164 55.2557 41.8003 53.397C43.1843 51.5383 47.3966 48.1442 55.6294 49.4675Z" fill="#7064E1"/>
<path d="M73.8932 64.135L57.2862 76.8832L54.8618 88.1364C55.2249 88.6173 55.7441 88.9569 56.3301 89.097C56.9162 89.237 57.5328 89.1689 58.0741 88.9041C60.347 88.1465 72.0951 80.3178 73.5599 78.55C75.0246 76.7822 77.2267 71.7718 73.8932 64.135Z" fill="#7064E1"/>
<path d="M83.116 24.7489L91.1164 30.9311C91.1164 30.9311 91.5306 24.5267 91.1164 23.1832C90.7023 21.8397 83.116 24.7489 83.116 24.7489Z" fill="#7064E1"/>
<path d="M46.5581 67.3777L44.9722 70.196L55.6294 78.3783L58.084 76.2772L46.5581 67.3777Z" fill="#7064E1"/>
<path opacity="0.36" d="M44.9723 70.1859C44.9723 70.1859 14.2028 102.955 34.3858 118.007C54.5688 133.058 77.8934 123.138 77.8934 123.138C77.8934 123.138 44.5581 130.503 39.6993 111.804C36.8607 100.864 55.6295 78.3783 55.6295 78.3783L44.9723 70.1859Z" fill="url(#paint5_linear)"/>
<path d="M110.229 99.3391L117.724 103.895H98.6926L106.188 99.0461V95.0964L104.935 93.6115V88.9041C92.672 84.6615 92.965 58.3569 92.965 58.3569H123.452C123.452 58.3569 123.452 58.4579 123.452 58.6701C123.633 61.5591 124.654 83.7018 113.168 88.5304C112.716 88.7251 112.25 88.8871 111.774 89.0153V93.0559L110.764 94.359L110.229 95.0358V99.3391Z" fill="#7064E1"/>
<path d="M94.258 81.1562C93.888 81.1688 93.5191 81.1084 93.1724 80.9784C92.8258 80.8484 92.5082 80.6514 92.2377 80.3986C91.9115 80.0422 91.6921 79.6013 91.6046 79.1261C91.517 78.651 91.5649 78.1608 91.7427 77.7116L93.1367 78.1156C93.0478 78.3225 93.0177 78.5498 93.0498 78.7726C93.0819 78.9954 93.1749 79.205 93.3185 79.3783C93.533 79.5454 93.7859 79.6561 94.0541 79.7002C94.3223 79.7443 94.5973 79.7205 94.854 79.6309C95.042 79.5945 95.2185 79.513 95.368 79.3934C95.5176 79.2737 95.6359 79.1195 95.7126 78.944C95.5914 78.5197 93.6923 76.9237 92.2175 75.5802C88.1768 72.0446 83.126 67.6504 84.7726 64.1148C84.9999 63.5587 85.3569 63.065 85.8137 62.6749C86.2706 62.2848 86.8141 62.0096 87.399 61.8723C90.6315 61.1248 94.9146 64.5997 95.0964 64.7512L94.1772 65.8725C93.0963 64.9836 89.8234 62.842 87.7222 63.2865C87.3531 63.3772 87.0114 63.556 86.7264 63.8076C86.4415 64.0592 86.2216 64.376 86.0858 64.731C84.8938 67.2766 89.8739 71.6102 93.1569 74.4791C96.0864 77.0348 97.3693 78.2066 97.1167 79.2874C96.9864 79.719 96.7437 80.1082 96.4136 80.4153C96.0835 80.7223 95.6777 80.9362 95.2378 81.035C94.9174 81.1153 94.5883 81.156 94.258 81.1562Z" fill="#7064E1"/>
<path d="M123.108 81.1562C122.784 81.1573 122.461 81.1131 122.148 81.0249C121.707 80.9277 121.299 80.7145 120.967 80.4074C120.635 80.1002 120.391 79.7102 120.259 79.2773C120.007 78.1965 121.27 77.0247 124.219 74.469C127.512 71.6001 132.493 67.2665 131.29 64.7209C131.16 64.3921 130.952 64.0994 130.685 63.8673C130.418 63.6353 130.099 63.4708 129.755 63.3875C127.462 62.8824 123.694 65.4078 122.472 66.418L121.603 65.2866C121.815 65.125 126.654 61.246 130.129 61.9834C130.691 62.1102 131.215 62.3699 131.656 62.7408C132.097 63.1116 132.443 63.5828 132.664 64.1148C134.321 67.6504 129.27 72.0446 125.219 75.5801C123.714 76.8934 121.845 78.5197 121.724 79.045C121.805 79.2975 122.219 79.5299 122.583 79.6309C122.837 79.7234 123.111 79.7488 123.379 79.7045C123.646 79.6603 123.897 79.548 124.108 79.3783C124.242 79.2011 124.324 78.9909 124.348 78.7703C124.371 78.5496 124.333 78.3268 124.24 78.1257L125.644 77.7217C125.821 78.1716 125.868 78.6626 125.779 79.1381C125.689 79.6135 125.468 80.054 125.139 80.4087C124.866 80.6614 124.547 80.8576 124.198 80.9859C123.85 81.1142 123.479 81.1721 123.108 81.1562Z" fill="#7064E1"/>
<path opacity="0.28" d="M113.188 88.5405C112.736 88.7352 112.27 88.8972 111.794 89.0254V89.1264H104.935V88.9042C92.672 84.6615 92.965 58.3569 92.965 58.3569H100.44C100.44 58.3569 97.1268 75.7822 108.269 86.3383C110.643 88.6011 111.501 88.0354 113.188 88.5405Z" fill="white"/>
<path d="M117.27 89.1163C116.807 89.184 116.338 89.184 115.875 89.1163H117.27Z" fill="#7064E1"/>
<path opacity="0.28" d="M107.178 89.1264V93.5206L108.269 94.9853V99.0562L105.319 103.915H99.6421L106.996 99.329V95.0762L105.541 93.2983V88.8738L107.178 89.1264Z" fill="white"/>
<path d="M104.935 89.1365V88.9143C92.672 84.6716 92.965 58.367 92.965 58.367H95.1368C95.1368 58.367 93.8034 81.53 105.541 88.8739L105.946 89.1365H104.935Z" fill="url(#paint6_linear)"/>
<path d="M111.794 89.0254V93.066L110.784 94.3691C108.643 93.6317 108.309 92.0558 111.794 89.0254Z" fill="#7064E1"/>
<path d="M113.188 88.5405C112.736 88.7352 112.27 88.8972 111.794 89.0254C123.149 79.1763 117.269 58.367 117.269 58.367L123.472 58.6802C123.623 61.5692 124.634 83.7119 113.188 88.5405Z" fill="url(#paint7_linear)"/>
<path d="M56.7103 31.719L57.4174 30.2745C58.0748 28.8463 58.8485 27.4746 59.7306 26.1732C61.559 23.6579 62.5086 20.6174 64.0844 17.9303C64.1878 17.7844 64.2505 17.6135 64.2662 17.4354C64.2662 17.0414 63.8016 16.8192 63.4076 16.7181C62.8903 16.5458 62.3376 16.5076 61.8015 16.607C61.5343 16.6605 61.2882 16.79 61.0929 16.9799C60.8976 17.1699 60.7613 17.4122 60.7004 17.6778C60.6938 17.9858 60.7174 18.2937 60.7711 18.597C60.7398 19.4569 60.4434 20.2861 59.9226 20.9709L55.9425 27.4157C55.3943 28.1377 55.0459 28.9913 54.9324 29.8906C54.9555 30.3595 55.1489 30.8039 55.4762 31.1404C55.8034 31.477 56.2422 31.6827 56.7103 31.719Z" fill="#FFBBAB"/>
<path d="M56.7104 31.719C57.033 31.2275 57.1524 30.63 57.0438 30.0523C56.9278 29.2923 56.9278 28.5191 57.0438 27.7592C57.2842 27.029 57.326 26.2481 57.165 25.4964C57.165 25.4964 57.165 25.4257 57.1044 25.4055C57.0802 25.3903 57.0522 25.3822 57.0236 25.3822C56.995 25.3822 56.967 25.3903 56.9428 25.4055C56.6963 25.5537 56.5129 25.7874 56.4276 26.0621C56.0033 27.0723 54.7103 28.7795 54.8922 29.8805C54.9139 30.3577 55.1119 30.8098 55.4478 31.1494C55.7836 31.4891 56.2336 31.692 56.7104 31.719Z" fill="url(#paint8_linear)"/>
<path d="M53.407 32.3756L55.4879 29.7391L57.9628 32.0019L55.6293 34.103L53.407 32.3756Z" fill="#7064E1"/>
<path d="M53.407 32.3756L55.4879 29.7391L57.9628 32.0019L55.6293 34.103L53.407 32.3756Z" fill="url(#paint9_linear)"/>
<path d="M58.7306 35.6283L59.6902 35.9617C60.0236 36.0728 60.7004 36.5173 61.0135 36.2142C61.3267 35.9112 61.0135 34.9919 61.0135 34.6586C60.8542 33.4627 60.5664 32.2874 60.1549 31.1533C60.002 30.8823 59.9077 30.5823 59.8781 30.2725C59.8485 29.9628 59.8843 29.6503 59.9832 29.3552C60.07 29.2007 60.196 29.0717 60.3485 28.9813C60.501 28.8908 60.6746 28.8421 60.8519 28.8401C61.0269 28.8429 61.1984 28.8886 61.3516 28.9731C61.5049 29.0577 61.635 29.1785 61.7307 29.3249C61.8677 29.649 61.966 29.988 62.0237 30.3351C62.1311 30.5615 62.1731 30.8134 62.1449 31.0624C62.0892 31.1732 62.0419 31.288 62.0035 31.4059C61.9965 31.5376 62.0207 31.6691 62.0742 31.7897L63.3369 35.1131C63.6867 35.8234 63.8202 36.6208 63.7207 37.4062C63.5454 37.9227 63.2004 38.3646 62.7418 38.66C62.2832 38.9553 61.7381 39.0866 61.1953 39.0326C59.991 38.9131 58.8317 38.5116 57.8113 37.8608C57.7002 37.8002 57.5689 37.6891 57.6093 37.5678C57.6399 37.5151 57.6856 37.4729 57.7406 37.4466C58.0673 37.2579 58.3416 36.9905 58.5386 36.6688C58.6486 36.5218 58.7231 36.3515 58.7564 36.171C58.7897 35.9906 58.7808 35.8048 58.7306 35.6283Z" fill="#FFBBAB"/>
<path d="M55.8821 30.224C55.858 30.3624 55.7909 30.4897 55.6902 30.5876C55.5346 30.6851 55.3579 30.744 55.175 30.7594C54.9868 30.7804 54.8082 30.8539 54.6598 30.9715C54.6368 31.0133 54.6247 31.0602 54.6247 31.1079C54.6247 31.1555 54.6368 31.2025 54.6598 31.2442L54.9325 32.4059C54.9626 32.4909 54.9626 32.5836 54.9325 32.6686C54.8787 32.769 54.7883 32.845 54.68 32.8807C54.2759 33.0726 53.7608 33.2443 53.4072 32.9716C53.2292 32.8113 53.1056 32.5994 53.0536 32.3655C52.5335 31.0758 52.2198 29.7122 52.1243 28.3249C52.0863 27.907 52.1388 27.4859 52.2783 27.0902C52.4177 26.6945 52.6409 26.3335 52.9324 26.0318C53.5 25.5713 54.2248 25.3503 54.9527 25.4156C55.1158 25.4236 55.2745 25.4709 55.4152 25.5536C55.5559 25.6363 55.6746 25.7518 55.7609 25.8904C55.872 26.0924 55.7609 26.3045 55.8316 26.5268C55.8634 26.8507 55.9208 27.1716 56.0033 27.4864C56.0447 27.6375 56.0953 27.786 56.1548 27.9309C56.2227 28.0502 56.2705 28.1799 56.2963 28.3148C56.2971 28.563 56.2419 28.8081 56.1346 29.032C56.0334 29.3063 55.9623 29.5908 55.9225 29.8805C55.9427 30.0219 55.9427 30.123 55.8821 30.224Z" fill="#FFBBAB"/>
<path d="M56.1951 25.2843C56.1547 25.5415 56.0515 25.7848 55.8947 25.9927C55.7379 26.2006 55.5323 26.3667 55.2961 26.4763C54.2051 26.9915 52.6495 26.9208 53.0637 28.4966C53.302 29.1118 53.3951 29.7738 53.3355 30.4309C53.2759 31.088 53.0653 31.7224 52.7202 32.2847C52.4677 32.6585 52.1545 32.9817 51.9323 33.3757C51.5686 33.9818 51.4575 34.7192 51.0635 35.3051C50.2756 36.4668 48.6796 36.7092 47.2855 36.7092C46.7523 36.6977 46.2224 36.7975 45.7299 37.0022C44.5884 37.5678 44.0732 39.2447 42.8105 39.3053C41.5478 39.3659 41.1135 37.7194 40.4063 36.9112C39.9233 36.4249 39.5983 35.8041 39.474 35.13C39.3496 34.4559 39.4316 33.7599 39.7093 33.1332C41.0124 30.4664 45.2652 30.6281 46.8714 28.0824C47.8613 26.6076 47.8613 24.5873 49.5786 23.6378C50.5224 23.1985 51.5586 22.9947 52.5985 23.044C53.6383 23.0932 54.6506 23.3941 55.5486 23.9206C55.7856 24.0516 55.9755 24.2537 56.0915 24.4983C56.2075 24.743 56.2437 25.0179 56.1951 25.2843Z" fill="#473F47"/>
<path d="M58.064 44.2349C58.1867 44.3346 58.3273 44.4101 58.4782 44.4571C59.007 44.587 59.5563 44.611 60.0945 44.5278C60.8718 44.4875 61.6506 44.4875 62.4279 44.5278C62.6168 44.5182 62.8039 44.5676 62.9633 44.6693C63.226 44.8915 63.1451 45.3057 63.034 45.6289C62.5498 47.0994 61.9867 48.5426 61.3471 49.9524C61.1261 50.5686 60.7421 51.1132 60.2359 51.5282C59.8361 51.7763 59.3887 51.9381 58.9227 52.003C57.9859 52.195 57.0378 52.3266 56.0841 52.397C55.1556 52.5324 54.2076 52.4065 53.3466 52.0333C52.427 51.4788 51.7492 50.5991 51.4475 49.5685C51.0607 48.5754 50.966 47.4923 51.1748 46.4471C51.4273 45.336 51.9324 45.0127 51.6192 43.8207C51.2046 42.3424 50.914 40.832 50.7505 39.3053C50.6192 37.9196 50.7494 36.5215 51.1343 35.1839C51.2873 34.5645 51.5471 33.9765 51.9021 33.4464C52.2646 32.9259 52.7966 32.5474 53.4072 32.3756C53.71 32.2977 54.0279 32.3006 54.3292 32.3839C54.6305 32.4672 54.9047 32.628 55.1245 32.8504C56.3064 34.1333 57.9226 34.204 59.2661 35.3051C59.3447 35.3555 59.4049 35.4299 59.4379 35.5172C59.4729 35.6082 59.4729 35.709 59.4379 35.8001L58.559 37.9113C58.4723 38.1385 58.3605 38.3554 58.2257 38.5578C58.1044 38.7295 57.9529 38.8709 57.8418 39.0427C57.5367 39.5589 57.3827 40.1504 57.3973 40.7498C57.3872 41.76 57.1448 43.5177 58.064 44.2349Z" fill="#7064E1"/>
<path d="M56.781 45.5885C56.6213 45.6667 56.4438 45.7013 56.2664 45.6889C56.0891 45.6765 55.9181 45.6174 55.7708 45.5178C55.0637 44.9925 55.6092 44.6289 55.7708 44.0834C55.9872 43.329 56.0457 42.538 55.9426 41.76C55.8315 40.2549 55.7102 38.7295 55.5991 37.2345C55.6597 37.6082 57.4376 38.1335 58.1346 38.6083C58.0134 38.78 57.8619 38.9214 57.7508 39.0932C56.9628 40.2448 57.377 42.5479 57.3972 43.851C57.4477 44.4773 57.3669 45.2653 56.781 45.5885Z" fill="url(#paint10_linear)"/>
<path d="M64.9734 26.153C65.2742 27.3055 65.2742 28.5159 64.9734 29.6684C64.9195 29.7228 64.8538 29.7643 64.7815 29.7896C64.7258 29.8089 64.6654 29.8089 64.6097 29.7896C64.1552 29.6987 61.5793 28.0117 58.5488 29.0724C58.3954 29.1298 58.2313 29.1525 58.0681 29.139C57.9049 29.1256 57.7467 29.0762 57.6048 28.9944C57.4629 28.9127 57.3408 28.8006 57.2473 28.6661C57.1538 28.5317 57.0912 28.3783 57.0639 28.2168C57.0366 28.0554 57.0453 27.8899 57.0895 27.7322C57.1336 27.5745 57.212 27.4285 57.3192 27.3046C57.4263 27.1808 57.5595 27.0822 57.7092 27.0158C57.8589 26.9494 58.0214 26.917 58.1851 26.9208C58.1851 26.9208 62.1551 25.5974 63.0137 23.2438C63.1248 22.8902 63.347 22.7589 63.5996 22.7993C63.7585 22.8308 63.9075 22.9001 64.034 23.0013C64.5404 23.9843 64.859 25.0532 64.9734 26.153Z" fill="#7064E1"/>
<path d="M64.9735 26.153C65.2743 27.3055 65.2743 28.5159 64.9735 29.6684C64.9591 29.6987 64.9379 29.7254 64.9117 29.7464C64.8855 29.7674 64.8548 29.7822 64.822 29.7896C64.4179 29.7896 63.8119 28.2744 63.529 26.4056C63.2462 24.5368 63.2664 23.072 63.5997 22.7993H63.6805C63.7916 22.7993 63.9028 22.87 64.0341 23.0417C64.5358 24.0123 64.8542 25.067 64.9735 26.153Z" fill="url(#paint11_linear)"/>
<path d="M70.8627 55.2759C70.7254 55.316 70.6075 55.4049 70.5312 55.5258C70.4549 55.6467 70.4255 55.7914 70.4485 55.9325C70.4485 56.0942 70.6404 56.2558 70.5697 56.4073C70.5452 56.4487 70.5115 56.4839 70.4712 56.5102C70.4309 56.5365 70.3851 56.5531 70.3374 56.5588C69.3899 56.8488 68.3689 56.7805 67.4685 56.3669C67.4464 56.4466 67.446 56.5308 67.4673 56.6107C67.4887 56.6906 67.5309 56.7634 67.5897 56.8215C67.7281 57.0777 67.9343 57.2909 68.1857 57.4377C68.3535 57.5022 68.5313 57.5365 68.711 57.5387C70.1209 57.5201 71.489 57.057 72.6203 56.2154C72.7282 56.1477 72.8238 56.0623 72.9032 55.9628C72.9372 55.9083 72.9553 55.8453 72.9553 55.781C72.9553 55.7167 72.9372 55.6537 72.9032 55.5992C72.8426 55.4477 72.6607 55.3972 72.4991 55.3669C72.2179 55.325 71.9347 55.298 71.6506 55.286C71.3913 55.2294 71.1233 55.2259 70.8627 55.2759Z" fill="#7064E1"/>
</g>
<defs>
<linearGradient id="paint0_linear" x1="107.855" y1="70.6405" x2="110.865" y2="34.5172" gradientUnits="userSpaceOnUse">
<stop offset="0.01"/>
<stop offset="0.08" stop-opacity="0.69"/>
<stop offset="0.21" stop-opacity="0.32"/>
<stop offset="1" stop-opacity="0"/>
</linearGradient>
<linearGradient id="paint1_linear" x1="597.407" y1="762.326" x2="771.476" y2="500.648" gradientUnits="userSpaceOnUse">
<stop offset="0.01"/>
<stop offset="0.08" stop-opacity="0.69"/>
<stop offset="0.21" stop-opacity="0.32"/>
<stop offset="1" stop-opacity="0"/>
</linearGradient>
<linearGradient id="paint2_linear" x1="-1148.99" y1="6407.46" x2="-1617.93" y2="6051" gradientUnits="userSpaceOnUse">
<stop offset="0.01"/>
<stop offset="0.08" stop-opacity="0.69"/>
<stop offset="0.21" stop-opacity="0.32"/>
<stop offset="1" stop-opacity="0"/>
</linearGradient>
<linearGradient id="paint3_linear" x1="24.8196" y1="38.5477" x2="119.653" y2="57.4074" gradientUnits="userSpaceOnUse">
<stop offset="0.01"/>
<stop offset="0.13" stop-opacity="0.69"/>
<stop offset="0.25" stop-opacity="0.32"/>
<stop offset="1" stop-opacity="0"/>
</linearGradient>
<linearGradient id="paint4_linear" x1="1368.79" y1="658.709" x2="1321.6" y2="1237.44" gradientUnits="userSpaceOnUse">
<stop offset="0.01"/>
<stop offset="0.13" stop-opacity="0.69"/>
<stop offset="0.25" stop-opacity="0.32"/>
<stop offset="1" stop-opacity="0"/>
</linearGradient>
<linearGradient id="paint5_linear" x1="1308.91" y1="3693.62" x2="6302.1" y2="12650.8" gradientUnits="userSpaceOnUse">
<stop offset="0.01"/>
<stop offset="0.08" stop-opacity="0.69"/>
<stop offset="0.21" stop-opacity="0.32"/>
<stop offset="1" stop-opacity="0"/>
</linearGradient>
<linearGradient id="paint6_linear" x1="1010.99" y1="2941.47" x2="1883.71" y2="2874.89" gradientUnits="userSpaceOnUse">
<stop offset="0.01"/>
<stop offset="0.13" stop-opacity="0.69"/>
<stop offset="0.25" stop-opacity="0.32"/>
<stop offset="1" stop-opacity="0"/>
</linearGradient>
<linearGradient id="paint7_linear" x1="1911.56" y1="2881.69" x2="967.926" y2="2831.02" gradientUnits="userSpaceOnUse">
<stop offset="0.01"/>
<stop offset="0.13" stop-opacity="0.69"/>
<stop offset="0.25" stop-opacity="0.32"/>
<stop offset="1" stop-opacity="0"/>
</linearGradient>
<linearGradient id="paint8_linear" x1="478.435" y1="-820.824" x2="496.514" y2="-826.178" gradientUnits="userSpaceOnUse">
<stop offset="0.01"/>
<stop offset="0.13" stop-opacity="0.69"/>
<stop offset="0.25" stop-opacity="0.32"/>
<stop offset="1" stop-opacity="0"/>
</linearGradient>
<linearGradient id="paint9_linear" x1="1281.05" y1="-650.914" x2="1343.23" y2="-670.634" gradientUnits="userSpaceOnUse">
<stop offset="0.01"/>
<stop offset="0.13" stop-opacity="0.69"/>
<stop offset="0.25" stop-opacity="0.32"/>
<stop offset="1" stop-opacity="0"/>
</linearGradient>
<linearGradient id="paint10_linear" x1="542.637" y1="-1062.66" x2="595.385" y2="-1067.7" gradientUnits="userSpaceOnUse">
<stop offset="0.01"/>
<stop offset="0.13" stop-opacity="0.69"/>
<stop offset="0.25" stop-opacity="0.32"/>
<stop offset="1" stop-opacity="0"/>
</linearGradient>
<linearGradient id="paint11_linear" x1="292.428" y1="-918.013" x2="315.818" y2="-919.983" gradientUnits="userSpaceOnUse">
<stop offset="0.01"/>
<stop offset="0.13" stop-opacity="0.69"/>
<stop offset="0.25" stop-opacity="0.32"/>
<stop offset="1" stop-opacity="0"/>
</linearGradient>
<clipPath id="clip0">
<rect width="175" height="131.897" fill="white"/>
</clipPath>
</defs>
</svg>
