<svg width="330" height="285" viewBox="0 0 330 285" fill="none" xmlns="http://www.w3.org/2000/svg">
<rect width="330" height="285" rx="20" fill="#E7E7E7"/>
<g clip-path="url(#clip0)">
<path opacity="0.18" d="M110.882 34.6647C105.78 39.9277 101.559 45.9644 97.0927 51.756C80.239 73.4743 59.4706 92.1283 44.7312 115.341C29.9918 138.553 21.971 168.69 33.7533 193.488C41.6975 210.235 57.54 222.101 74.5393 229.494C89.0834 235.907 104.816 239.183 120.711 239.108C153.928 238.718 184.725 222.5 217.237 215.521C231.647 212.456 246.425 211.146 260.674 207.393C270.771 204.742 280.653 200.797 289.019 194.599C312.223 177.485 320.428 144.804 313.579 116.788C306.73 88.7729 287.034 65.2696 263.968 47.9562C224.898 18.5388 150.795 -6.55801 110.882 34.6647Z" fill="#7064E1"/>
<path d="M52.8517 205.692C52.431 205.717 52.0241 205.851 51.6719 206.083C51.4388 206.302 51.2637 206.576 51.1621 206.879C51.0605 207.182 51.0356 207.506 51.0897 207.822C51.3884 210.986 54.9814 212.579 58.0457 213.445C75.1679 218.292 92.9146 220.571 110.706 220.209C111.778 217.589 110.2 214.502 107.902 212.855C105.604 211.208 102.739 210.603 100.004 209.859C96.1735 208.802 92.6878 206.994 88.9493 205.692C85.6016 204.528 81.6639 204.65 78.0863 204.482C69.6554 204.076 61.205 204.481 52.8517 205.692Z" fill="url(#paint0_linear)"/>
<path d="M137.396 154.717L107.328 153.744L111.058 175.194L132.363 175.876L137.396 154.717Z" fill="#7064E1"/>
<path d="M137.396 154.717L107.328 153.744L111.058 175.194L132.363 175.876L137.396 154.717Z" fill="url(#paint1_linear)"/>
<path d="M104.815 101.988C104.075 103.498 103.709 105.164 103.75 106.845C103.375 114.437 103.436 122.166 105.711 129.444C109.051 140.108 116.827 148.711 124.38 156.946C123.814 156.035 125.491 151.208 125.721 150.052C126.158 147.753 126.656 145.555 127.131 143.302C127.897 139.756 127.131 136.017 126.242 132.516C124.306 124.597 120.526 117.247 115.21 111.066C112.191 107.564 108.691 104.508 104.815 101.988Z" fill="#7064E1"/>
<path d="M104.815 101.988C104.075 103.498 103.709 105.164 103.75 106.845C103.375 114.437 103.436 122.166 105.711 129.444C109.051 140.108 116.827 148.711 124.38 156.946C123.814 156.035 125.491 151.208 125.721 150.052C126.158 147.753 126.656 145.555 127.131 143.302C127.897 139.756 127.131 136.017 126.242 132.516C124.306 124.597 120.526 117.247 115.21 111.066C112.191 107.564 108.691 104.508 104.815 101.988Z" fill="url(#paint2_linear)"/>
<path d="M138.492 127.705C141.043 122.036 143.624 116.283 144.582 110.139C145.54 103.995 144.689 97.3071 140.928 92.3582C136.071 99.7125 131.219 107.067 126.372 114.421C123.568 118.673 120.719 123.009 119.34 127.92C116.934 136.515 119.072 149.745 124.802 156.717C128.073 153.928 129.605 147.524 131.367 143.601L138.492 127.705Z" fill="#7064E1"/>
<path d="M138.492 127.705C141.043 122.036 143.624 116.283 144.582 110.139C145.54 103.995 144.689 97.3071 140.928 92.3582C136.071 99.7125 131.219 107.067 126.372 114.421C123.568 118.673 120.719 123.009 119.34 127.92C116.934 136.515 119.072 149.745 124.802 156.717C128.073 153.928 129.605 147.524 131.367 143.601L138.492 127.705Z" fill="url(#paint3_linear)"/>
<path d="M106.48 146.358C103.786 146.271 101.532 148.384 101.445 151.078C101.358 153.771 103.471 156.026 106.164 156.113L138.407 157.154C141.101 157.241 143.355 155.128 143.442 152.434C143.529 149.741 141.416 147.486 138.722 147.399L106.48 146.358Z" fill="#7064E1"/>
<path d="M188.915 145.187L199.311 169.633L231.616 174.972L221.221 146.313L188.915 145.187Z" fill="#7064E1"/>
<path d="M188.915 145.187L199.311 169.633L231.616 174.972L221.221 146.313L188.915 145.187Z" fill="url(#paint4_linear)"/>
<path d="M199.311 169.633L178.519 174.972L221.083 187.191L231.616 174.972L199.311 169.633Z" fill="url(#paint5_linear)"/>
<path d="M199.311 169.633L178.519 174.972L216.027 193.052L231.616 174.972L199.311 169.633Z" fill="#7064E1"/>
<path d="M199.311 169.633L178.519 174.972L216.027 193.052L231.616 174.972L199.311 169.633Z" fill="url(#paint6_linear)"/>
<path d="M182.809 145.187L193.197 169.633L225.511 174.972L215.115 146.313L182.809 145.187Z" fill="#7064E1"/>
<path d="M190.608 163.527L219.091 157.283L215.115 146.313L182.809 145.187L190.608 163.527Z" fill="url(#paint7_linear)"/>
<path d="M193.197 169.633L172.414 174.972L214.969 187.191L225.511 174.972L193.197 169.633Z" fill="#7064E1"/>
<path d="M193.197 169.633L172.414 174.972L214.969 187.191L225.511 174.972L193.197 169.633Z" fill="url(#paint8_linear)"/>
<path d="M214.969 187.191L216.027 193.052L171.357 179.607L172.414 174.972L214.969 187.191Z" fill="#7064E1"/>
<path d="M214.969 187.191L216.027 193.052L171.357 179.607L172.414 174.972L214.969 187.191Z" fill="url(#paint9_linear)"/>
<path d="M266.664 43.0533V152.764C266.646 153.996 266.142 155.17 265.26 156.032C264.379 156.893 263.193 157.37 261.961 157.36H261.486L138.484 143.685C137.351 143.558 136.304 143.02 135.54 142.173C134.776 141.327 134.349 140.229 134.34 139.089V55.5864C134.347 54.4392 134.778 53.3352 135.55 52.4867C136.322 51.6383 137.381 51.1051 138.522 50.9899L261.532 38.3955C262.14 38.333 262.755 38.391 263.342 38.5662C263.928 38.7414 264.474 39.0305 264.948 39.4168C265.423 39.8031 265.817 40.2791 266.107 40.8176C266.398 41.3561 266.579 41.9466 266.641 42.5553C266.657 42.7162 266.664 42.8848 266.664 43.0533Z" fill="#7064E1"/>
<path d="M266.664 43.0533V152.764C266.646 153.996 266.142 155.17 265.26 156.032C264.379 156.893 263.193 157.37 261.961 157.36H261.486L138.484 143.685C137.351 143.558 136.304 143.02 135.54 142.173C134.776 141.327 134.349 140.229 134.34 139.089V55.5864C134.347 54.4392 134.778 53.3352 135.55 52.4867C136.322 51.6383 137.381 51.1051 138.522 50.9899L261.532 38.3955C262.14 38.333 262.755 38.391 263.342 38.5662C263.928 38.7414 264.474 39.0305 264.948 39.4168C265.423 39.8031 265.817 40.2791 266.107 40.8176C266.398 41.3561 266.579 41.9466 266.641 42.5553C266.657 42.7162 266.664 42.8848 266.664 43.0533Z" fill="url(#paint10_linear)"/>
<path d="M263.577 43.0533V152.764C263.559 153.996 263.054 155.17 262.173 156.032C261.292 156.893 260.106 157.37 258.873 157.36H258.398L135.397 143.647C134.263 143.52 133.216 142.982 132.453 142.135C131.689 141.288 131.262 140.191 131.252 139.051V55.5481C131.26 54.4009 131.691 53.2969 132.463 52.4484C133.235 51.6 134.294 51.0668 135.435 50.9516L258.444 38.3955C259.053 38.333 259.668 38.391 260.254 38.5662C260.841 38.7414 261.387 39.0305 261.861 39.4168C262.336 39.8031 262.729 40.2791 263.02 40.8176C263.31 41.3561 263.492 41.9466 263.554 42.5553C263.569 42.7162 263.577 42.8848 263.577 43.0533Z" fill="#7064E1"/>
<path d="M137.396 107.779V55.5404L253.886 46.087V109.059L137.396 107.779Z" fill="white"/>
<path d="M263.577 139.012V152.802C263.559 154.034 263.054 155.209 262.173 156.07C261.292 156.931 260.106 157.409 258.873 157.398H258.398L135.397 143.685C134.263 143.558 133.216 143.02 132.453 142.173C131.689 141.327 131.262 140.229 131.252 139.089V132.018L263.577 139.012Z" fill="url(#paint11_linear)"/>
<path d="M158.195 130.746L134.271 129.505V111.096L158.234 111.449L158.195 130.746Z" fill="white"/>
<path d="M139.189 128.517C139.577 127.661 140.215 126.943 141.019 126.456C141.823 125.969 142.755 125.737 143.693 125.79C144.322 125.79 144.957 125.897 145.578 125.928C147.401 125.989 150.174 125.353 151.76 126.556C152.427 127.054 152.978 129.199 153.292 130.057C153.33 130.139 153.35 130.227 153.35 130.317C153.35 130.407 153.33 130.496 153.292 130.578C153.193 130.716 153.047 130.7 152.917 130.693C149.63 130.478 146.39 130.363 143.188 130.157L138.76 129.904C138.802 129.416 138.948 128.943 139.189 128.517Z" fill="#7064E1"/>
<path d="M145.432 126.855C145.576 126.991 145.742 127.102 145.923 127.184C146.267 127.37 146.659 127.45 147.049 127.414C147.254 127.378 147.443 127.282 147.594 127.139C147.746 126.996 147.851 126.812 147.899 126.61C147.937 126.374 147.937 126.133 147.899 125.897L147.823 125.047C147.808 124.629 147.723 124.217 147.57 123.829C147.511 123.686 147.425 123.557 147.316 123.448C147.207 123.339 147.078 123.252 146.935 123.193C146.793 123.134 146.641 123.104 146.487 123.104C146.332 123.104 146.18 123.134 146.038 123.193C145.676 123.41 145.404 123.75 145.271 124.15C144.942 125.07 144.666 126.058 145.432 126.855Z" fill="url(#paint12_linear)"/>
<path d="M147.57 123.829C147.57 123.829 146.804 126.364 145.769 126.318C144.735 126.273 145.003 125.047 145.003 125.047L147.57 123.829Z" fill="url(#paint13_linear)"/>
<path d="M143.532 122.649C143.624 123.093 143.801 123.507 143.916 123.944C143.962 124.144 144.029 124.339 144.115 124.526C144.251 124.777 144.466 124.977 144.728 125.093C144.984 125.217 145.266 125.282 145.551 125.282C145.836 125.282 146.118 125.217 146.375 125.093C146.744 124.872 147.066 124.58 147.323 124.235C147.579 123.889 147.765 123.496 147.868 123.078C148.245 122.221 148.503 121.316 148.635 120.389C148.635 119.983 148.236 119.477 148.114 119.094C147.978 118.695 147.759 118.329 147.47 118.022C147.259 117.726 147 117.467 146.704 117.256C146.35 117.072 145.949 116.998 145.553 117.045C145.157 117.091 144.784 117.255 144.482 117.516C144.254 117.676 144.059 117.879 143.908 118.114C143.612 118.771 143.5 119.497 143.586 120.213C143.48 121.021 143.462 121.837 143.532 122.649Z" fill="url(#paint14_linear)"/>
<path d="M142.659 118.351C142.474 117.883 142.361 117.39 142.322 116.888C142.284 116.771 142.284 116.645 142.322 116.528C142.391 116.359 142.56 116.313 142.667 116.176C142.897 115.9 142.72 115.41 142.728 115.034C142.739 114.821 142.807 114.614 142.924 114.435C143.041 114.256 143.203 114.111 143.395 114.015C143.747 113.862 144.13 113.793 144.513 113.816C144.767 113.768 145.029 113.782 145.276 113.859C145.523 113.935 145.748 114.07 145.93 114.253C146.13 114.49 146.229 114.827 146.444 115.019C146.88 115.471 147.554 115.203 148.114 115.364C148.366 115.467 148.587 115.635 148.753 115.852C148.918 116.069 149.023 116.326 149.056 116.597C149.133 117.187 148.941 117.853 149.224 118.344C149.331 118.488 149.423 118.642 149.5 118.803C149.539 119.003 149.523 119.209 149.454 119.401C149.245 120.147 148.949 120.867 148.573 121.546C148.519 121.678 148.429 121.792 148.313 121.875C148.19 121.944 147.991 122.764 147.922 122.641C147.857 122.164 147.896 121.677 148.037 121.216C148.162 121.071 148.265 120.909 148.343 120.734C148.398 120.594 148.399 120.44 148.349 120.299C148.298 120.158 148.198 120.041 148.068 119.968C147.969 119.923 147.857 119.919 147.755 119.956C147.653 119.993 147.57 120.069 147.524 120.167C147.654 119.232 147.233 118.114 146.467 117.869C146 117.793 145.523 117.9 145.134 118.167C144.276 118.734 143.333 119.845 142.659 118.351Z" fill="#DD8049"/>
<path d="M147.846 120.427C147.852 120.409 147.861 120.391 147.875 120.377C147.888 120.362 147.904 120.351 147.922 120.343C147.944 120.338 147.966 120.34 147.987 120.348C148.007 120.356 148.025 120.37 148.037 120.389C148.104 120.432 148.153 120.497 148.175 120.573C148.19 120.633 148.19 120.696 148.175 120.757C148.153 120.876 148.114 120.993 148.06 121.101C148.037 121.154 148.001 121.2 147.956 121.235C147.91 121.27 147.856 121.292 147.8 121.301C147.754 121.301 147.685 121.163 147.685 121.109C147.685 121.056 147.731 121.025 147.754 120.979C147.772 120.793 147.803 120.609 147.846 120.427Z" fill="url(#paint15_linear)"/>
<path d="M255.717 135.925L222.262 134.186L222.416 112.514L255.939 113.012L255.717 135.925Z" fill="white"/>
<path d="M219.719 134.125L189.957 132.577L190.049 112.1L219.865 112.544L219.719 134.125Z" fill="white"/>
<path d="M187.375 132.439L160.762 131.061L160.8 111.671L187.459 112.062L187.375 132.439Z" fill="white"/>
<path d="M201.479 114.368C202.581 114.022 203.755 113.977 204.88 114.237C205.538 114.308 206.173 114.519 206.742 114.858C207.767 115.696 208.419 116.904 208.557 118.221C208.709 119.549 208.965 120.863 209.323 122.151C209.829 123.599 210.856 124.848 211.193 126.349C211.488 127.46 211.331 128.643 210.757 129.64C210.183 130.636 209.238 131.364 208.128 131.666C207.789 131.74 207.441 131.768 207.094 131.75C206.213 131.704 205.355 131.352 204.482 131.313C202.674 131.221 200.95 132.47 199.211 131.995C197.786 131.604 196.783 130.141 196.216 128.67C195.802 127.772 195.694 126.763 195.909 125.798C196.292 124.534 197.533 123.829 198.093 122.634C198.805 121.14 198.284 119.324 198.859 117.8C199.38 116.398 200.038 114.912 201.479 114.368Z" fill="#606161"/>
<path d="M207.653 127.131C208.642 127.376 209.752 127.33 210.557 127.981C211.045 128.422 211.37 129.016 211.476 129.666C211.582 130.307 211.608 130.958 211.553 131.604L211.476 133.512C211.481 133.583 211.462 133.653 211.422 133.711C211.36 133.749 211.288 133.765 211.216 133.757L196.223 132.991C195.968 131.973 196.111 130.897 196.622 129.98C196.982 129.214 197.487 128.525 198.108 127.95C199.004 127.253 201.103 127.276 202.099 126.702C202.36 126.548 202.099 126.311 202.421 126.242C202.743 126.173 202.582 125.79 202.873 125.798C203.758 125.759 204.644 125.836 205.508 126.027C206.199 126.44 206.916 126.809 207.653 127.131Z" fill="#7064E1"/>
<path d="M201.778 127.437C201.699 127.686 201.648 127.943 201.624 128.203C201.622 128.501 201.69 128.795 201.823 129.061C201.956 129.328 202.151 129.558 202.39 129.735C202.625 129.901 202.899 130.003 203.184 130.032C203.47 130.062 203.759 130.018 204.022 129.904C204.605 129.605 205.046 129.087 205.248 128.464C205.462 127.816 205.571 127.138 205.57 126.456C205.593 125.543 205.547 124.628 205.432 123.721C205.453 123.578 205.42 123.432 205.339 123.311C205.259 123.191 205.136 123.105 204.995 123.07H204.88C204.38 122.98 203.864 123.07 203.424 123.324C202.984 123.578 202.647 123.979 202.475 124.457C202.369 124.786 202.297 125.125 202.26 125.468C202.153 126.165 201.915 126.801 201.778 127.437Z" fill="url(#paint16_linear)"/>
<path d="M202.145 126.073C202.145 126.073 202.053 126.908 202.398 127.23C202.743 127.552 204.114 128.333 204.788 127.345C205.2 126.679 205.462 125.932 205.554 125.154L202.145 126.073Z" fill="url(#paint17_linear)"/>
<path d="M200.276 123.269C200.452 123.882 201.486 126.066 202.942 126.518C206.083 127.491 207.086 121.485 206.933 120.213C206.731 119.162 206.231 118.191 205.493 117.417C205.108 117.075 204.632 116.853 204.123 116.779C203.614 116.704 203.095 116.779 202.628 116.995C200.169 118.075 199.51 120.649 200.276 123.269Z" fill="url(#paint18_linear)"/>
<path d="M199.288 119.914C199.314 120.037 199.372 120.151 199.457 120.244C199.542 120.337 199.65 120.406 199.77 120.443C200.023 120.496 200.268 120.32 200.536 120.243C200.805 120.167 201.165 120.197 201.456 120.09C201.747 119.983 202 119.585 201.816 119.324C201.732 119.746 202.23 120.029 202.582 119.998C202.961 119.879 203.367 119.879 203.746 119.998L203.9 119.171C203.872 119.34 203.903 119.514 203.986 119.664C204.07 119.814 204.201 119.932 204.359 119.998C204.657 120.128 204.992 120.144 205.301 120.044C205.439 120.044 205.616 119.899 205.562 119.753C205.876 120.182 206.497 120.021 206.964 119.822C207.038 119.797 207.103 119.749 207.148 119.684C207.178 119.597 207.178 119.503 207.148 119.416C206.996 118.595 206.739 117.796 206.382 117.041C206.21 116.675 205.963 116.349 205.657 116.085C205.35 115.821 204.992 115.625 204.604 115.509C204.166 115.44 203.719 115.455 203.287 115.555C202.127 115.735 201.08 116.352 200.36 117.279C199.793 117.869 199.066 119.002 199.288 119.914Z" fill="#606161"/>
<path d="M235.232 115.172C236.478 114.813 237.794 114.765 239.063 115.034C239.798 115.112 240.509 115.339 241.154 115.701C243.238 117.003 242.686 118.765 242.901 120.764C242.911 121.091 243.006 121.41 243.177 121.689C243.347 121.969 243.587 122.199 243.874 122.358C244.272 122.542 244.755 122.542 245.092 122.825C245.26 123.009 245.377 123.234 245.431 123.477C245.485 123.721 245.474 123.974 245.398 124.212C245.283 124.694 245.038 125.131 244.938 125.614C244.883 125.803 244.902 126.006 244.992 126.181C245.138 126.403 245.429 126.456 245.674 126.564C245.954 126.726 246.19 126.954 246.359 127.23C246.529 127.505 246.628 127.819 246.647 128.142C246.731 128.785 246.647 129.429 246.685 130.065C246.746 130.468 246.777 130.875 246.777 131.283C246.672 131.886 246.36 132.435 245.894 132.833C245.429 133.232 244.839 133.455 244.226 133.466C242.995 133.467 241.78 133.189 240.671 132.654C239.574 132.115 238.362 131.852 237.14 131.888C235.868 132.033 234.52 132.823 233.401 132.125C233.088 131.898 232.835 131.598 232.664 131.251C232.493 130.904 232.41 130.52 232.421 130.134C232.451 129.371 232.611 128.62 232.896 127.912C233.004 127.69 233.025 127.436 232.957 127.199C232.849 127.021 232.702 126.869 232.528 126.755C230.919 125.384 231.547 120.45 232.244 118.78C232.865 117.317 233.616 115.747 235.232 115.172Z" fill="#FBB03B"/>
<path d="M242.142 128.709C243.245 128.977 244.502 128.931 245.406 129.628C245.948 130.087 246.314 130.721 246.44 131.421C246.549 132.099 246.575 132.789 246.517 133.474L246.425 135.496C246.431 135.57 246.41 135.644 246.363 135.703C246.295 135.747 246.214 135.766 246.134 135.757L229.28 134.929C229.139 134.395 229.106 133.838 229.183 133.291C229.259 132.744 229.443 132.218 229.724 131.742C230.139 130.925 230.708 130.196 231.402 129.597C232.413 128.831 234.765 128.885 235.891 128.28C236.182 128.126 235.891 127.874 236.251 127.805C236.611 127.736 236.435 127.322 236.757 127.33C237.751 127.288 238.747 127.371 239.721 127.575C240.579 127.858 241.231 128.486 242.142 128.709Z" fill="#7064E1"/>
<path d="M235.531 129.023C235.44 129.293 235.384 129.574 235.362 129.858C235.355 130.186 235.432 130.511 235.584 130.802C235.737 131.093 235.961 131.34 236.236 131.52C236.504 131.695 236.811 131.802 237.13 131.832C237.448 131.863 237.77 131.816 238.067 131.696C238.389 131.547 238.677 131.334 238.915 131.071C239.154 130.808 239.337 130.499 239.453 130.164C239.691 129.482 239.813 128.765 239.813 128.042C239.845 127.075 239.797 126.106 239.668 125.146C239.693 124.989 239.655 124.829 239.564 124.699C239.472 124.569 239.334 124.479 239.178 124.449H239.055C238.503 124.35 237.934 124.441 237.441 124.708C236.948 124.976 236.561 125.403 236.343 125.92C236.224 126.265 236.141 126.622 236.098 126.985C235.96 127.674 235.723 128.349 235.531 129.023Z" fill="url(#paint19_linear)"/>
<path d="M235.952 127.583C235.952 127.583 235.845 128.456 236.236 128.801C236.626 129.145 238.159 129.98 238.917 128.938C239.384 128.248 239.693 127.464 239.821 126.64L235.952 127.583Z" fill="url(#paint20_linear)"/>
<path d="M233.861 124.602C234.052 125.254 235.209 127.567 236.841 128.05C240.373 129.092 241.514 122.733 241.353 121.385C241.121 120.256 240.559 119.221 239.737 118.413C239.297 118.043 238.762 117.805 238.193 117.725C237.624 117.645 237.044 117.727 236.519 117.961C233.754 119.102 233.011 121.822 233.861 124.602Z" fill="url(#paint21_linear)"/>
<path d="M168.246 124.189C169.362 123.744 170.563 123.553 171.763 123.63C173.082 123.507 174.41 123.759 175.593 124.357C176.12 124.726 176.587 125.173 176.98 125.683C177.126 125.846 177.25 126.029 177.347 126.227C177.44 126.471 177.477 126.732 177.455 126.993V130.624C177.471 130.862 177.432 131.101 177.34 131.321C177.041 131.919 178.106 131.957 177.34 131.919L165.32 131.313C165.504 131.313 165.711 129.306 165.703 129.107C165.589 128.451 165.625 127.778 165.81 127.138C166.26 125.905 167.12 124.864 168.246 124.189Z" fill="#7064E1"/>
<path d="M171.272 125.583C171.442 125.759 171.647 125.897 171.875 125.987C172.102 126.076 172.346 126.116 172.59 126.104C172.895 126.012 173.165 125.826 173.36 125.573C173.555 125.321 173.666 125.013 173.678 124.694C173.762 124.051 173.632 123.377 173.678 122.726C173.731 122.316 173.731 121.902 173.678 121.492C173.564 121.065 173.286 120.7 172.904 120.477C172.522 120.255 172.068 120.193 171.64 120.305C171.283 120.395 170.967 120.603 170.744 120.895C170.184 121.592 170.353 122.427 170.322 123.308C170.311 123.733 170.39 124.155 170.554 124.547C170.717 124.939 170.962 125.292 171.272 125.583Z" fill="#A67C52"/>
<path d="M170.437 122.526C170.437 122.526 171.058 124.641 172.268 124.694C173.479 124.748 173.662 124.036 173.662 124.036L173.609 122.902L170.437 122.526Z" fill="url(#paint22_linear)"/>
<path d="M174.812 120.152C174.795 120.77 174.705 121.385 174.543 121.982C174.39 122.555 174.061 123.064 173.601 123.438C173.287 123.657 172.918 123.783 172.535 123.801C172.153 123.818 171.773 123.727 171.441 123.538C170.728 123.122 170.176 122.48 169.87 121.714C169.518 120.93 169.303 120.09 169.234 119.232C169.186 118.581 169.291 117.928 169.541 117.325C169.677 117.04 169.87 116.786 170.109 116.579C170.347 116.372 170.626 116.216 170.927 116.122C171.504 115.955 172.107 115.898 172.705 115.953C173.204 115.955 173.695 116.075 174.137 116.306C174.392 116.453 174.597 116.673 174.726 116.938C174.854 117.203 174.9 117.501 174.857 117.792C174.758 118.558 174.85 119.378 174.812 120.152Z" fill="#A67C52"/>
<path d="M170.016 119.707C169.863 119.608 169.778 119.362 169.61 119.339C169.554 119.34 169.499 119.358 169.454 119.391C169.409 119.424 169.375 119.47 169.357 119.523C169.327 119.641 169.327 119.765 169.357 119.883C169.395 120.168 169.518 120.435 169.709 120.649C169.797 120.726 169.868 120.82 169.916 120.925C169.931 121.011 169.931 121.1 169.916 121.186L169.847 121.799C169.708 121.727 169.585 121.626 169.487 121.504C169.389 121.381 169.319 121.238 169.28 121.086C169.234 120.956 169.196 120.703 169.043 120.665C168.89 120.627 168.798 120.841 168.622 120.665C168.559 120.601 168.518 120.52 168.503 120.433C168.488 120.345 168.5 120.255 168.537 120.175C168.369 120.381 168.024 120.175 167.986 119.899C167.979 119.762 168.008 119.626 168.072 119.505C168.135 119.384 168.23 119.282 168.346 119.209C168.206 119.151 168.084 119.058 167.991 118.938C167.899 118.819 167.839 118.677 167.817 118.527C167.817 118.206 168.062 117.876 168.33 117.968C168.237 117.827 168.187 117.662 168.187 117.493C168.187 117.324 168.237 117.159 168.33 117.018C168.418 116.897 168.534 116.798 168.666 116.729C168.799 116.66 168.947 116.622 169.097 116.62V115.693C169.088 115.488 169.127 115.283 169.211 115.095C169.319 114.935 169.564 114.866 169.679 115.034C169.717 114.597 169.809 114.084 170.161 113.939C170.295 113.912 170.433 113.916 170.566 113.949C170.698 113.982 170.822 114.044 170.927 114.13C170.936 113.95 170.999 113.776 171.108 113.632C171.218 113.489 171.369 113.382 171.54 113.326C171.706 113.287 171.879 113.29 172.043 113.334C172.208 113.378 172.358 113.462 172.483 113.579C172.519 113.611 172.56 113.637 172.605 113.655C172.66 113.671 172.719 113.671 172.774 113.655C172.957 113.537 173.17 113.47 173.388 113.462C173.606 113.454 173.823 113.505 174.015 113.609C174.174 113.795 174.295 114.01 174.37 114.243C174.445 114.476 174.473 114.721 174.451 114.965C174.451 114.766 174.72 114.751 174.896 114.804C175.1 114.849 175.284 114.956 175.424 115.111C175.518 115.293 175.562 115.496 175.553 115.7C175.543 115.904 175.48 116.103 175.371 116.275C175.56 116.294 175.736 116.383 175.864 116.525C175.991 116.667 176.061 116.851 176.06 117.041C176.114 117.738 175.516 117.738 175.195 118.106C174.972 118.351 174.873 118.727 174.628 118.941C174.478 119.038 174.304 119.09 174.126 119.09C173.948 119.09 173.773 119.038 173.624 118.941C173.314 118.741 173.017 118.521 172.735 118.282C172.599 118.167 172.423 118.109 172.245 118.121C172.008 118.175 171.87 118.466 171.655 118.604C171.557 118.656 171.45 118.688 171.339 118.697C171.228 118.706 171.117 118.693 171.012 118.658C170.751 118.589 170.453 118.52 170.246 118.796C170.124 119.086 170.046 119.393 170.016 119.707Z" fill="#606161"/>
<path opacity="0.5" d="M169.74 119.998C169.731 119.943 169.71 119.891 169.679 119.845C169.668 119.822 169.652 119.803 169.632 119.788C169.612 119.773 169.589 119.764 169.564 119.761C169.54 119.77 169.518 119.786 169.502 119.806C169.486 119.826 169.476 119.85 169.472 119.876C169.464 119.929 169.464 119.983 169.472 120.037C169.496 120.142 169.532 120.245 169.579 120.343C169.601 120.409 169.638 120.47 169.686 120.519C169.739 120.565 169.802 120.596 169.87 120.611H169.947C169.95 120.603 169.952 120.594 169.952 120.584C169.952 120.575 169.95 120.566 169.947 120.558C169.947 120.466 170.001 120.274 169.947 120.19C169.893 120.106 169.87 120.19 169.832 120.136C169.788 120.101 169.756 120.053 169.74 119.998Z" fill="url(#paint23_linear)"/>
<path d="M238.603 120.68C238.684 120.665 238.767 120.665 238.848 120.68C238.94 120.72 239.017 120.787 239.07 120.872C239.264 121.147 239.529 121.364 239.836 121.5C239.984 121.572 240.151 121.594 240.312 121.563C240.474 121.533 240.621 121.452 240.733 121.331C240.943 121.563 241.171 121.778 241.414 121.975C241.467 122.03 241.538 122.065 241.614 122.074C241.828 122.074 241.843 121.753 241.782 121.546L240.924 118.742C240.839 118.368 240.671 118.017 240.434 117.715C239.922 117.302 239.275 117.095 238.618 117.133C237.653 117.072 234.374 117.034 234.206 118.497C233.968 120.32 237.416 120.856 238.603 120.68Z" fill="#FBB03B"/>
<path d="M180.013 66.8707C182.311 66.005 184.855 66.1812 187.314 66.5873C188.723 66.7464 190.083 67.2005 191.305 67.9202C193.565 69.4524 194.676 72.3405 195.197 75.1444C195.718 77.9482 195.81 80.8746 196.729 83.5712C197.825 86.6969 200.023 89.3628 200.743 92.588C201.915 97.8356 198.92 102.961 194.094 104.01C193.367 104.166 192.622 104.222 191.88 104.179C189.988 104.087 188.149 103.328 186.272 103.244C182.396 103.053 178.703 105.734 174.965 104.707C171.9 103.865 169.755 100.739 168.53 97.5752C167.764 95.6064 167.266 93.4077 167.871 91.4465C168.706 88.727 171.364 87.2101 172.559 84.6591C174.091 81.4492 172.973 77.5499 174.283 74.2787C175.493 71.222 176.918 68.0352 180.013 66.8707Z" fill="#DD8049"/>
<path d="M193.266 94.2581C195.381 94.7943 197.763 94.6794 199.495 96.0967C200.551 97.0377 201.249 98.3153 201.471 99.7126C201.686 101.086 201.739 102.479 201.632 103.865L201.471 107.963C201.486 108.112 201.442 108.26 201.349 108.377C201.287 108.423 201.216 108.456 201.141 108.473C201.066 108.49 200.988 108.491 200.912 108.476L167.633 108.109C167.089 105.887 168.491 102.363 169.579 100.448C170.491 98.8392 171.341 97.2228 172.774 96.089C174.704 94.5568 179.201 94.6258 181.339 93.3924C181.898 93.0783 181.4 92.565 182.028 92.4195C182.656 92.2739 182.38 91.4466 182.993 91.4619C184.748 91.5308 186.946 91.37 188.662 91.9445C190.378 92.5191 191.527 93.8137 193.266 94.2581Z" fill="#7064E1"/>
<path d="M180.649 94.9169C180.475 95.4694 180.364 96.04 180.32 96.6176C180.308 97.2707 180.455 97.9169 180.747 98.5011C181.039 99.0854 181.468 99.5903 181.997 99.973C182.504 100.321 183.091 100.536 183.703 100.597C184.315 100.659 184.932 100.565 185.498 100.325C186.118 100.013 186.67 99.5822 187.122 99.0563C187.574 98.5304 187.918 97.9203 188.134 97.2611C188.593 95.8752 188.824 94.4235 188.815 92.9634C188.874 91.0004 188.78 89.0358 188.532 87.0876C188.581 86.779 188.51 86.4635 188.336 86.2048C188.161 85.946 187.894 85.7632 187.59 85.6933H187.36C186.284 85.5018 185.175 85.6966 184.229 86.2433C183.283 86.7899 182.56 87.6533 182.189 88.681C181.973 89.3886 181.822 90.1142 181.737 90.849C181.453 92.1897 181.009 93.5456 180.649 94.9169Z" fill="url(#paint24_linear)"/>
<path d="M181.446 91.9981C181.446 91.9981 181.247 93.7754 181.982 94.4726C182.717 95.1697 185.659 96.8474 187.107 94.7254C188.013 93.2996 188.601 91.6952 188.831 90.0216L181.446 91.9981Z" fill="url(#paint25_linear)"/>
<path d="M177.401 85.9538C177.776 87.2714 179.99 91.9522 183.108 92.9174C189.865 95.0088 192.01 82.131 191.688 79.3961C191.268 77.1402 190.204 75.0542 188.624 73.3901C187.803 72.6552 186.784 72.1784 185.695 72.019C184.605 71.8596 183.492 72.0247 182.495 72.4937C177.202 74.8379 175.792 80.3537 177.401 85.9538Z" fill="url(#paint26_linear)"/>
<path d="M205.539 92.1437C205.581 91.0256 205.719 89.9132 205.953 88.8189C206.083 88.3177 206.16 87.8041 206.182 87.2867C206.182 86.7658 206.045 86.2525 205.999 85.7546C205.965 85.1498 206.001 84.5432 206.106 83.9466C206.204 83.4758 206.23 82.9927 206.182 82.514C206.137 82.2459 205.884 81.6714 205.508 81.8322C205.294 81.9242 205.301 82.2229 205.324 82.4604C205.447 83.1343 205.325 83.8299 204.98 84.4216C204.991 83.8436 204.968 83.2655 204.911 82.6903C204.898 82.3968 204.862 82.1048 204.804 81.8169C204.789 81.6904 204.766 81.5651 204.735 81.4415C204.681 81.3117 204.635 81.1786 204.597 81.0432C204.528 80.7751 204.528 80.4993 204.482 80.2311C204.463 80.1123 204.437 79.9947 204.405 79.8787C204.403 79.652 204.341 79.4298 204.225 79.2347C204.109 79.0397 203.944 78.8786 203.746 78.7679C203.615 78.7044 203.465 78.6903 203.325 78.7283C203.184 78.7663 203.062 78.8538 202.98 78.9748C202.972 79.0049 202.972 79.0365 202.98 79.0667C203.02 79.7367 203.125 80.4013 203.294 81.0508C203.35 81.3849 203.376 81.7234 203.371 82.0621C203.386 82.2354 203.386 82.4097 203.371 82.583C203.336 82.7338 203.315 82.8878 203.31 83.0426L202.812 80.0932C202.72 79.5493 202.72 77.9329 201.801 78.0938C201.662 78.1324 201.538 78.2126 201.447 78.3235C201.355 78.4345 201.299 78.5708 201.287 78.7143C201.258 79.0056 201.286 79.2998 201.371 79.58C201.594 80.5529 202 81.8093 201.371 82.7362C201.241 81.5525 201.036 80.3781 200.759 79.2199C200.73 79.0289 200.642 78.8518 200.506 78.7143C200.362 78.631 200.19 78.6085 200.029 78.6516C199.868 78.6947 199.731 78.7999 199.648 78.9441C199.645 78.9696 199.645 78.9953 199.648 79.0207C199.528 79.363 199.507 79.7319 199.587 80.0856C199.852 82.0048 199.988 83.9397 199.993 85.8771C199.487 85.992 199.02 85.6014 198.529 85.4328C198.3 85.357 198.058 85.3275 197.818 85.3459C197.577 85.3643 197.342 85.4303 197.127 85.5401C197.056 85.57 196.992 85.6174 196.944 85.678C196.913 85.7441 196.898 85.8159 196.898 85.8886C196.898 85.9613 196.913 86.0332 196.944 86.0993C197.319 86.9343 198.361 87.2331 198.974 87.9149C199.158 88.1217 199.303 88.3592 199.464 88.5814C200.032 89.1503 200.526 89.7886 200.935 90.4813C201.152 91.1174 201.192 91.8008 201.05 92.4578C200.998 92.6156 200.983 92.7832 201.005 92.9477C201.028 93.1123 201.088 93.2696 201.18 93.4077C201.284 93.5054 201.41 93.5764 201.548 93.6145C202.206 93.8274 202.91 93.8579 203.585 93.7028C204.259 93.5477 204.879 93.2127 205.378 92.7336" fill="url(#paint27_linear)"/>
<path d="M199.165 108.844V92.6263L208.182 91.8296L209.576 108.829L199.165 108.844Z" fill="#7064E1"/>
<path d="M182.089 76.9753C181.461 77.8312 180.606 78.4939 179.62 78.8879C178.634 79.282 177.557 79.3917 176.512 79.2046C176.454 79.1966 176.399 79.176 176.35 79.1442C176.301 79.1124 176.26 79.0703 176.229 79.0207C176.213 78.9552 176.213 78.8871 176.229 78.8216L176.995 73.9799C177.064 73.2402 177.285 72.5228 177.646 71.8732C178.105 71.2698 178.694 70.7775 179.37 70.433C180.083 69.9501 180.894 69.6285 181.745 69.4907C183.154 69.3605 183.736 71.2297 183.683 72.3329C183.644 73.8191 183.185 75.8798 182.089 76.9753Z" fill="#DD8049"/>
<path d="M185.828 73.6046C186.658 75.3004 188.034 76.6682 189.735 77.4886L193.964 79.9707C193.402 78.9041 192.992 77.7644 192.745 76.5846C192.615 75.7538 192.431 74.9323 192.194 74.1255C191.67 72.7409 190.664 71.5926 189.359 70.8926C188.417 70.3717 185.759 69.3068 184.763 70.0423C183.575 70.8697 185.33 72.7848 185.828 73.6046Z" fill="#DD8049"/>
<path d="M77.9407 203.715C77.5633 204.183 77.3364 204.754 77.2899 205.353C77.2434 205.952 77.3795 206.551 77.6803 207.071C77.9917 207.577 78.4582 207.969 79.0103 208.188C79.5625 208.408 80.1708 208.443 80.7446 208.289C80.9433 208.238 81.1271 208.141 81.2808 208.006C81.6103 207.691 81.6562 207.155 81.9626 206.818C82.2868 206.559 82.6719 206.388 83.0811 206.32C83.8061 206.061 84.4879 205.695 85.1036 205.232C85.2145 205.176 85.3068 205.089 85.3693 204.982C85.4318 204.874 85.4619 204.751 85.456 204.627C85.6032 203.952 85.4998 203.247 85.1649 202.643C84.9789 202.421 84.7528 202.237 84.4984 202.099C84.014 201.799 83.459 201.633 82.8896 201.616C82.4508 201.648 82.0194 201.746 81.6103 201.908C80.4446 202.243 79.3511 202.791 78.3851 203.524" fill="#7064E1"/>
<path d="M80.2084 198.345L78.2549 205.071C78.2549 205.071 78.6226 206.764 80.691 206.052C82.7594 205.34 84.5214 200.038 84.5214 200.038L80.2084 198.345Z" fill="#A67C52"/>
<path d="M100.839 212.411C101.371 212.329 101.909 212.293 102.448 212.303C102.719 212.314 102.986 212.38 103.231 212.497C103.476 212.614 103.694 212.78 103.873 212.985C104.126 213.398 104.225 213.887 104.154 214.366C104.082 214.845 103.845 215.284 103.482 215.605C102.747 216.211 101.848 216.585 100.9 216.678C100.313 216.816 99.7022 216.816 99.1152 216.678C98.3951 216.471 97.6979 215.866 96.9778 216.088C96.6669 216.223 96.3778 216.404 96.1198 216.624C95.6232 216.985 95.0077 217.143 94.3985 217.066C93.7893 216.99 93.2323 216.683 92.841 216.21C92.6249 215.901 92.4642 215.556 92.366 215.191C92.0673 214.027 92.1975 212.587 93.1321 211.897C94.2736 211.078 95.1622 211.637 96.2577 212.02C97.7381 212.482 99.3016 212.615 100.839 212.411Z" fill="#7064E1"/>
<path d="M99.8889 205.891L97.0315 212.893C97.0315 212.893 95.392 213.874 94.2276 213.437L93.0632 213L94.0667 203.21L99.8889 205.891Z" fill="#A67C52"/>
<path d="M122.381 112.59C122.343 112.276 122.327 111.901 122.573 111.717C122.818 111.533 122.948 111.579 123.048 111.418C123.101 111.309 123.117 111.185 123.094 111.066C123.083 110.428 123.142 109.791 123.27 109.166C123.3 108.742 123.44 108.332 123.676 107.979C123.876 107.758 124.137 107.601 124.425 107.526C124.713 107.451 125.017 107.462 125.3 107.557C125.88 107.763 126.367 108.171 126.671 108.706C126.972 109.234 127.197 109.801 127.338 110.392C127.465 110.805 127.539 111.232 127.56 111.663C127.56 112.989 126.663 114.084 126.234 115.325C126.196 115.466 126.128 115.596 126.035 115.708C125.933 115.786 125.812 115.836 125.685 115.855C125.558 115.874 125.428 115.86 125.307 115.816C124.532 115.673 123.81 115.323 123.216 114.804C122.711 114.173 122.419 113.398 122.381 112.59Z" fill="#A67C52"/>
<path d="M83.6863 159.237C83.6863 159.237 84.123 166.622 84.9197 170.23C85.7164 173.838 86.1914 177.945 86.1914 177.945L78.8907 198.943C78.8907 198.943 83.3339 201.9 86.1914 200.751C89.0489 199.602 96.273 183.476 96.273 183.476L99.0233 165.143L91.7455 156.778L83.6863 159.237Z" fill="#473F47"/>
<path d="M103.857 157.758C103.857 157.758 109.067 174.827 109.067 179.255C109.067 183.683 102.823 205.508 102.823 205.508C102.823 205.508 96.0508 207.806 94.4651 205.508L92.8793 203.21L96.7097 181.223C96.7097 181.223 91.3471 169.732 90.3589 166.783C89.7762 164.966 89.3633 163.099 89.1255 161.206L103.857 157.758Z" fill="#473F47"/>
<path d="M101.643 111.043C102.253 112.257 102.642 113.569 102.792 114.919C102.868 115.592 102.766 116.272 102.498 116.893C102.229 117.514 101.802 118.054 101.26 118.458C100.932 118.62 100.624 118.818 100.341 119.048C99.368 120.044 100.486 121.86 99.9196 123.155C99.698 123.575 99.3294 123.898 98.8842 124.064C98.439 124.229 97.9485 124.224 97.5064 124.051C97.0686 123.857 96.679 123.569 96.3651 123.208C96.0513 122.846 95.8211 122.42 95.6908 121.959C95.4403 121.018 95.3293 120.045 95.3614 119.071L95.2618 113.28C95.1324 111.989 95.3327 110.687 95.844 109.495C96.1928 108.89 96.7026 108.394 97.3166 108.061C97.9305 107.729 98.6247 107.573 99.322 107.611C100.739 107.787 101.153 109.909 101.643 111.043Z" fill="#A67C52"/>
<path d="M120.581 136.117C119.73 136.349 118.861 136.513 117.984 136.607C113.826 137.203 109.749 138.262 105.826 139.763C105.555 139.848 105.307 139.992 105.098 140.185C104.907 140.452 104.783 140.762 104.738 141.089C103.635 146.489 103.972 152.258 103.834 157.766C102.46 158.57 101.032 159.276 99.5595 159.88C97.154 160.869 94.1127 161.78 91.462 161.535C86.0995 161.045 83.6863 159.237 83.6863 159.237L87.0035 125.989C87.0035 125.989 93.293 121.462 95.4303 122.159C96.9688 122.427 98.542 122.427 100.08 122.159C103.191 121.745 106.362 125.989 106.362 125.989C106.592 128.877 115.555 128.448 117.677 128.287C117.994 128.293 118.308 128.219 118.589 128.073C118.857 127.851 119.062 127.563 119.186 127.238C120.872 123.66 122.596 119.914 122.527 115.953C122.527 115.341 122.527 114.575 123.116 114.337C123.33 114.271 123.556 114.258 123.775 114.299C124.922 114.383 126.057 114.589 127.161 114.912C126.303 117.892 127.361 121.04 127.1 124.166C126.828 126.247 126.255 128.278 125.399 130.195C124.572 132.309 123.607 134.592 121.569 135.68C121.253 135.853 120.922 135.999 120.581 136.117Z" fill="white"/>
<path d="M101.276 104.807C101.344 104.163 101.59 103.551 100.984 103.045C100.717 102.842 100.382 102.75 100.048 102.787C99.7148 102.824 99.4082 102.988 99.1918 103.244C99.0714 102.969 98.8893 102.724 98.6595 102.53C98.4297 102.337 98.1583 102.198 97.8665 102.126C97.4145 102.018 96.8093 102.179 96.748 102.647C96.4128 102.078 95.8652 101.665 95.2259 101.5C94.5866 101.335 93.9078 101.43 93.3389 101.766C93.0891 101.916 92.8664 102.108 92.6801 102.333L91.2935 101.873C90.8497 101.66 90.345 101.611 89.8686 101.735C89.409 101.911 89.1485 102.593 89.5239 102.899C89.2504 102.89 88.9814 102.97 88.758 103.128C88.5346 103.286 88.3693 103.513 88.2875 103.774C88.2057 104.035 88.2119 104.316 88.3052 104.573C88.3984 104.83 88.5736 105.05 88.8038 105.198C88.6866 105.282 88.5875 105.389 88.512 105.512C88.4365 105.635 88.3863 105.771 88.3642 105.914C88.3421 106.057 88.3485 106.202 88.3832 106.342C88.4179 106.482 88.4802 106.614 88.5663 106.73C88.6495 106.848 88.7565 106.947 88.8804 107.021C88.5129 107.1 88.1909 107.32 87.9834 107.634C87.7758 107.947 87.6991 108.329 87.7695 108.699C87.8428 109.056 88.0479 109.374 88.3441 109.587C87.9168 109.869 87.6182 110.308 87.5135 110.809C87.4087 111.31 87.5063 111.832 87.7849 112.261C87.9494 112.507 88.1665 112.714 88.4207 112.866C88.1215 113.523 88.0306 114.255 88.1602 114.965C88.2298 115.318 88.4073 115.64 88.6681 115.887C88.9289 116.134 89.2601 116.294 89.6158 116.344C89.2423 116.493 88.9187 116.745 88.6827 117.07C88.4467 117.396 88.308 117.781 88.2828 118.183C88.2785 118.583 88.4016 118.975 88.6343 119.301C88.867 119.628 89.1972 119.872 89.5775 119.998C89.746 120.044 89.9452 120.083 90.0371 120.228C90.0968 120.344 90.1234 120.474 90.1137 120.604C90.1336 120.884 90.2324 121.152 90.3986 121.378C90.5648 121.605 90.7917 121.779 91.0531 121.882C91.3144 121.984 91.5994 122.011 91.8752 121.958C92.1509 121.906 92.4061 121.776 92.6112 121.584C92.6207 121.787 92.7042 121.979 92.8459 122.124C92.9876 122.269 93.1775 122.356 93.3798 122.371C93.582 122.385 93.7824 122.324 93.9429 122.2C94.1034 122.077 94.2129 121.898 94.2506 121.699C94.0054 122.848 95.913 121.875 96.1811 121.699C96.9472 121.117 97.2689 120.167 97.9431 119.5C98.9466 118.543 100.372 118.198 100.241 116.436C100.057 115.516 99.643 114.657 99.0386 113.939C98.7376 113.575 98.5301 113.144 98.4339 112.682C98.3378 112.22 98.356 111.741 98.487 111.288C98.8087 110.583 99.5595 110.231 100.119 109.756C100.537 109.322 100.863 108.808 101.076 108.244C101.29 107.68 101.386 107.079 101.36 106.477C101.289 105.923 101.261 105.365 101.276 104.807Z" fill="#774828"/>
<path d="M89.3018 108.17C89.6005 108.195 89.8908 108.281 90.1545 108.423C90.4183 108.566 90.6496 108.761 90.8339 108.997C91.187 109.461 91.4638 109.978 91.6536 110.53C91.8594 110.983 91.9539 111.48 91.9294 111.977C91.8145 112.531 91.6156 113.063 91.3395 113.556C91.2079 113.91 91.0491 114.253 90.8646 114.582C90.7712 114.749 90.6401 114.891 90.4818 114.997C90.3234 115.104 90.1423 115.171 89.9529 115.195C89.6808 115.191 89.4166 115.103 89.1969 114.943C88.9773 114.782 88.8131 114.557 88.7272 114.299C88.5765 113.796 88.4563 113.284 88.3671 112.767C88.2053 112.342 88.0847 111.904 88.0071 111.457C88.022 110.992 88.0836 110.53 88.1909 110.078C88.2522 109.695 88.0454 108.944 88.1909 108.63C88.3365 108.316 88.9264 108.17 89.3018 108.17Z" fill="#7064E1"/>
<path d="M80.1087 100.279C79.7569 100.16 79.3797 100.135 79.0152 100.208C78.6507 100.28 78.3118 100.448 78.0327 100.693C77.6333 100.235 77.114 99.8982 76.5334 99.7196C75.9528 99.5409 75.3338 99.5279 74.7462 99.6819C74.5371 99.7203 74.3416 99.8127 74.1793 99.95C74.0013 100.158 73.9034 100.423 73.9034 100.697C73.9034 100.971 74.0013 101.236 74.1793 101.444C74.5419 101.856 74.9993 102.175 75.5123 102.371C75.1683 102.41 74.8367 102.523 74.5394 102.7C74.3897 102.789 74.2748 102.926 74.2135 103.089C74.1522 103.252 74.1483 103.431 74.2023 103.597C74.2854 103.782 74.4322 103.931 74.616 104.018C75.5046 104.47 76.5465 104.018 77.4045 104.585C76.8452 104.807 75.2518 108.614 75.7038 108.921C74.8311 109.451 74.0541 110.124 73.4056 110.913C73.0786 111.309 72.8544 111.78 72.7528 112.284C72.6512 112.788 72.6755 113.309 72.8233 113.801C72.9083 114.04 73.0395 114.26 73.2094 114.448C73.3794 114.636 73.5848 114.789 73.8139 114.898C74.0429 115.007 74.2912 115.069 74.5445 115.082C74.7978 115.095 75.0512 115.058 75.2901 114.973C75.0915 115.209 74.9603 115.495 74.9104 115.8C74.8605 116.104 74.8938 116.417 75.0067 116.704C76.0184 116.903 77.0592 116.903 78.071 116.704C77.9247 116.949 77.8796 117.241 77.9455 117.519C78.0113 117.796 78.1827 118.037 78.4234 118.19C78.6765 118.323 78.9717 118.35 79.2445 118.265C79.5172 118.18 79.7454 117.991 79.8789 117.738C79.6108 118.428 80.5377 119.094 81.2502 118.895C81.9346 118.594 82.4814 118.047 82.7824 117.363C82.7824 117.93 83.5944 118.175 84.077 117.892C84.5267 117.548 84.8456 117.062 84.981 116.513C85.2933 116.601 85.6272 116.572 85.9195 116.431C86.2119 116.29 86.4422 116.046 86.5668 115.747C86.7891 115.137 86.8575 114.482 86.766 113.839C87.0877 114.291 87.7619 113.785 88.03 113.303C88.5179 112.413 88.928 111.482 89.2557 110.522C89.4549 110.056 89.5314 109.547 89.4779 109.043C89.2634 107.795 87.8615 107.879 87.4631 106.99C86.9498 105.841 88.0606 105.175 86.697 103.972C85.6776 103.061 84.5088 102.333 83.242 101.819C82.9723 101.675 82.6618 101.627 82.361 101.681C82.1235 101.75 81.8784 101.942 81.6562 101.842C81.4341 101.743 81.4341 101.574 81.3728 101.413C81.256 101.144 81.0826 100.904 80.8645 100.708C80.6463 100.513 80.3886 100.366 80.1087 100.279Z" fill="#774828"/>
</g>
<defs>
<linearGradient id="paint0_linear" x1="94.128" y1="155.238" x2="78.5613" y2="224.17" gradientUnits="userSpaceOnUse">
<stop offset="0.01"/>
<stop offset="0.08" stop-opacity="0.69"/>
<stop offset="0.21" stop-opacity="0.32"/>
<stop offset="1" stop-opacity="0"/>
</linearGradient>
<linearGradient id="paint1_linear" x1="1301.05" y1="2431.63" x2="2137.26" y2="5328.39" gradientUnits="userSpaceOnUse">
<stop offset="0.01"/>
<stop offset="0.08" stop-opacity="0.69"/>
<stop offset="0.21" stop-opacity="0.32"/>
<stop offset="1" stop-opacity="0"/>
</linearGradient>
<linearGradient id="paint2_linear" x1="148.515" y1="124.884" x2="61.4742" y2="136.637" gradientUnits="userSpaceOnUse">
<stop offset="0.01"/>
<stop offset="0.13" stop-opacity="0.69"/>
<stop offset="0.25" stop-opacity="0.32"/>
<stop offset="1" stop-opacity="0"/>
</linearGradient>
<linearGradient id="paint3_linear" x1="8006.7" y1="-2695.06" x2="13928.1" y2="-1452.92" gradientUnits="userSpaceOnUse">
<stop offset="0.01"/>
<stop offset="0.13" stop-opacity="0.69"/>
<stop offset="0.25" stop-opacity="0.32"/>
<stop offset="1" stop-opacity="0"/>
</linearGradient>
<linearGradient id="paint4_linear" x1="13224" y1="-4181.69" x2="6274.76" y2="1107.22" gradientUnits="userSpaceOnUse">
<stop offset="0.01"/>
<stop offset="0.08" stop-opacity="0.69"/>
<stop offset="0.21" stop-opacity="0.32"/>
<stop offset="1" stop-opacity="0"/>
</linearGradient>
<linearGradient id="paint5_linear" x1="16832.4" y1="-2166.01" x2="13017.6" y2="3958.13" gradientUnits="userSpaceOnUse">
<stop offset="0.01"/>
<stop offset="0.08" stop-opacity="0.69"/>
<stop offset="0.21" stop-opacity="0.32"/>
<stop offset="1" stop-opacity="0"/>
</linearGradient>
<linearGradient id="paint6_linear" x1="16878" y1="-2881.38" x2="11305.2" y2="3826.21" gradientUnits="userSpaceOnUse">
<stop offset="0.01"/>
<stop offset="0.08" stop-opacity="0.69"/>
<stop offset="0.21" stop-opacity="0.32"/>
<stop offset="1" stop-opacity="0"/>
</linearGradient>
<linearGradient id="paint7_linear" x1="8396.07" y1="-2696.29" x2="8690.14" y2="-1122.88" gradientUnits="userSpaceOnUse">
<stop offset="0.01"/>
<stop offset="0.08" stop-opacity="0.69"/>
<stop offset="0.21" stop-opacity="0.32"/>
<stop offset="1" stop-opacity="0"/>
</linearGradient>
<linearGradient id="paint8_linear" x1="10971.3" y1="-2366.01" x2="11588.3" y2="385.984" gradientUnits="userSpaceOnUse">
<stop offset="0.01"/>
<stop offset="0.08" stop-opacity="0.69"/>
<stop offset="0.21" stop-opacity="0.32"/>
<stop offset="1" stop-opacity="0"/>
</linearGradient>
<linearGradient id="paint9_linear" x1="9638.28" y1="-2184.61" x2="9853.31" y2="-649.063" gradientUnits="userSpaceOnUse">
<stop offset="0.01"/>
<stop offset="0.08" stop-opacity="0.69"/>
<stop offset="0.21" stop-opacity="0.32"/>
<stop offset="1" stop-opacity="0"/>
</linearGradient>
<linearGradient id="paint10_linear" x1="52181.7" y1="29014.6" x2="-3316.5" y2="6905.21" gradientUnits="userSpaceOnUse">
<stop offset="0.01"/>
<stop offset="0.08" stop-opacity="0.69"/>
<stop offset="0.21" stop-opacity="0.32"/>
<stop offset="1" stop-opacity="0"/>
</linearGradient>
<linearGradient id="paint11_linear" x1="19462.6" y1="6925.32" x2="20932" y2="-4372.85" gradientUnits="userSpaceOnUse">
<stop offset="0.01"/>
<stop offset="0.08" stop-opacity="0.69"/>
<stop offset="0.21" stop-opacity="0.32"/>
<stop offset="1" stop-opacity="0"/>
</linearGradient>
<linearGradient id="paint12_linear" x1="143.858" y1="124.465" x2="146.94" y2="125.331" gradientUnits="userSpaceOnUse">
<stop stop-color="#E3C5D5"/>
<stop offset="0.42" stop-color="#E8D3CF"/>
<stop offset="1" stop-color="#EFE8CB"/>
</linearGradient>
<linearGradient id="paint13_linear" x1="145.917" y1="126.435" x2="147.536" y2="118.003" gradientUnits="userSpaceOnUse">
<stop stop-color="#010101" stop-opacity="0"/>
<stop offset="0.95" stop-color="#010101"/>
</linearGradient>
<linearGradient id="paint14_linear" x1="-116.895" y1="4666.1" x2="-82.137" y2="4666.1" gradientUnits="userSpaceOnUse">
<stop stop-color="#E3C5D5"/>
<stop offset="0.42" stop-color="#E8D3CF"/>
<stop offset="1" stop-color="#EFE8CB"/>
</linearGradient>
<linearGradient id="paint15_linear" x1="106.98" y1="685.628" x2="106.125" y2="685.578" gradientUnits="userSpaceOnUse">
<stop stop-color="#010101" stop-opacity="0"/>
<stop offset="0.95" stop-color="#010101"/>
</linearGradient>
<linearGradient id="paint16_linear" x1="347.669" y1="3986.77" x2="368.181" y2="3986.77" gradientUnits="userSpaceOnUse">
<stop stop-color="#E3C5D5"/>
<stop offset="0.42" stop-color="#E8D3CF"/>
<stop offset="1" stop-color="#EFE8CB"/>
</linearGradient>
<linearGradient id="paint17_linear" x1="167.761" y1="1720.16" x2="186.767" y2="1686.68" gradientUnits="userSpaceOnUse">
<stop stop-color="#010101" stop-opacity="0"/>
<stop offset="0.95" stop-color="#010101"/>
</linearGradient>
<linearGradient id="paint18_linear" x1="-494.892" y1="3483.92" x2="-432.322" y2="3494.04" gradientUnits="userSpaceOnUse">
<stop stop-color="#E3C5D5"/>
<stop offset="0.42" stop-color="#E8D3CF"/>
<stop offset="1" stop-color="#EFE8CB"/>
</linearGradient>
<linearGradient id="paint19_linear" x1="572.764" y1="4256.32" x2="598.805" y2="4256.32" gradientUnits="userSpaceOnUse">
<stop stop-color="#E3C5D5"/>
<stop offset="0.42" stop-color="#E8D3CF"/>
<stop offset="1" stop-color="#EFE8CB"/>
</linearGradient>
<linearGradient id="paint20_linear" x1="367.7" y1="1803.24" x2="388.571" y2="1763.5" gradientUnits="userSpaceOnUse">
<stop stop-color="#010101" stop-opacity="0"/>
<stop offset="0.95" stop-color="#010101"/>
</linearGradient>
<linearGradient id="paint21_linear" x1="-194.643" y1="3692.45" x2="-115.751" y2="3705.2" gradientUnits="userSpaceOnUse">
<stop stop-color="#E3C5D5"/>
<stop offset="0.42" stop-color="#E8D3CF"/>
<stop offset="1" stop-color="#EFE8CB"/>
</linearGradient>
<linearGradient id="paint22_linear" x1="9.43498" y1="1410.55" x2="9.17192" y2="1390.09" gradientUnits="userSpaceOnUse">
<stop stop-color="#010101" stop-opacity="0"/>
<stop offset="0.95" stop-color="#010101"/>
</linearGradient>
<linearGradient id="paint23_linear" x1="142.609" y1="619.401" x2="143.126" y2="619.231" gradientUnits="userSpaceOnUse">
<stop stop-color="#010101" stop-opacity="0"/>
<stop offset="0.95" stop-color="#010101"/>
</linearGradient>
<linearGradient id="paint24_linear" x1="34.6026" y1="8051.2" x2="129.444" y2="8051.2" gradientUnits="userSpaceOnUse">
<stop stop-color="#E3C5D5"/>
<stop offset="0.42" stop-color="#E8D3CF"/>
<stop offset="1" stop-color="#EFE8CB"/>
</linearGradient>
<linearGradient id="paint25_linear" x1="-83.1749" y1="3272.56" x2="4.04861" y2="3117.63" gradientUnits="userSpaceOnUse">
<stop stop-color="#010101" stop-opacity="0"/>
<stop offset="0.95" stop-color="#010101"/>
</linearGradient>
<linearGradient id="paint26_linear" x1="-1989.56" y1="6339.64" x2="-1701.92" y2="6386.12" gradientUnits="userSpaceOnUse">
<stop stop-color="#E3C5D5"/>
<stop offset="0.42" stop-color="#E8D3CF"/>
<stop offset="1" stop-color="#EFE8CB"/>
</linearGradient>
<linearGradient id="paint27_linear" x1="2033.69" y1="-2426.24" x2="2007.17" y2="-2842.77" gradientUnits="userSpaceOnUse">
<stop stop-color="#E3C5D5"/>
<stop offset="0.42" stop-color="#E8D3CF"/>
<stop offset="1" stop-color="#EFE8CB"/>
</linearGradient>
<clipPath id="clip0">
<rect width="300" height="226.108" fill="white" transform="translate(22 13)"/>
</clipPath>
</defs>
</svg>
