<svg width="361" height="292" viewBox="0 0 361 292" fill="none" xmlns="http://www.w3.org/2000/svg">
<path opacity="0.34" d="M323.455 291.413H32.431C28.718 291.413 25.71 288.405 25.71 284.692C25.71 280.979 28.718 277.971 32.431 277.971H323.455C327.168 277.971 330.176 280.979 330.176 284.692C330.176 288.405 327.168 291.413 323.455 291.413Z" fill="black"/>
<path d="M344.84 202.865H285.667C279.651 202.865 274.763 197.977 274.763 191.961C274.763 185.945 279.651 181.057 285.667 181.057H318.708C325.852 181.057 331.633 175.276 331.633 168.132C331.633 160.988 325.852 155.207 318.708 155.207H289.333C281.296 155.207 274.763 148.674 274.763 140.637C274.763 132.6 281.296 126.067 289.333 126.067H321.998C329.142 126.067 334.97 120.239 334.97 113.095C334.97 105.951 329.142 100.123 321.998 100.123H274.81H263.53C256.386 100.123 250.558 94.295 250.558 87.151C250.558 80.007 256.386 74.179 263.53 74.179H276.314C283.458 74.179 289.286 68.351 289.286 61.207C289.286 54.063 283.458 48.235 276.314 48.235H269.029H267.807H190.586H187.954H107.302H88.831C81.687 48.235 75.859 54.063 75.859 61.207C75.859 68.351 81.687 74.179 88.831 74.179H94.33C101.474 74.179 107.302 80.007 107.302 87.151C107.302 94.295 101.474 100.123 94.33 100.123H44.839C39.34 100.123 34.875 104.588 34.875 110.087C34.875 115.586 39.34 120.051 44.839 120.051H96.962C102.696 120.051 107.349 124.704 107.349 130.438C107.349 136.172 102.696 140.825 96.962 140.825H13.772C6.62801 140.825 0.800003 146.653 0.800003 153.797C0.800003 160.941 6.62801 166.769 13.772 166.769H94.33C101.474 166.769 107.302 172.597 107.302 179.741C107.302 186.885 101.474 192.713 94.33 192.713H45.685C34.217 192.713 24.911 202.019 24.911 213.487C24.911 224.955 34.217 234.261 45.685 234.261H107.302H134.656H150.025H274.81H344.84C353.488 234.261 360.491 227.258 360.491 218.61C360.491 209.868 353.488 202.865 344.84 202.865Z" fill="#8094DA" fill-opacity="0.2"/>
<path d="M235.052 284.703H243.512L243.512 157.427H235.052L235.052 284.703Z" fill="#2F262D"/>
<path d="M202.853 183.078C201.49 180.023 202.853 176.404 205.955 174.994C206.754 174.665 207.6 174.477 208.446 174.477C210.843 174.477 213.052 175.887 214.039 178.096L244.119 245.87L232.933 250.852L202.853 183.078Z" fill="#FC9F6F"/>
<path d="M152.565 284.703H161.025L161.025 157.427H152.565L152.565 284.703Z" fill="#2F262D"/>
<path d="M191.714 165.735C162.621 165.735 139.074 143.551 139.074 116.244C139.074 109.194 140.672 102.473 143.492 96.3629C124.974 104.024 112.049 121.461 112.049 141.671C112.049 169.025 135.596 191.162 164.689 191.162C186.262 191.162 204.78 178.989 212.911 161.552C206.378 164.231 199.234 165.735 191.714 165.735Z" fill="#F2F2F2"/>
<path d="M162.574 179.13C178.486 179.13 191.385 167.283 191.385 152.669C191.385 138.055 178.486 126.208 162.574 126.208C146.662 126.208 133.763 138.055 133.763 152.669C133.763 167.283 146.662 179.13 162.574 179.13Z" fill="#3B323A"/>
<path d="M110.686 157.416H46.249C43.805 157.416 41.784 155.395 41.784 152.951V148.721C41.784 146.277 43.805 144.256 46.249 144.256H110.686C113.13 144.256 115.151 146.277 115.151 148.721V152.951C115.151 155.395 113.13 157.416 110.686 157.416Z" fill="#AFAFAF"/>
<path d="M187.531 132.506C178.507 132.506 171.175 125.174 171.175 116.15V99.794C171.175 93.543 166.146 88.514 159.895 88.514V116.15C159.895 131.425 172.256 143.786 187.531 143.786H210.42V132.506H187.531Z" fill="#EF9067"/>
<path d="M191.244 46.167C189.552 67.552 170.752 91.24 153.174 88.232C136.348 85.365 124.786 58.81 130.473 40.198C133.998 28.73 143.68 21.539 151.482 15.758C159.566 9.74197 165.018 5.69997 171.222 6.68697C183.536 8.56697 192.607 29.153 191.244 46.167Z" fill="#603936"/>
<path d="M167.509 107.032C167.18 106.656 164.548 103.601 164.078 103.178C162.856 98.149 160.365 92.603 160.882 86.117C157.357 83.532 151.529 80.242 144.902 80.712C142.928 80.853 140.86 81.323 139.826 81.558C134.092 82.874 130.473 84.989 129.298 85.694C127.7 86.681 126.901 87.151 125.961 88.091C123.423 90.723 122.812 93.919 122.483 95.799C119.663 112.155 121.872 127.853 122.154 129.216C122.671 131.707 123.376 133.916 123.376 133.916C124.551 137.629 125.961 139.932 126.337 140.966C128.217 146.042 132.494 156.711 137.006 164.842C140.296 165.359 147.769 168.649 152.704 166.957C160.224 164.372 175.734 158.591 181.28 157.416C174.371 149.661 168.026 141.013 166.381 130.485C165.958 127.759 165.582 125.08 165.3 122.448C165.958 122.119 169.953 120.098 170.752 116.056C171.598 111.685 168.167 107.784 167.509 107.032Z" fill="#3129A4"/>
<path d="M150.536 97.1113C154.637 95.9678 156.881 91.1696 155.549 86.3942C154.218 81.6188 149.814 78.6745 145.714 79.8179C141.613 80.9614 139.369 85.7596 140.701 90.535C142.032 95.3104 146.436 98.2547 150.536 97.1113Z" fill="#EF9067"/>
<path d="M146.923 77.7981C149.508 83.9081 153.785 86.0231 156.511 87.6211C161.822 90.7231 171.786 90.4411 171.786 90.4411C172.115 88.2791 172.444 86.3991 174.136 82.8271C176.58 77.5161 178.836 76.2471 181.985 71.4531C186.685 64.2151 189.035 55.4731 187.531 54.6271C186.45 53.9691 183.489 57.3531 181.562 59.3271C176.063 64.9671 163.749 73.3331 146.923 77.7981Z" fill="#603936"/>
<path d="M146.735 91.24H144.761C140.437 91.24 136.959 87.762 136.959 83.438V53.781H152.563V85.365C152.563 88.608 149.931 91.24 146.735 91.24Z" fill="#EF9067"/>
<path d="M58.8841 284.703H67.3441L67.3441 157.427H58.8841L58.8841 284.703Z" fill="#2F262D"/>
<path d="M110.918 284.703H119.378L119.378 157.427H110.918L110.918 284.703Z" fill="#494149"/>
<path d="M285.973 284.703H294.433V157.427H285.973V284.703Z" fill="#494149"/>
<path opacity="0.71" d="M136.959 56.93C137.993 65.907 144.197 73.333 152.563 76.153V51.995H136.959V56.93Z" fill="#D36B46"/>
<path d="M159.895 74.978C148.427 74.978 139.168 65.7189 139.168 54.2509V28.965C139.168 27.884 140.014 27.0379 141.095 27.0379H170.564C176.11 27.0379 180.622 31.5499 180.622 37.0959V54.2509C180.622 65.7189 171.363 74.978 159.895 74.978Z" fill="#FC9F6F"/>
<path d="M180.622 51.29C180.387 51.854 179.823 52.23 179.212 52.23H170.094C169.248 52.23 168.543 51.525 168.543 50.679V45.556C168.543 44.71 169.248 44.005 170.094 44.005H179.212C179.823 44.005 180.387 44.381 180.622 44.945V42.971C180.199 42.736 179.729 42.595 179.212 42.595H170.094C168.449 42.595 167.133 43.911 167.133 45.556V50.679C167.133 52.324 168.449 53.64 170.094 53.64H179.212C179.729 53.64 180.199 53.499 180.622 53.264V51.29Z" fill="#DD9883"/>
<path d="M162.292 52.888H153.174C151.905 52.888 150.918 51.854 150.918 50.632V45.509C150.918 44.24 151.952 43.253 153.174 43.253H162.292C163.561 43.253 164.548 44.287 164.548 45.509V50.632C164.548 51.901 163.514 52.888 162.292 52.888Z" stroke="#DD9883" stroke-width="3" stroke-miterlimit="10" stroke-linecap="round" stroke-linejoin="round"/>
<path opacity="0.6" d="M152.046 58.199V32.9129C152.046 31.8319 152.892 30.9859 153.973 30.9859L170.987 25.017C169.154 22.62 173.807 27.085 170.564 27.085H141.095C140.014 27.085 139.168 27.931 139.168 29.012V54.2979C139.168 65.7659 148.427 75.0249 159.895 75.0249C160.13 75.0249 160.365 75.0249 160.647 75.0249C155.43 71.2179 152.046 65.108 152.046 58.199Z" fill="#EF9067"/>
<path d="M179.212 51.948H170.094C168.825 51.948 167.838 50.914 167.838 49.692V44.569C167.838 43.3 168.872 42.313 170.094 42.313H179.212C180.481 42.313 181.468 43.347 181.468 44.569V49.692C181.468 50.961 180.434 51.948 179.212 51.948Z" stroke="#F6CDF7" stroke-width="3" stroke-miterlimit="10" stroke-linecap="round" stroke-linejoin="round"/>
<path d="M165.3 64.544C162.668 64.544 160.553 62.429 160.553 59.844V57.635H169.953V59.844C169.953 62.429 167.885 64.544 165.3 64.544Z" fill="#FCFAFA"/>
<path d="M156.793 46.543H161.023" stroke="#161515" stroke-width="3" stroke-miterlimit="10" stroke-linecap="round" stroke-linejoin="round"/>
<path d="M172.773 46.543H177.003" stroke="#161515" stroke-width="3" stroke-miterlimit="10" stroke-linecap="round" stroke-linejoin="round"/>
<path d="M162.292 51.948H153.174C151.905 51.948 150.918 50.914 150.918 49.692V44.569C150.918 43.3 151.952 42.313 153.174 42.313H162.292C163.561 42.313 164.548 43.347 164.548 44.569V49.692C164.548 50.961 163.514 51.948 162.292 51.948Z" stroke="#F6CDF7" stroke-width="3" stroke-miterlimit="10" stroke-linecap="round" stroke-linejoin="round"/>
<path d="M168.59 8.00301C162.903 0.671007 153.221 0.812008 151.435 0.624008C149.837 0.295008 141.048 0.71801 134.609 2.41001C119.757 6.35801 109.417 19.8 109.417 35.216V54.956C109.417 68.21 119.193 84.284 131.742 88.467C138.698 90.817 146.406 92.603 148.239 92.321C138.933 75.072 140.202 64.873 142.834 58.904C149.132 44.334 167.603 44.851 172.162 28.636C172.256 28.166 175.123 16.463 168.59 8.00301Z" fill="#754743"/>
<path d="M226.588 143.645C227.058 142.423 227.293 141.107 227.293 139.744C227.293 133.493 222.264 128.464 216.013 128.464C209.762 128.464 204.733 133.493 204.733 139.744C204.733 141.107 204.968 142.423 205.438 143.645H226.588Z" fill="#EF9067"/>
<path d="M190.398 144.256C189.458 139.932 184.241 136.642 177.896 136.642C171.598 136.642 166.334 139.932 165.394 144.256H190.398Z" fill="#F4EFF0"/>
<path d="M128.499 111.356C132.289 111.356 135.361 106.537 135.361 100.593C135.361 94.6488 132.289 89.83 128.499 89.83C124.709 89.83 121.637 94.6488 121.637 100.593C121.637 106.537 124.709 111.356 128.499 111.356Z" fill="#EF9067"/>
<path d="M149.273 132.882C140.249 132.882 132.917 125.55 132.917 116.526V96.551C132.917 93.449 130.379 90.911 127.277 90.911C124.175 90.911 121.637 93.449 121.637 96.551V116.526C121.637 131.801 133.998 144.162 149.273 144.162H172.162V132.882H160.694H149.273Z" fill="#FC9F6F"/>
<path d="M244.307 144.256H191.667C191.009 144.256 190.445 143.692 190.445 143.034C190.445 142.376 191.009 141.812 191.667 141.812H244.354C245.012 141.812 245.576 142.376 245.576 143.034C245.576 143.692 245.012 144.256 244.307 144.256Z" fill="white"/>
<path d="M244.307 143.034H191.667C191.197 143.034 190.821 142.799 190.586 142.423C190.492 142.611 190.398 142.799 190.398 143.034C190.398 143.692 190.962 144.256 191.62 144.256H244.307C244.965 144.256 245.529 143.692 245.529 143.034C245.529 142.799 245.482 142.611 245.341 142.423C245.153 142.752 244.777 143.034 244.307 143.034Z" fill="#F4EFF0"/>
<path d="M201.866 144.256H191.667C191.009 144.256 190.445 143.692 190.445 143.034C190.445 142.376 191.009 141.812 191.667 141.812H201.866C202.524 141.812 203.088 142.376 203.088 143.034C203.088 143.692 202.571 144.256 201.866 144.256Z" fill="#F4EFF0"/>
<path d="M240.594 141.812H236.74V140.919C236.74 140.449 237.116 140.026 237.633 140.026H239.701C240.171 140.026 240.594 140.402 240.594 140.919V141.812Z" fill="#F4EFF0"/>
<path d="M235.894 141.812H232.04V140.919C232.04 140.449 232.416 140.026 232.933 140.026H235.001C235.471 140.026 235.894 140.402 235.894 140.919V141.812Z" fill="#F4EFF0"/>
<path d="M231.194 141.812H227.34V140.919C227.34 140.449 227.716 140.026 228.233 140.026H230.301C230.771 140.026 231.194 140.402 231.194 140.919V141.812Z" fill="#F4EFF0"/>
<path d="M226.494 141.812H222.64V140.919C222.64 140.449 223.016 140.026 223.533 140.026H225.601C226.071 140.026 226.494 140.402 226.494 140.919V141.812Z" fill="#F4EFF0"/>
<path d="M221.794 141.812H217.94V140.919C217.94 140.449 218.316 140.026 218.833 140.026H220.901C221.371 140.026 221.794 140.402 221.794 140.919V141.812Z" fill="#F4EFF0"/>
<path d="M217.094 141.812H213.24V140.919C213.24 140.449 213.616 140.026 214.133 140.026H216.201C216.671 140.026 217.094 140.402 217.094 140.919V141.812Z" fill="#F4EFF0"/>
<path d="M212.394 141.812H208.54V140.919C208.54 140.449 208.916 140.026 209.433 140.026H211.501C211.971 140.026 212.394 140.402 212.394 140.919V141.812Z" fill="#F4EFF0"/>
<path d="M207.694 141.812H203.84V140.919C203.84 140.449 204.216 140.026 204.733 140.026H206.801C207.271 140.026 207.694 140.402 207.694 140.919V141.812Z" fill="#F4EFF0"/>
<path d="M202.994 141.812H199.14V140.919C199.14 140.449 199.516 140.026 200.033 140.026H202.101C202.571 140.026 202.994 140.402 202.994 140.919V141.812Z" fill="#F4EFF0"/>
<path d="M198.294 141.812H194.44V140.919C194.44 140.449 194.816 140.026 195.333 140.026H197.401C197.871 140.026 198.294 140.402 198.294 140.919V141.812Z" fill="#F4EFF0"/>
<path d="M191.667 144.256H201.866C202.524 144.256 203.088 143.692 203.088 143.034H190.398C190.398 143.692 190.962 144.256 191.667 144.256Z" fill="#E2E2E2"/>
<path d="M196.226 182.42H159.049L158.767 162.68H204.827C207.929 162.68 210.42 165.171 210.42 168.273C210.373 176.122 204.028 182.42 196.226 182.42Z" fill="#352934"/>
<path d="M166.334 254.001L189.129 176.921C189.881 174.336 192.278 172.55 195.004 172.55C195.568 172.55 196.179 172.644 196.743 172.785C199.986 173.725 201.819 177.156 200.879 180.399L178.084 257.479L166.334 254.001Z" fill="#EF9067"/>
<path d="M185.275 247.703L166.334 242.11L190.21 161.411C191.761 156.194 197.26 153.186 202.477 154.737C207.694 156.288 210.702 161.787 209.151 167.004L185.275 247.703Z" fill="#352934"/>
<path d="M279.369 121.414H200.409C198.858 121.414 197.589 120.145 197.589 118.594L207.365 62.194C207.365 60.643 208.634 59.374 210.185 59.374H289.145C290.696 59.374 291.965 60.643 291.965 62.194L282.189 118.594C282.189 120.145 280.967 121.414 279.369 121.414Z" fill="#CECECE"/>
<path d="M284.069 121.414H205.109C203.558 121.414 202.289 120.145 202.289 118.594L212.065 62.194C212.065 60.643 213.334 59.374 214.885 59.374H293.845C295.396 59.374 296.665 60.643 296.665 62.194L286.889 118.594C286.889 120.145 285.667 121.414 284.069 121.414Z" fill="#F4EFF0"/>
<path d="M259.958 141.201L253.472 108.348H241.91C240.5 108.348 239.419 109.664 239.701 111.027L245.435 140.026C245.67 141.107 244.824 142.094 243.743 142.094H236.693C235.424 142.094 234.437 143.128 234.437 144.35H246.281H257.279C259.018 144.397 260.287 142.846 259.958 141.201Z" fill="#CECECE"/>
<path d="M260.569 144.397H248.584L241.628 109.147C241.534 108.724 241.863 108.395 242.286 108.395H255.775L262.449 142.188C262.637 143.316 261.744 144.397 260.569 144.397Z" fill="#F4EFF0"/>
<path d="M246.328 144.397H248.584L247.973 141.201H245.67L246.328 144.397Z" fill="#F4EFF0"/>
<path d="M246.328 144.397C247.503 144.397 248.396 143.316 248.161 142.141L247.973 141.201H245.435L246.328 144.397Z" fill="#CECECE"/>
<path d="M256.668 91.522C254.13 91.522 252.062 89.454 252.062 86.916C252.062 86.07 252.297 85.318 252.673 84.66C252.015 84.472 251.31 84.3309 250.558 84.3309C246.563 84.3309 243.367 87.574 243.367 91.522C243.367 95.47 246.61 98.713 250.558 98.713C254.553 98.713 257.749 95.47 257.749 91.522C257.749 91.475 257.749 91.428 257.749 91.381C257.373 91.475 257.044 91.522 256.668 91.522Z" fill="#CECECE"/>
<path d="M202.007 171.657L163.279 181.856C152.751 184.629 142.082 177.156 136.959 164.795L196.978 152.528C202.242 151.165 207.647 154.314 209.01 159.578C210.42 164.889 207.271 170.294 202.007 171.657Z" fill="#3B323A"/>
<path d="M240.97 230.407L222.922 238.444L191.291 167.286C189.082 162.304 191.338 156.476 196.32 154.267C201.302 152.058 207.13 154.314 209.339 159.296L240.97 230.407Z" fill="#3B323A"/>
<path d="M106.785 157.416H308.039C310.483 157.416 312.504 155.395 312.504 152.951V148.721C312.504 146.277 310.483 144.256 308.039 144.256H106.785C104.341 144.256 102.32 146.277 102.32 148.721V152.951C102.32 155.395 104.294 157.416 106.785 157.416Z" fill="#F2F2F2"/>
<path d="M270.392 253.296L230.395 260.581C228.844 260.863 227.387 259.876 227.058 258.419L226.776 257.15C225.977 253.484 228.327 249.771 232.181 248.784L261.321 241.405C266.961 239.995 272.648 242.58 273.682 247.327L274.058 249.019C274.481 250.946 272.836 252.873 270.392 253.296Z" fill="#535452"/>
<path d="M271.943 249.677L227.246 257.808C227.152 257.808 227.058 257.855 226.964 257.855L227.105 258.419C227.434 259.923 228.891 260.863 230.442 260.581L270.439 253.296C272.883 252.873 274.575 250.946 274.152 249.019L274.105 248.878C273.447 249.254 272.742 249.536 271.943 249.677Z" fill="#FFFDFD"/>
<path d="M187.813 278.441L154.396 255.317C153.127 254.424 152.751 252.685 153.597 251.416L154.302 250.288C156.323 247.139 160.647 246.152 164.031 248.22L189.834 263.636C194.863 266.644 197.025 272.519 194.393 276.561L193.453 278.018C192.419 279.663 189.834 279.851 187.813 278.441Z" fill="#424441"/>
<path d="M191.479 276.984L154.114 251.134C154.02 251.087 153.973 250.993 153.879 250.946L153.597 251.416C152.798 252.685 153.127 254.424 154.396 255.317L187.813 278.441C189.834 279.851 192.419 279.663 193.453 278.018L193.547 277.877C192.842 277.736 192.137 277.407 191.479 276.984Z" fill="#CECECE"/>
<path d="M95.27 144.256H87.656C83.802 144.256 80.653 141.107 80.653 137.253V116.526H102.273V137.253C102.32 141.107 99.171 144.256 95.27 144.256Z" fill="#FF6161"/>
<path d="M83.097 119.346C78.068 119.346 74.026 123.435 74.026 128.417C74.026 133.399 78.115 137.488 83.097 137.488C88.079 137.488 92.168 133.399 92.168 128.417C92.168 123.435 88.079 119.346 83.097 119.346ZM83.097 135.514C79.196 135.514 76 132.318 76 128.417C76 124.516 79.196 121.32 83.097 121.32C86.998 121.32 90.194 124.516 90.194 128.417C90.147 132.365 86.998 135.514 83.097 135.514Z" fill="#F4A36C"/>
<path d="M95.27 144.256H87.656C83.802 144.256 80.653 141.107 80.653 137.253V116.526H102.273V137.253C102.32 141.107 99.171 144.256 95.27 144.256Z" fill="#F7BC8B"/>
<path d="M90.899 137.676C88.737 137.676 86.998 135.937 86.998 133.775V116.526H80.653V137.253C80.653 141.107 83.802 144.256 87.656 144.256H95.27C98.983 144.256 102.038 141.342 102.273 137.676H90.899Z" fill="#EFA573"/>
<path d="M180.528 144.256C180.998 143.034 181.233 141.718 181.233 140.355C181.233 134.104 176.204 129.075 169.953 129.075C163.702 129.075 158.673 134.104 158.673 140.355C158.673 141.718 158.908 143.034 159.378 144.256H180.528Z" fill="#FC9F6F"/>
<path opacity="0.77" d="M89.113 112.766C90.8002 112.766 92.168 111.398 92.168 109.711C92.168 108.024 90.8002 106.656 89.113 106.656C87.4258 106.656 86.058 108.024 86.058 109.711C86.058 111.398 87.4258 112.766 89.113 112.766Z" fill="#F2F2F2"/>
<path opacity="0.77" d="M94.753 103.601C97.2708 103.601 99.312 101.56 99.312 99.042C99.312 96.5241 97.2708 94.483 94.753 94.483C92.2351 94.483 90.194 96.5241 90.194 99.042C90.194 101.56 92.2351 103.601 94.753 103.601Z" fill="#F2F2F2"/>
<path d="M50.15 74.179C57.3142 74.179 63.122 68.3712 63.122 61.207C63.122 54.0428 57.3142 48.235 50.15 48.235C42.9858 48.235 37.178 54.0428 37.178 61.207C37.178 68.3712 42.9858 74.179 50.15 74.179Z" fill="#8094DA" fill-opacity="0.2"/>
</svg>
